<svg xmlns="http://www.w3.org/2000/svg" width="29.82" height="24.23" viewBox="0 0 29.82 24.23"><title>tw</title><path d="M31.91,7.95a12.23,12.23,0,0,1-3.51,1,6.13,6.13,0,0,0,2.69-3.38A12.22,12.22,0,0,1,27.19,7,6.12,6.12,0,0,0,16.77,12.6,17.38,17.38,0,0,1,4.16,6.21a6.13,6.13,0,0,0,1.89,8.16,6.09,6.09,0,0,1-2.77-.76v0.08a6.13,6.13,0,0,0,4.91,6,6.2,6.2,0,0,1-1.61.21,6,6,0,0,1-1.15-.11A6.11,6.11,0,0,0,11.14,24a12.37,12.37,0,0,1-9.06,2.53,17.31,17.31,0,0,0,9.38,2.75c11.25,0,17.41-9.32,17.41-17.4,0-.27,0-0.53,0-0.79A12.45,12.45,0,0,0,31.91,7.95Z" transform="translate(-2.09 -5.08)" style="fill:#fff"/></svg>