<svg xmlns="http://www.w3.org/2000/svg" width="33.96" height="27.51" viewBox="0 0 33.96 27.51"><title>weibo</title><path d="M14.26,28.2c-5.62.55-10.47-2-10.84-5.68s3.9-7.13,9.52-7.69,10.48,2,10.84,5.68-3.9,7.13-9.52,7.69M25.51,15.95C25,15.81,24.7,15.71,25,15.08a3.55,3.55,0,0,0,0-3.38c-1.1-1.57-4.12-1.49-7.57,0,0,0-1.09.48-.81-0.39,0.53-1.71.45-3.14-.38-4-1.88-1.88-6.87.07-11.14,4.35C1.86,14.85,0,18.25,0,21.19c0,5.61,7.2,9,14.25,9,9.24,0,15.38-5.37,15.38-9.63,0-2.57-2.17-4-4.11-4.64" transform="translate(0 -2.71)" style="fill:#fff"/><path d="M31.65,5.68A9,9,0,0,0,23.09,2.9h0a1.3,1.3,0,1,0,.55,2.54,6.4,6.4,0,0,1,7.42,8.22h0a1.3,1.3,0,0,0,2.48.8h0a9,9,0,0,0-1.88-8.79" transform="translate(0 -2.71)" style="fill:#fff"/><path d="M28.22,8.76A4.39,4.39,0,0,0,24,7.42a1.12,1.12,0,1,0,.47,2.19h0A2.14,2.14,0,0,1,27,12.36h0a1.12,1.12,0,1,0,2.13.69,4.38,4.38,0,0,0-.92-4.28" transform="translate(0 -2.71)" style="fill:#fff"/><path d="M14.58,21.52a0.81,0.81,0,0,1-1,.36A0.57,0.57,0,0,1,13.36,21a0.8,0.8,0,0,1,.95-0.36,0.57,0.57,0,0,1,.27.85m-1.79,2.3a2.14,2.14,0,0,1-2.59.85,1.49,1.49,0,0,1-.58-2.25,2.14,2.14,0,0,1,2.53-.85,1.49,1.49,0,0,1,.63,2.25m2-6.14a6.12,6.12,0,0,0-6.86,3,4.17,4.17,0,0,0,2.67,5.94,6.06,6.06,0,0,0,7.25-3.07,4.19,4.19,0,0,0-3-5.86" transform="translate(0 -2.71)" style="fill:#fff"/></svg>