<?xml version="1.0" encoding="utf-8"?>
<!-- Generator: Adobe Illustrator 16.0.2, SVG Export Plug-In . SVG Version: 6.00 Build 0)  -->
<!DOCTYPE svg PUBLIC "-//W3C//DTD SVG 1.1//EN" "http://www.w3.org/Graphics/SVG/1.1/DTD/svg11.dtd">
<svg version="1.1" id="Слой_1" xmlns="http://www.w3.org/2000/svg" xmlns:xlink="http://www.w3.org/1999/xlink" x="0px" y="0px"
	 width="34px" height="34px" viewBox="0 0 34 34" enable-background="new 0 0 34 34" xml:space="preserve">
<g id="Symbol_shadow">
	<g>
		<path fill="#D67621" d="M19.279,12.328h1.928v-3.11h-2.62c-3.711,0-3.624,2.989-3.624,3.436c0,0.447,0,2.441,0,2.441h-1.722v2.987
			h1.722v8.193H18.5v-8.193h2.373c0,0,0.223-1.433,0.329-2.999c-0.31,0-2.688,0-2.688,0s0-1.737,0-2.041
			S18.898,12.328,19.279,12.328z"/>
	</g>
</g>
<g id="Symbol">
	<g>
		<path fill="#FFFFFF" d="M18.143,11.19h1.928V8.081h-2.62c-3.712,0-3.625,2.989-3.625,3.436c0,0.446,0,2.441,0,2.441h-1.722v2.986
			h1.722v8.193h3.538v-8.193h2.372c0,0,0.226-1.432,0.332-2.997c-0.311,0-2.689,0-2.689,0s0-1.738,0-2.042
			C17.376,11.601,17.762,11.19,18.143,11.19z"/>
	</g>
</g>
</svg>
