<?xml version="1.0" encoding="utf-8"?>
<!-- Generator: Adobe Illustrator 16.0.2, SVG Export Plug-In . SVG Version: 6.00 Build 0)  -->
<!DOCTYPE svg PUBLIC "-//W3C//DTD SVG 1.1//EN" "http://www.w3.org/Graphics/SVG/1.1/DTD/svg11.dtd">
<svg version="1.1" id="Слой_1" xmlns="http://www.w3.org/2000/svg" xmlns:xlink="http://www.w3.org/1999/xlink" x="0px" y="0px"
	 width="34px" height="34px" viewBox="0 0 34 34" enable-background="new 0 0 34 34" xml:space="preserve">
<g>
	<g>
		<path fill="#D67621" d="M27.367,17v-2h-2v2h-2v2h2v2h2v-2h2v-2H27.367z"/>
	</g>
</g>
<path fill="#D67621" d="M14.951,16.916v2.602h4.302c-0.173,1.114-1.301,3.271-4.302,3.271c-2.59,0-4.701-2.146-4.701-4.788
	c0-2.643,2.111-4.789,4.701-4.789c1.473,0,2.459,0.628,3.023,1.17l2.057-1.983c-1.32-1.235-3.032-1.982-5.08-1.982
	c-4.192,0-7.583,3.391-7.583,7.583c0,4.192,3.391,7.583,7.583,7.583c4.377,0,7.281-3.076,7.281-7.41
	c0-0.498-0.057-0.878-0.121-1.257L14.951,16.916L14.951,16.916L14.951,16.916z"/>
<g>
	<g>
		<path fill="#FFFFFF" d="M26.367,16v-2h-2v2h-2v2h2v2h2v-2h2v-2H26.367z"/>
	</g>
</g>
<path fill="#FFFFFF" d="M13.951,15.916v2.602h4.302c-0.173,1.114-1.301,3.271-4.302,3.271c-2.589,0-4.701-2.146-4.701-4.788
	c0-2.643,2.112-4.789,4.701-4.789c1.473,0,2.459,0.628,3.023,1.17l2.057-1.983c-1.32-1.235-3.032-1.982-5.08-1.982
	c-4.192,0-7.583,3.391-7.583,7.583c0,4.192,3.391,7.583,7.583,7.583c4.377,0,7.281-3.076,7.281-7.41
	c0-0.498-0.057-0.878-0.121-1.257L13.951,15.916L13.951,15.916L13.951,15.916z"/>
</svg>
