<?xml version="1.0" encoding="utf-8"?>
<!-- Generator: Adobe Illustrator 16.0.2, SVG Export Plug-In . SVG Version: 6.00 Build 0)  -->
<!DOCTYPE svg PUBLIC "-//W3C//DTD SVG 1.1//EN" "http://www.w3.org/Graphics/SVG/1.1/DTD/svg11.dtd">
<svg version="1.1" id="Слой_1" xmlns="http://www.w3.org/2000/svg" xmlns:xlink="http://www.w3.org/1999/xlink" x="0px" y="0px"
	 width="34px" height="34px" viewBox="0 0 34 34" enable-background="new 0 0 34 34" xml:space="preserve">
<path fill="#D67621" d="M12.355,14.983h2.904v9.342h-2.904V14.983z M13.807,10.339c0.928,0,1.683,0.754,1.683,1.683
	s-0.754,1.685-1.683,1.685c-0.93,0-1.682-0.755-1.682-1.685C12.125,11.094,12.877,10.339,13.807,10.339"/>
<path fill="#D67621" d="M17.08,14.983h2.786v1.276h0.038c0.388-0.733,1.336-1.508,2.748-1.508c2.938,0,3.479,1.934,3.479,4.45v5.124
	h-2.899v-4.544c0-1.083-0.021-2.477-1.51-2.477c-1.51,0-1.74,1.18-1.74,2.399v4.622H17.08V14.983z"/>
<path fill="#FFFFFF" d="M10.467,13.096h2.905v9.341h-2.905V13.096z M11.919,8.452c0.929,0,1.683,0.754,1.683,1.683
	c0,0.929-0.754,1.684-1.683,1.684c-0.93,0-1.683-0.755-1.683-1.684C10.237,9.206,10.989,8.452,11.919,8.452"/>
<path fill="#FFFFFF" d="M15.192,13.096h2.787v1.276h0.039c0.387-0.734,1.334-1.509,2.746-1.509c2.938,0,3.48,1.934,3.48,4.451v5.124
	h-2.898v-4.543c0-1.083-0.021-2.478-1.511-2.478c-1.51,0-1.739,1.181-1.739,2.399v4.621h-2.904V13.096z"/>
</svg>
