<?xml version="1.0" encoding="utf-8"?>
<!-- Generator: Adobe Illustrator 16.0.2, SVG Export Plug-In . SVG Version: 6.00 Build 0)  -->
<!DOCTYPE svg PUBLIC "-//W3C//DTD SVG 1.1//EN" "http://www.w3.org/Graphics/SVG/1.1/DTD/svg11.dtd">
<svg version="1.1" id="Слой_1" xmlns="http://www.w3.org/2000/svg" xmlns:xlink="http://www.w3.org/1999/xlink" x="0px" y="0px"
	 width="34px" height="34px" viewBox="0 0 34 34" enable-background="new 0 0 34 34" xml:space="preserve">
<g id="Symbol_shadow_2_">
	<g>
		<path fill="#D67621" d="M26.355,13.011c-0.603,0.267-1.246,0.446-1.924,0.527c0.69-0.414,1.223-1.07,1.473-1.851
			c-0.646,0.384-1.363,0.662-2.127,0.812c-0.609-0.651-1.479-1.057-2.442-1.057c-1.849,0-3.349,1.499-3.349,3.346
			c0,0.263,0.029,0.518,0.088,0.763c-2.783-0.141-5.249-1.472-6.9-3.497c-0.288,0.495-0.453,1.069-0.453,1.683
			c0,1.16,0.591,2.185,1.489,2.785c-0.549-0.018-1.065-0.168-1.517-0.418v0.042c0,1.622,1.153,2.973,2.686,3.282
			c-0.281,0.076-0.577,0.117-0.882,0.117c-0.216,0-0.426-0.021-0.63-0.061c0.426,1.33,1.663,2.298,3.127,2.324
			c-1.146,0.896-2.589,1.433-4.157,1.433c-0.271,0-0.537-0.017-0.799-0.048c1.481,0.949,3.241,1.505,5.132,1.505
			c6.156,0,9.523-5.101,9.523-9.521c0-0.145-0.002-0.29-0.01-0.433C25.338,14.271,25.906,13.682,26.355,13.011z"/>
	</g>
</g>
<g id="Symbol_2_">
	<g>
		<path fill="#FFFFFF" d="M25.335,11.991c-0.601,0.267-1.245,0.446-1.922,0.527c0.69-0.414,1.222-1.069,1.472-1.851
			c-0.646,0.384-1.363,0.662-2.127,0.812c-0.609-0.65-1.48-1.056-2.443-1.056c-1.848,0-3.347,1.498-3.347,3.346
			c0,0.263,0.029,0.519,0.086,0.763c-2.782-0.14-5.249-1.472-6.9-3.496c-0.288,0.495-0.453,1.068-0.453,1.682
			c0,1.161,0.591,2.185,1.489,2.785c-0.549-0.017-1.064-0.167-1.517-0.418v0.042c0,1.621,1.153,2.973,2.686,3.282
			c-0.281,0.075-0.577,0.116-0.882,0.116c-0.216,0-0.425-0.021-0.629-0.061c0.426,1.329,1.662,2.299,3.127,2.323
			c-1.146,0.897-2.589,1.433-4.157,1.433c-0.271,0-0.537-0.016-0.799-0.047c1.481,0.95,3.241,1.504,5.132,1.504
			c6.156,0,9.524-5.099,9.524-9.521c0-0.145-0.005-0.289-0.011-0.432C24.318,13.251,24.887,12.662,25.335,11.991z"/>
	</g>
</g>
</svg>
