<?xml version="1.0" encoding="utf-8"?>
<!-- Generator: Adobe Illustrator 16.0.2, SVG Export Plug-In . SVG Version: 6.00 Build 0)  -->
<!DOCTYPE svg PUBLIC "-//W3C//DTD SVG 1.1//EN" "http://www.w3.org/Graphics/SVG/1.1/DTD/svg11.dtd">
<svg version="1.1" id="Слой_1" xmlns="http://www.w3.org/2000/svg" xmlns:xlink="http://www.w3.org/1999/xlink" x="0px" y="0px"
	 width="34px" height="34px" viewBox="0 0 34 34" enable-background="new 0 0 34 34" xml:space="preserve">
<path fill="#D67621" d="M26.259,23.754c-0.106,0.014-0.215,0.029-0.321,0.031c-1.057,0.002-2.112-0.002-3.168,0.002
	c-0.146,0.002-0.271-0.053-0.381-0.141c-0.22-0.181-0.447-0.357-0.65-0.558c-0.527-0.522-1.043-1.063-1.567-1.592
	c-0.162-0.164-0.337-0.315-0.509-0.474c-0.09-0.084-0.201-0.104-0.316-0.102c-0.154,0.006-0.281,0.074-0.342,0.217
	c-0.057,0.131-0.104,0.271-0.117,0.408c-0.027,0.252-0.027,0.504-0.033,0.754c-0.004,0.281-0.014,0.563-0.092,0.836
	c-0.035,0.121-0.086,0.242-0.148,0.353c-0.108,0.188-0.278,0.291-0.5,0.293c-0.919,0.022-1.843,0.034-2.763-0.025
	c-0.17-0.01-0.328-0.065-0.479-0.141c-0.858-0.423-1.614-0.982-2.269-1.683c-0.799-0.848-1.523-1.76-2.248-2.67
	c-0.975-1.229-1.818-2.542-2.576-3.913c-0.276-0.5-0.543-1.007-0.743-1.544c-0.098-0.266-0.098-0.531-0.024-0.799
	c0.021-0.08,0.059-0.157,0.103-0.227c0.063-0.102,0.159-0.158,0.283-0.162c0.044,0,0.089-0.002,0.132-0.002
	c0.958,0,1.915,0.006,2.872-0.002c0.188-0.002,0.334,0.063,0.461,0.189c0.235,0.236,0.419,0.512,0.584,0.797
	c0.18,0.312,0.359,0.625,0.518,0.949c0.348,0.71,0.775,1.373,1.227,2.02c0.221,0.314,0.46,0.617,0.688,0.926
	c0.107,0.143,0.254,0.197,0.424,0.203c0.166,0.006,0.233-0.063,0.24-0.226c0.002-0.041,0.001-0.08,0.001-0.119
	c0-1.082,0-2.16-0.001-3.241c0-0.084,0-0.169-0.01-0.251c-0.018-0.193-0.12-0.307-0.311-0.344c-0.087-0.018-0.176-0.024-0.264-0.037
	c-0.27-0.035-0.381-0.148-0.409-0.418c-0.042-0.408,0.153-0.729,0.537-0.871c0.165-0.062,0.336-0.074,0.51-0.074
	c0.853,0.002,1.706,0,2.56,0c0.173,0,0.347-0.008,0.518,0.007c0.182,0.017,0.362,0.041,0.537,0.093
	c0.373,0.107,0.588,0.361,0.632,0.752c0.011,0.094,0.013,0.188,0.013,0.281c0.002,0.656,0.002,1.313,0.002,1.968
	c0,0.695,0,1.392,0.002,2.085c0,0.068,0.007,0.141,0.024,0.205c0.06,0.211,0.29,0.281,0.483,0.148
	c0.568-0.392,0.941-0.938,1.229-1.544c0.266-0.561,0.494-1.139,0.743-1.707c0.2-0.451,0.405-0.899,0.612-1.346
	c0.051-0.111,0.127-0.211,0.195-0.313c0.063-0.092,0.146-0.131,0.265-0.131c1.239,0.004,2.478,0.002,3.715,0.002
	c0.304,0,0.543,0.123,0.731,0.354c0.065,0.08,0.095,0.178,0.111,0.283c0.073,0.487-0.094,0.912-0.326,1.322
	c-0.223,0.387-0.483,0.744-0.771,1.084c-0.593,0.701-1.173,1.41-1.681,2.177c-0.131,0.195-0.242,0.406-0.362,0.609
	c-0.088,0.147-0.076,0.291,0.034,0.424c0.225,0.27,0.439,0.547,0.677,0.803c0.56,0.613,1.131,1.211,1.692,1.82
	c0.182,0.197,0.344,0.408,0.511,0.615c0.056,0.067,0.096,0.147,0.149,0.219C27.313,22.871,26.788,23.686,26.259,23.754z"/>
<path fill="#FFFFFF" d="M24.514,22.82c-0.106,0.014-0.215,0.029-0.322,0.031c-1.055,0.002-2.111-0.002-3.166,0.002
	c-0.147,0.002-0.271-0.054-0.381-0.142c-0.221-0.18-0.447-0.356-0.65-0.557c-0.528-0.523-1.043-1.064-1.568-1.593
	c-0.162-0.164-0.337-0.315-0.509-0.473c-0.09-0.084-0.201-0.104-0.315-0.102c-0.155,0.006-0.282,0.074-0.343,0.217
	c-0.057,0.131-0.104,0.271-0.117,0.408c-0.027,0.252-0.027,0.504-0.033,0.754c-0.005,0.281-0.014,0.563-0.092,0.836
	c-0.035,0.121-0.086,0.242-0.148,0.352c-0.109,0.188-0.279,0.291-0.5,0.293c-0.921,0.023-1.844,0.035-2.764-0.024
	c-0.17-0.011-0.328-0.066-0.479-0.142C12.267,22.26,11.512,21.7,10.857,21c-0.798-0.848-1.523-1.76-2.248-2.67
	c-0.975-1.229-1.818-2.543-2.576-3.913c-0.276-0.5-0.543-1.006-0.743-1.544c-0.1-0.263-0.1-0.529-0.025-0.797
	c0.021-0.08,0.059-0.157,0.103-0.227c0.063-0.101,0.159-0.158,0.283-0.161c0.044-0.001,0.089-0.002,0.132-0.002
	c0.958,0,1.915,0.005,2.872-0.003c0.189-0.001,0.334,0.063,0.461,0.19c0.235,0.236,0.419,0.511,0.584,0.797
	c0.18,0.311,0.359,0.625,0.518,0.948c0.348,0.71,0.775,1.374,1.227,2.02c0.22,0.315,0.459,0.617,0.688,0.925
	c0.107,0.144,0.254,0.198,0.424,0.203c0.166,0.006,0.233-0.063,0.24-0.227c0.001-0.04,0.001-0.079,0.001-0.119
	c0-1.081,0-2.16-0.001-3.241c0-0.084,0-0.168-0.009-0.251c-0.019-0.193-0.121-0.307-0.312-0.343
	c-0.086-0.017-0.175-0.024-0.263-0.037c-0.269-0.035-0.381-0.149-0.409-0.419c-0.042-0.408,0.154-0.728,0.537-0.871
	c0.165-0.062,0.336-0.075,0.51-0.074c0.853,0.001,1.707,0,2.559,0c0.173,0,0.347-0.009,0.518,0.006
	c0.181,0.017,0.362,0.041,0.538,0.093c0.373,0.107,0.587,0.362,0.631,0.752c0.011,0.094,0.013,0.188,0.013,0.281
	c0.002,0.656,0.002,1.312,0.002,1.968c0,0.695,0,1.391,0.001,2.085c0,0.068,0.007,0.14,0.025,0.205
	c0.06,0.211,0.29,0.28,0.483,0.148c0.568-0.393,0.941-0.938,1.229-1.545c0.266-0.561,0.494-1.14,0.743-1.708
	c0.2-0.451,0.405-0.899,0.612-1.346c0.051-0.11,0.127-0.211,0.195-0.313c0.063-0.091,0.146-0.131,0.265-0.131
	c1.239,0.004,2.478,0.003,3.715,0.002c0.304,0,0.543,0.123,0.731,0.354c0.065,0.081,0.095,0.178,0.111,0.283
	c0.073,0.488-0.094,0.913-0.326,1.323c-0.223,0.387-0.483,0.744-0.771,1.083c-0.592,0.701-1.173,1.411-1.681,2.178
	c-0.131,0.196-0.242,0.406-0.362,0.61c-0.088,0.148-0.076,0.291,0.034,0.424c0.225,0.271,0.439,0.547,0.677,0.804
	c0.56,0.612,1.131,1.211,1.692,1.819c0.182,0.197,0.344,0.408,0.511,0.615c0.056,0.068,0.096,0.148,0.149,0.219
	C25.566,21.938,25.043,22.752,24.514,22.82z"/>
</svg>
