<svg version="1.1" id="Слой_1" xmlns="http://www.w3.org/2000/svg" xmlns:xlink="http://www.w3.org/1999/xlink" x="0px" y="0px"
	 width="34px" height="34px" viewBox="0 0 34 34" enable-background="new 0 0 34 34" xml:space="preserve">
<circle fill-rule="evenodd" clip-rule="evenodd" fill="#5C7BC2" cx="17" cy="17" r="17"/>
<g id="Symbol_shadow" opacity="0.149">
	<g>
		<path fill-rule="evenodd" clip-rule="evenodd" d="M19.279,12.328h1.928V9.218h-2.62c-3.711,0-3.624,2.989-3.624,3.436
			s0,2.441,0,2.441h-1.722v2.987h1.722v8.193H18.5v-8.193h2.373c0,0,0.223-1.433,0.329-2.999c-0.309,0-2.688,0-2.688,0
			s0-1.737,0-2.041C18.514,12.738,18.899,12.328,19.279,12.328z"/>
	</g>
</g>
<g id="Symbol">
	<g>
		<path fill-rule="evenodd" clip-rule="evenodd" fill="#FFFFFF" d="M18.143,11.19h1.927V8.081h-2.62
			c-3.712,0-3.625,2.989-3.625,3.436c0,0.446,0,2.441,0,2.441h-1.722v2.986h1.722v8.193h3.538v-8.193h2.372
			c0,0,0.225-1.432,0.331-2.997c-0.31,0-2.689,0-2.689,0s0-1.738,0-2.042C17.376,11.601,17.761,11.19,18.143,11.19z"/>
	</g>
</g>
</svg>
