<svg version="1.1" id="Слой_1" xmlns="http://www.w3.org/2000/svg" xmlns:xlink="http://www.w3.org/1999/xlink" x="0px" y="0px"
	 width="34px" height="34px" viewBox="0 0 34 34" enable-background="new 0 0 34 34" xml:space="preserve">
<circle fill="#E6162D" cx="17" cy="17" r="17"/>
<path fill="#C1162D" d="M26.532,11.146c-1.333-1.479-3.299-2.041-5.113-1.655h-0.001c-0.419,0.09-0.688,0.503-0.598,0.923
	c0.09,0.419,0.502,0.688,0.923,0.598c1.291-0.275,2.688,0.127,3.636,1.176c0.946,1.05,1.204,2.482,0.798,3.736l0.001,0.002
	c-0.132,0.408,0.091,0.846,0.5,0.979c0.408,0.131,0.846-0.092,0.979-0.5c0,0,0-0.002,0-0.004
	C28.226,14.635,27.866,12.623,26.532,11.146"/>
<path fill="#C1162D" d="M24.485,12.994c-0.649-0.72-1.607-0.992-2.491-0.805c-0.361,0.076-0.592,0.432-0.514,0.794
	c0.077,0.36,0.433,0.592,0.793,0.513l0,0c0.432-0.091,0.901,0.043,1.219,0.395s0.402,0.83,0.266,1.252h0.001
	c-0.113,0.352,0.079,0.729,0.431,0.842c0.351,0.113,0.729-0.078,0.842-0.432C25.309,14.693,25.136,13.713,24.485,12.994"/>
<path fill="#C1162D" d="M16.332,20.617c-0.117,0.201-0.377,0.297-0.58,0.213c-0.2-0.084-0.264-0.307-0.149-0.504
	c0.117-0.197,0.367-0.293,0.566-0.215C16.372,20.188,16.445,20.414,16.332,20.617 M15.262,21.99
	c-0.324,0.518-1.021,0.744-1.545,0.506c-0.517-0.234-0.668-0.838-0.344-1.344c0.32-0.502,0.994-0.727,1.514-0.508
	C15.413,20.867,15.581,21.467,15.262,21.99 M16.483,18.32c-1.599-0.416-3.406,0.381-4.101,1.791
	c-0.707,1.436-0.023,3.031,1.592,3.551c1.673,0.541,3.646-0.285,4.33-1.838C18.981,20.311,18.138,18.748,16.483,18.32"/>
<path fill="#C1162D" d="M16.146,24.611c-3.359,0.33-6.259-1.188-6.478-3.393c-0.218-2.205,2.329-4.264,5.688-4.596
	c3.36-0.332,6.261,1.188,6.479,3.393C22.053,22.221,19.508,24.277,16.146,24.611 M22.866,17.289
	c-0.285-0.086-0.481-0.145-0.331-0.52c0.324-0.816,0.357-1.52,0.005-2.021c-0.658-0.94-2.461-0.891-4.526-0.025
	c0,0-0.648,0.285-0.483-0.23c0.318-1.021,0.271-1.877-0.225-2.371c-1.12-1.122-4.102,0.042-6.658,2.598
	c-1.914,1.914-3.026,3.943-3.026,5.699c0,3.355,4.304,5.396,8.514,5.396c5.52,0,9.191-3.207,9.191-5.754
	C25.327,18.523,24.031,17.648,22.866,17.289"/>
<path fill="#FFFFFF" d="M15.377,23.451c-3.359,0.33-6.26-1.188-6.478-3.393c-0.218-2.205,2.33-4.263,5.688-4.596
	c3.36-0.332,6.261,1.187,6.479,3.393C21.283,21.061,18.738,23.117,15.377,23.451 M22.097,16.128
	c-0.285-0.086-0.481-0.144-0.331-0.519c0.324-0.816,0.357-1.52,0.005-2.021c-0.658-0.94-2.461-0.89-4.526-0.025
	c0-0.001-0.649,0.284-0.484-0.231c0.318-1.022,0.271-1.877-0.225-2.372c-1.121-1.122-4.102,0.042-6.658,2.598
	c-1.914,1.915-3.026,3.943-3.026,5.699c0,3.355,4.304,5.396,8.514,5.396c5.52,0,9.191-3.207,9.191-5.754
	C24.558,17.363,23.262,16.489,22.097,16.128"/>
<path fill="#FFFFFF" d="M25.763,9.987c-1.333-1.479-3.299-2.041-5.113-1.656h-0.001c-0.419,0.09-0.688,0.503-0.598,0.922
	c0.09,0.419,0.502,0.688,0.923,0.598c1.291-0.274,2.688,0.127,3.636,1.176c0.946,1.05,1.204,2.482,0.798,3.737l0.001,0.001
	c-0.132,0.408,0.091,0.846,0.5,0.979c0.408,0.132,0.846-0.092,0.979-0.5c0,0,0-0.002,0-0.003
	C27.456,13.475,27.097,11.462,25.763,9.987"/>
<path fill="#FFFFFF" d="M23.716,11.833c-0.649-0.719-1.607-0.992-2.491-0.805c-0.361,0.077-0.592,0.433-0.514,0.794
	c0.077,0.36,0.433,0.592,0.793,0.513l0,0c0.432-0.091,0.901,0.042,1.219,0.394c0.317,0.352,0.402,0.831,0.266,1.252h0.001
	c-0.113,0.351,0.079,0.728,0.431,0.842c0.351,0.113,0.729-0.079,0.842-0.432C24.539,13.533,24.366,12.553,23.716,11.833"/>
<path fill="#FFFFFF" d="M15.563,19.457c-0.118,0.201-0.377,0.297-0.581,0.213c-0.2-0.084-0.263-0.307-0.149-0.504
	c0.117-0.197,0.367-0.293,0.566-0.215C15.603,19.027,15.675,19.254,15.563,19.457 M14.492,20.83
	c-0.324,0.518-1.021,0.744-1.545,0.506c-0.517-0.234-0.668-0.838-0.344-1.344c0.321-0.502,0.994-0.727,1.514-0.508
	C14.644,19.707,14.812,20.307,14.492,20.83 M15.714,17.161c-1.599-0.417-3.406,0.38-4.101,1.791
	c-0.707,1.436-0.023,3.031,1.592,3.551c1.673,0.541,3.646-0.285,4.331-1.838C18.212,19.15,17.368,17.588,15.714,17.161"/>
</svg>
