<?xml version="1.0" encoding="utf-8"?>
<!-- Generator: Adobe Illustrator 16.0.2, SVG Export Plug-In . SVG Version: 6.00 Build 0)  -->
<!DOCTYPE svg PUBLIC "-//W3C//DTD SVG 1.1//EN" "http://www.w3.org/Graphics/SVG/1.1/DTD/svg11.dtd">
<svg version="1.1" id="Слой_1" xmlns="http://www.w3.org/2000/svg" xmlns:xlink="http://www.w3.org/1999/xlink" x="0px" y="0px"
	 width="37px" height="30.994px" viewBox="0 3.006 37 30.994" enable-background="new 0 3.006 37 30.994" xml:space="preserve">
<g id="Symbol_2_">
	<g>
		<path fill="#EF5C4A" d="M20.201,3.012c0,0-7.262,0-9.682,0c-4.341,0-8.426,3.26-8.426,7.035c0,3.858,2.959,6.973,7.375,6.973
			c0.307,0,0.605-0.006,0.897-0.027c-0.287,0.545-0.492,1.155-0.492,1.793c0,1.071,0.582,1.94,1.318,2.649
			c-0.556,0-1.093,0.019-1.679,0.019C4.138,21.451,0,24.846,0,28.365C0,31.831,4.536,34,9.912,34c6.129,0,9.516-3.447,9.516-6.914
			c0-2.779-0.828-4.443-3.387-6.236c-0.875-0.613-2.548-2.106-2.548-2.983c0-1.028,0.296-1.535,1.858-2.745
			c1.601-1.24,2.733-2.983,2.733-5.012c0-2.414-1.084-4.767-3.12-5.543h3.069L20.201,3.012z M16.819,26.488
			c0.076,0.32,0.118,0.65,0.118,0.988c0,2.801-1.82,4.989-7.045,4.989c-3.716,0-6.399-2.332-6.399-5.133
			c0-2.745,3.328-5.03,7.045-4.99c0.866,0.011,1.675,0.146,2.408,0.384C14.964,24.117,16.411,24.902,16.819,26.488z M10.869,16.041
			c-2.494-0.074-4.865-2.766-5.295-6.013C5.144,6.781,6.815,4.297,9.31,4.37c2.493,0.074,4.865,2.68,5.296,5.927
			C15.035,13.543,13.362,16.115,10.869,16.041z M31,9.006v-6h-2v6h-6v0.216h-0.096v1.552H23v0.232h6v6h2v-6h6v-2H31z"/>
	</g>
</g>
</svg>
