<?xml version="1.0" encoding="utf-8"?>
<!-- Generator: Adobe Illustrator 16.0.2, SVG Export Plug-In . SVG Version: 6.00 Build 0)  -->
<!DOCTYPE svg PUBLIC "-//W3C//DTD SVG 1.1//EN" "http://www.w3.org/Graphics/SVG/1.1/DTD/svg11.dtd">
<svg version="1.1" id="Слой_1" xmlns="http://www.w3.org/2000/svg" xmlns:xlink="http://www.w3.org/1999/xlink" x="0px" y="0px"
	 width="30.008px" height="34px" viewBox="9.992 0 30.008 34" enable-background="new 9.992 0 30.008 34" xml:space="preserve">
<path fill="#0987C4" d="M10.485,11.991h6.221V32h-6.221V11.991z M13.597,2.042c1.989,0,3.604,1.616,3.604,3.605
	c0,1.991-1.615,3.607-3.604,3.607c-1.994,0-3.605-1.617-3.605-3.607C9.992,3.658,11.603,2.042,13.597,2.042"/>
<path fill="#0987C4" d="M20.607,11.991h5.967v2.732h0.086c0.83-1.573,2.857-3.232,5.884-3.232c6.293,0,7.456,4.144,7.456,9.532V32
	h-6.212v-9.729c0-2.322-0.045-5.309-3.231-5.309c-3.236,0-3.73,2.529-3.73,5.139V32h-6.217V11.991H20.607z"/>
</svg>
