<?xml version="1.0" encoding="utf-8"?>
<!-- Generator: Adobe Illustrator 16.0.2, SVG Export Plug-In . SVG Version: 6.00 Build 0)  -->
<!DOCTYPE svg PUBLIC "-//W3C//DTD SVG 1.1//EN" "http://www.w3.org/Graphics/SVG/1.1/DTD/svg11.dtd">
<svg version="1.1" id="Слой_1" xmlns="http://www.w3.org/2000/svg" xmlns:xlink="http://www.w3.org/1999/xlink" x="0px" y="0px"
	 width="40px" height="43px" viewBox="0 0 40 43" enable-background="new 0 0 40 43" xml:space="preserve">
<g id="g2225" transform="translate(1.55968, -5.45889)">
	<path id="path2227" fill="#2319DC" d="M5.329,27.996c4.334-0.932,3.743-6.118,3.616-7.25c-0.214-1.748-2.268-4.8-5.056-4.557
		c-3.509,0.313-4.022,5.382-4.022,5.382C-0.608,23.918,1.002,28.929,5.329,27.996 M13.379,19.302c2.393,0,4.327-2.757,4.327-6.164
		s-1.934-6.16-4.327-6.16c-2.394,0-4.333,2.753-4.333,6.16S10.984,19.302,13.379,19.302 M23.694,19.708
		c3.203,0.419,5.256-2.997,5.666-5.586c0.419-2.586-1.65-5.593-3.913-6.109c-2.271-0.522-5.108,3.115-5.364,5.488
		C19.771,16.403,20.495,19.298,23.694,19.708 M36.379,24.058c0-1.238-1.025-4.971-4.844-4.971c-3.825,0-4.331,3.522-4.331,6.011
		c0,2.375,0.199,5.689,4.949,5.586C36.899,30.578,36.379,25.304,36.379,24.058 M31.535,34.928c0,0-4.95-3.829-7.841-7.971
		c-3.924-6.105-9.491-3.619-11.352-0.518c-1.856,3.108-4.741,5.071-5.154,5.593c-0.417,0.511-5.98,3.518-4.746,9.007
		c1.237,5.484,5.576,5.381,5.576,5.381s3.197,0.313,6.905-0.517c3.716-0.827,6.913,0.203,6.913,0.203s8.668,2.906,11.037-2.687
		C35.245,37.83,31.535,34.928,31.535,34.928"/>
	<path id="path2229" fill="#FFFFFF" d="M14.148,29.589v3.684h-3.002c0,0-3.001,0.249-4.051,3.65
		c-0.366,2.271,0.323,3.608,0.443,3.895c0.122,0.284,1.091,1.946,3.526,2.434h5.634V29.629L14.148,29.589z M14.103,41.015h-2.27
		c0,0-1.582-0.082-2.063-1.903c-0.249-0.806,0.037-1.737,0.162-2.104c0.114-0.367,0.646-1.215,1.74-1.541h2.43L14.103,41.015
		L14.103,41.015z"/>
	<path id="path2231" fill="#FFFFFF" d="M18.079,33.603v7.173c0,0,0.118,1.784,2.635,2.436h6.482v-9.609h-2.798v7.213h-2.67
		c0,0-0.854-0.124-1.014-0.809v-6.445L18.079,33.603z"/>
</g>
</svg>
