<?xml version="1.0" encoding="utf-8"?>
<!-- Generator: Adobe Illustrator 16.0.2, SVG Export Plug-In . SVG Version: 6.00 Build 0)  -->
<!DOCTYPE svg PUBLIC "-//W3C//DTD SVG 1.1//EN" "http://www.w3.org/Graphics/SVG/1.1/DTD/svg11.dtd">
<svg version="1.1" id="Слой_1" xmlns="http://www.w3.org/2000/svg" xmlns:xlink="http://www.w3.org/1999/xlink" x="0px" y="0px"
	 width="46px" height="38px" viewBox="0 0 46 38" enable-background="new 0 0 46 38" xml:space="preserve">
<path fill="#E6162D" d="M19.366,34.15c-7.119,0.699-13.267-2.517-13.73-7.19c-0.461-4.674,4.939-9.037,12.056-9.742
	c7.123-0.704,13.269,2.516,13.733,7.192C31.884,29.084,26.49,33.442,19.366,34.15 M33.61,18.629c-0.604-0.181-1.021-0.305-0.703-1.1
	c0.686-1.73,0.757-3.222,0.011-4.283c-1.395-1.993-5.216-1.888-9.593-0.053c0-0.002-1.375,0.603-1.027-0.489
	c0.675-2.166,0.576-3.978-0.476-5.027c-2.376-2.378-8.694,0.089-14.112,5.506c-4.056,4.059-6.413,8.356-6.413,12.078
	c0,7.109,9.123,11.436,18.045,11.436c11.698,0,19.478-6.797,19.478-12.195C38.826,21.248,36.078,19.395,33.61,18.629"/>
<path fill="#FF9933" d="M41.38,5.613c-2.828-3.134-6.993-4.325-10.838-3.509h-0.004c-0.886,0.19-1.457,1.065-1.267,1.953
	c0.19,0.888,1.063,1.458,1.958,1.268c2.736-0.58,5.696,0.269,7.704,2.492c2.008,2.226,2.555,5.26,1.693,7.921l0.001,0.002
	c-0.279,0.864,0.193,1.793,1.06,2.075c0.863,0.28,1.793-0.196,2.077-1.06c0,0,0-0.005,0-0.007
	C44.967,13.007,44.206,8.74,41.38,5.613"/>
<path fill="#FF9933" d="M37.04,9.526c-1.376-1.524-3.405-2.103-5.28-1.707c-0.764,0.164-1.255,0.918-1.089,1.683
	c0.164,0.764,0.919,1.255,1.681,1.087l0,0c0.914-0.193,1.907,0.089,2.583,0.835c0.674,0.746,0.852,1.761,0.565,2.653h0.002
	c-0.24,0.744,0.166,1.543,0.912,1.785c0.744,0.239,1.547-0.167,1.787-0.916C38.784,13.13,38.418,11.053,37.04,9.526"/>
<path d="M19.76,25.686c-0.25,0.427-0.799,0.628-1.232,0.451c-0.423-0.179-0.557-0.65-0.315-1.068c0.249-0.418,0.778-0.621,1.2-0.455
	C19.845,24.774,19.997,25.254,19.76,25.686 M17.49,28.595c-0.687,1.097-2.164,1.577-3.275,1.073
	c-1.095-0.497-1.415-1.775-0.729-2.849c0.68-1.063,2.107-1.54,3.21-1.076C17.812,26.215,18.168,27.485,17.49,28.595 M20.08,20.819
	c-3.388-0.884-7.218,0.805-8.692,3.796c-1.497,3.045-0.048,6.422,3.375,7.525c3.545,1.146,7.727-0.605,9.179-3.895
	C25.374,25.035,23.586,21.724,20.08,20.819"/>
</svg>
