<?xml version="1.0" encoding="utf-8"?>
<!-- Generator: Adobe Illustrator 16.0.2, SVG Export Plug-In . SVG Version: 6.00 Build 0)  -->
<!DOCTYPE svg PUBLIC "-//W3C//DTD SVG 1.1//EN" "http://www.w3.org/Graphics/SVG/1.1/DTD/svg11.dtd">
<svg version="1.1" id="Слой_1" xmlns="http://www.w3.org/2000/svg" xmlns:xlink="http://www.w3.org/1999/xlink" x="0px" y="0px"
	 width="46px" height="26px" viewBox="0 0 46 26" enable-background="new 0 0 46 26" xml:space="preserve">
<path fill-rule="evenodd" clip-rule="evenodd" fill="#4D75A3" d="M21.995,25.791h2.691c0,0,0.814-0.091,1.229-0.54
	c0.382-0.414,0.369-1.19,0.369-1.19s-0.052-3.635,1.624-4.17c1.654-0.526,3.776,3.513,6.026,5.066
	c1.701,1.177,2.993,0.918,2.993,0.918l6.016-0.084c0,0,3.146-0.196,1.655-2.684c-0.123-0.204-0.87-1.843-4.474-5.206
	c-3.771-3.523-3.267-2.952,1.276-9.045c2.768-3.71,3.874-5.974,3.528-6.944c-0.329-0.924-2.365-0.679-2.365-0.679l-6.772,0.041
	c0,0-0.502-0.068-0.875,0.156c-0.363,0.219-0.597,0.73-0.597,0.73s-1.072,2.872-2.502,5.313c-3.016,5.151-4.222,5.424-4.715,5.104
	c-1.147-0.747-0.86-2.995-0.86-4.593c0-4.993,0.752-7.075-1.466-7.613c-0.736-0.179-1.278-0.297-3.162-0.316
	c-2.417-0.025-4.461,0.007-5.62,0.578c-0.771,0.379-1.365,1.225-1.003,1.274c0.448,0.06,1.461,0.275,1.999,1.011
	C17.687,3.867,17.663,6,17.663,6s0.399,5.877-0.932,6.607c-0.913,0.501-2.165-0.521-4.854-5.195C10.5,5.018,9.459,2.372,9.459,2.372
	s-0.201-0.495-0.559-0.76C8.467,1.291,7.86,1.19,7.86,1.19L1.424,1.233c0,0-0.965,0.026-1.32,0.449
	c-0.316,0.375-0.025,1.153-0.025,1.153s5.039,11.859,10.744,17.836C16.055,26.151,21.995,25.791,21.995,25.791L21.995,25.791z"/>
</svg>
