<?xml version="1.0" encoding="utf-8"?>
<!-- Generator: Adobe Illustrator 16.0.2, SVG Export Plug-In . SVG Version: 6.00 Build 0)  -->
<!DOCTYPE svg PUBLIC "-//W3C//DTD SVG 1.1//EN" "http://www.w3.org/Graphics/SVG/1.1/DTD/svg11.dtd">
<svg version="1.1" id="Слой_1" xmlns="http://www.w3.org/2000/svg" xmlns:xlink="http://www.w3.org/1999/xlink" x="0px" y="0px"
	 width="40px" height="34px" viewBox="0 0 40 34" enable-background="new 0 0 40 34" xml:space="preserve">
<g id="Symbol_1_">
	<g>
		<path fill-rule="evenodd" clip-rule="evenodd" fill="#2DAAE1" d="M36,7.079c-1.178,0.522-2.442,0.875-3.771,1.033
			c1.355-0.812,2.396-2.098,2.887-3.631c-1.269,0.753-2.674,1.299-4.17,1.593c-1.197-1.275-2.903-2.072-4.792-2.072
			c-3.625,0-6.564,2.938-6.564,6.563c0,0.515,0.058,1.016,0.17,1.496C14.304,11.786,9.466,9.174,6.228,5.203
			c-0.565,0.97-0.889,2.097-0.889,3.3c0,2.276,1.159,4.285,2.921,5.462c-1.076-0.034-2.089-0.329-2.974-0.82
			c-0.001,0.027-0.001,0.055-0.001,0.082c0,3.18,2.263,5.832,5.267,6.436c-0.551,0.149-1.131,0.229-1.729,0.229
			c-0.424,0-0.835-0.041-1.235-0.117c0.835,2.606,3.26,4.505,6.133,4.558c-2.247,1.76-5.078,2.809-8.153,2.809
			c-0.53,0-1.053-0.031-1.566-0.092c2.905,1.862,6.356,2.949,10.063,2.949c12.076,0,18.68-10,18.68-18.673
			c0-0.284-0.007-0.567-0.02-0.849C34.007,9.551,35.12,8.396,36,7.079z"/>
	</g>
</g>
</svg>
