<svg xmlns="http://www.w3.org/2000/svg" width="32.79" height="32.79" viewBox="0 0 32.79 32.79"><path d="M32.79,14.64c-0.47.06-.79-0.46-1.44-0.39a8.2,8.2,0,0,1-1.6-.53,2.2,2.2,0,0,1-.46-0.21,1,1,0,0,1,.1.47c0,0.78.84,0.39,1.06,0.07a0.92,0.92,0,0,1,.33,1.37,6.77,6.77,0,0,0-1.48,1c-0.86.51-1.59-.92-1.75-1.72-0.13-.46-1.56-1.59-0.83-2.15s-0.73-.7-0.93-0.68a0.12,0.12,0,0,1-.19.08l-0.24,0c0-.15-0.75-0.62-0.44-0.84a0.54,0.54,0,0,0-.65.06l0.11,0.17,0.21,0.21-0.07.07-0.17-.08,0.11,0.13H24.4l0,0.12a0.57,0.57,0,0,1-.35-0.11L24,11.49a1.72,1.72,0,0,1-.37-0.83l-0.28-.21c-0.43-.26-0.81-0.8-1-0.37a1.76,1.76,0,0,1,.37.32l0.08,0.14,0.2,0.07a1.77,1.77,0,0,1,.59.5L23.27,11a2,2,0,0,1-.32.51l-0.08.21a3.48,3.48,0,0,1-.48-0.23c-0.06-.07.84-0.11,0.67-0.29-0.32-.34-0.83-0.47-1.11-0.82-0.4-.51-0.91-0.15-1.4-0.05l-0.07.26a2,2,0,0,0-.94.94,9.22,9.22,0,0,1-1.22-.11A0.66,0.66,0,0,1,18,11.36a3.59,3.59,0,0,1,.06-1.16c-0.17-.21.29-0.26,0.29-0.26l1.07,0.18c0.79-.44-0.36-0.73-0.37-1S19.23,9,19.4,9A0.87,0.87,0,0,1,20,8.86c0.08-.07.1-0.22,0.17-0.28h0a8.37,8.37,0,0,1-1.24,0,0.53,0.53,0,0,1,.36-0.28c-0.14,0-.35-0.05-0.33-0.14a2.34,2.34,0,0,0,.42-0.36,0.29,0.29,0,0,0-.19-0.27c-0.17,0-.32.05-0.11-0.1H18.91c0.17-.06.07-0.11,0-0.17C18.7,7.18,18.82,7,19,6.83l0.35,0.05a0.36,0.36,0,0,0-.21.2,1.53,1.53,0,0,1,.44,0,0.52,0.52,0,0,1-.36.29c0.44-.07.23,0.21,0.39,0.29a2.2,2.2,0,0,0,.54.41,0.43,0.43,0,0,0-.05.45h0a0.07,0.07,0,0,0,.06,0,5.33,5.33,0,0,0,1.27-.74c-0.19-.17-0.27-0.35,0-0.46a0.39,0.39,0,0,1,.28-0.14,0.56,0.56,0,0,0,.56.77l0.15,0L23,7.87,23.16,8c0.43-.4.15-0.06,0.22-0.62,0-.24.37,0.05,0.42,0.07s0-.5.6-0.49l0.07-.05,0.14-.09-0.14,0H24.33a0.84,0.84,0,0,1-.94-0.09c0-.27-0.22-0.37,0-0.6a1,1,0,0,0,.37-0.37c0.14-.21-0.69.28-0.56,0.16-0.81.32-.1,1.25-0.51,1.25,0.09,1.29-.64.08-0.87,0A0.94,0.94,0,0,0,21,7l-0.13-.19L21,6.57l-0.21.08,0-.23H21l-0.26,0a2.72,2.72,0,0,1,.29-0.45,0.67,0.67,0,0,0,.78-0.45l0-.15a0.75,0.75,0,0,1,.58-0.4A0.37,0.37,0,0,1,23,4.63a2.32,2.32,0,0,0,.6-0.18l0,0.19,0.13-.13V4.66l0.1-.13,0.12-.08,0,0.16,0-.07a1.78,1.78,0,0,1,.32.14c-0.09,0,0,.07,0,0.13,0.37,0,1.64.13,1.69,0.63s-1,0-1.11,0a0.24,0.24,0,0,0,.27.18,2,2,0,0,0,.1.34l0.47,0.17a0.86,0.86,0,0,1-.23-0.29,1.44,1.44,0,0,1,.51.11,2.6,2.6,0,0,1,.43-0.32,1.34,1.34,0,0,1-.15-0.52,0.37,0.37,0,0,1,.33,0l0,0,0,0c-0.14-.07.31,0.67,0.31,0.31l0-.13a0.49,0.49,0,0,1,.38-0.24c0.19-.12.34-0.15,0.23,0.11h0.21l0.07-.09,0.28,0.05A0.38,0.38,0,0,1,28.19,5h0V5A16.4,16.4,0,0,0,1.74,9.36h0a0.91,0.91,0,0,1,.49,0l-0.06.09a1.44,1.44,0,0,1,.57.1c-0.31-.11.52-0.34,0.62-0.36S4.29,8.81,4.1,9c0.27-.28.7-1.09,1.06-0.75C5.31,8.4,4.95,8.41,5,8.5s0.68-1.08.91-.59S5,8.87,4.65,9a0.87,0.87,0,0,0,.33,0c0,0.09-1.35,1.42-1.4,1.67,0.2-.17.18,0.2,0.13,0.3a0.83,0.83,0,0,1,.8,0L4.86,11s-0.18.77,0,.71,0.2-.47.23-0.7c-0.26.16,1.51-3,1.67-1.72a0.87,0.87,0,0,0-.21.32A0.69,0.69,0,0,0,7.34,9c0,0.24.18,1.22,0.61,0.94a2.34,2.34,0,0,0-.43.36c0.41,0.26,1-.66.07,0.5-0.44.56-1.22,0.65-1.7,1.32a5.52,5.52,0,0,1,1-.67,1,1,0,0,0-.17.46c0,0.31.61-.33,0.56-0.31,0.2-.08-0.69,1.14-0.83.93a0.27,0.27,0,0,1,.07-0.32,3.14,3.14,0,0,0-.68.93,2,2,0,0,0-.61.65H5.2a0.28,0.28,0,0,1-.09.29c0,0.1-.22-0.52-0.08-0.16,0,0.16,0,.28,0,0.28l0,0.08L5,14.34l0.09,0,0,0.09c-0.36.35-1.06,1.61-.61,1.9C4,16,4.07,15.29,3.33,15.83a1.12,1.12,0,0,0-1,1.18c0.22,1.19.35,0.46,0.85,0.73-0.19-.11.63-0.93,0.64-0.64a3.39,3.39,0,0,1-.15.91,2.34,2.34,0,0,1,.64-0.14,0.58,0.58,0,0,1,.13.19,2.39,2.39,0,0,0,0,.53c0,0.07-.51-0.19-0.27,0h0s0,0,0,0c-0.41-.59-1.69-0.21-2.29-0.42-0.82,0-1.12-1.32-1.79-1.73h0A16.4,16.4,0,1,0,32.79,14.64Zm-11-12c0.47,0,.93-0.07,1.4-0.05a0.89,0.89,0,0,1-1,.17,4,4,0,0,0,.83.35,2.56,2.56,0,0,1-.43,0s-1.4,0-.82-0.09c0-.24.06,0-0.27,0h0C20.9,3,21.38,2.68,21.77,2.68Zm-21.23,15-0.27-.12a0.36,0.36,0,0,0-.14-0.3c0-.11,0-0.23,0-0.34,0,0.07.42,0.64,0.43,0.64h0C1,17.69.54,17.91,0.54,17.69Zm21-7.26c0-.16.42,0.25,0.08,0.23h0C21.56,10.65,21.59,10.43,21.59,10.43Zm0,0.33,0.08,0a0.12,0.12,0,0,1,.17.08,1.33,1.33,0,0,1,0,.31H21.73l0,0.07h-0.1l0-.3c0,0.1,0,0,0,0l-0.06-.11ZM18.23,7.94C18.15,8,18,7.77,18.11,7.65l0.31,0.06c0.12-.07.22-0.28,0.5-0.06-0.19-.14-0.17.22-0.14,0.22h0c-0.13.14-.24,0.54-0.64,0.39h0C17.79,8.14,18.09,8,18.23,7.94ZM6.26,6c0.44-.36-0.67.3-0.67,0.09l0-.16a0.74,0.74,0,0,1,.56-0.45H6.41l0-.1,0-.14c0-.59,2.78-1.24,3.25-1.43l0.07,0-0.07,0-0.17.11a8.22,8.22,0,0,0-2,1.34c0,0.11,0,.12.08,0.1l0.13-.08a0.48,0.48,0,0,1-.13.08l-0.27.16,0,0.09C7.1,5.67,6.88,6,6.84,6l-0.43.16a2.27,2.27,0,0,1-.67.34c-0.65.34,0.69-.18,0.92-0.28a3.72,3.72,0,0,1-1.37.59h0a0.31,0.31,0,0,0,0-.22l-0.23.09A4.17,4.17,0,0,1,6.26,6ZM5.14,7a1.85,1.85,0,0,1-.32.14L4.92,7C5.07,6.83,5.14,6.86,5.14,7ZM4.65,6.4l0.12,0,0.13,0,0,0.17-0.12,0,0-.06L4.6,6.59l0-.07H4.44ZM4.55,7V6.91l0.19,0L4.71,7a0.17,0.17,0,0,1-.18.22h0L4.37,7.3,4.31,7.17C4.46,7,4.49,7,4.55,7Zm-1.75.47A1.52,1.52,0,0,0,3.2,7.32c0.08,0.17.15,0.06,0,.18H3.5l-0.13.09a2.67,2.67,0,0,0,.44-0.24L4,7.29l-0.23.29A2.87,2.87,0,0,1,3,7.94c0.11,0,.29-0.31-0.12-0.09h0C2.43,8.06,3,7.49,2.66,7.72Zm-0.39.64C2.55,8,2.63,8,2.71,8.19L2.62,8.3a3.06,3.06,0,0,0-.46.27ZM2.27,9.25l0-.11s0,0,0,0a0.21,0.21,0,0,1-.27,0,0.77,0.77,0,0,1,.61-0.33l-0.52.06s1-1.07,1.18-.54h0a0.22,0.22,0,0,1,.33-0.26l0-.2,0.24-.09a0.11,0.11,0,0,1-.05.08c-0.33.17,0,.83,0.11,0.66C3.45,8.94,2.82,8.87,2.27,9.25ZM4.24,8C4.16,8.15,4.09,8.19,4,8L3.89,8a0.16,0.16,0,0,1,.24-0.15V7.68l0.08-.11c0.41-.31.35,0,0.3,0l-0.1,0C4.59,7.92,4.24,7.9,4.24,8Zm0.63-.43-0.14.2V7.95l0,0.14-0.17.07-0.1.17-0.14.05L4.26,8.25a4.06,4.06,0,0,1,.6-1,1.71,1.71,0,0,1,.36,0A2.67,2.67,0,0,1,4.87,7.58ZM7.34,7.77h0a0.42,0.42,0,0,0-.12.16c0,0.54-.14.29-0.22,0.53a1.12,1.12,0,0,1,.17.25C7,9,5.9,8.79,6,8.57A1.76,1.76,0,0,0,6.5,8.25c0,0.11.29-1.34-.24-0.8l-0.09.14a3.54,3.54,0,0,1-.81.27L5.2,7.92l0-.09,0.2-.15-0.2.07,0-.17,0.37-.45c0,0.16.34,0,.05,0.29,0.34,0.31,0-.18.17-0.34l0.13-.17-0.07.2L5.9,7l0.4-.2,0,0.1L6.24,7l-0.08.12a1.86,1.86,0,0,1,.43-0.22c-0.28-.41.16-0.21,0.52-0.07L7.17,7a0.33,0.33,0,0,1,.38.19,0.46,0.46,0,0,0-.26.18,1.45,1.45,0,0,1,.83.1C8,7.91,7.56,7.68,7.34,7.77Zm0.57,2.79,0,0,0.2-.09h0c0.17-.08-0.14.22-0.2,0.29a0.62,0.62,0,0,1,.18,0L8,10.81a1.16,1.16,0,0,1,.34-0.09l0,0.13,0,0.12,0,0a0.21,0.21,0,0,1-.16.21l-0.13,0,0-.09c-0.18,0-.43.33-0.66,0.33A1.66,1.66,0,0,1,7.91,10.55ZM4.07,16.9a1,1,0,0,1,1.39-.07C5.29,17,5.07,17,5,16.85a0.13,0.13,0,0,1-.17-0.12A1.77,1.77,0,0,0,4.07,16.9ZM14,23.25l0,0.25a3,3,0,0,0-1.28.9c-0.19.28,0.72,0.95,0.05,1a3,3,0,0,1,0,.84c-0.12.34-.55,0.13-0.82,0.1,0.41,0.08.76,0.94-.19,1.11,0.45-.07.17,0.92-0.16,0.61,0.83,0.78.44,2.76,2.27,2.76l-0.14.12a0.77,0.77,0,0,0-.37.14h0a1.18,1.18,0,0,1-1,0,0.18,0.18,0,0,1-.19-0.1,0.59,0.59,0,0,0-.26-0.13,2.36,2.36,0,0,1-.3-0.3s0,0,0,0h0a2.35,2.35,0,0,0-.49-0.46,1.06,1.06,0,0,0,.07-0.44l-0.34.05c-0.06-.12-0.08-0.25,0-0.3l0-.13a1.49,1.49,0,0,0-.4-0.78,0.6,0.6,0,0,0,0,.21,0.67,0.67,0,0,1,.11.29,0.42,0.42,0,0,1-.11-0.29c-0.24-.44-0.76-1.23-0.78-1.27-0.3-.6-0.53-1.32-0.78-1.95a8.26,8.26,0,0,1-.86-2.12,8.26,8.26,0,0,0-1.37-.75c-0.25-.27-1.47-1.22-1.24-1.67,0-.06-0.21-2.7-0.54-2H5a0.94,0.94,0,0,1-.83-0.3,0.43,0.43,0,0,1,.37,0,2.7,2.7,0,0,1,.85.24,0.42,0.42,0,0,1,.2-0.34c-0.06-.21,0-0.37.15-0.28A0.58,0.58,0,0,1,6.11,18c0,0.06-.17.41,0,0.47a1.18,1.18,0,0,1,.46-0.39,0.71,0.71,0,0,0,.63-0.14l0.35,0c0-.05.17,0.26,0.19,0.28a2.07,2.07,0,0,1,.84.32,1.35,1.35,0,0,1,1,.08l0.11,0a2,2,0,0,1,.44.73c0.1,0,.54-0.09.42,0.17a0.56,0.56,0,0,1,.93.24c0.38-.56,2.12.09,2.39,0.38h0c0.34,0.36.14,1.49-.19,1.42A6.6,6.6,0,0,1,14,23.25ZM13.52,5.62l0.11-.15-0.26,0a1,1,0,0,1,.29-0.26,1.27,1.27,0,0,1-.35.13s1-.52,1.15-0.6h0a0.39,0.39,0,0,1,.47,0C14.94,5.23,13.84,5.58,13.52,5.62Zm0.4-2.77h0.33c-0.06,0-.39.27-0.41,0.27,0.24,0.1.24-.12,0.35,0.07-0.21.1,0,.29-0.38,0.4,0.29,0-.58.34-0.66,0.37s0.75,0.15.63,0.27a1,1,0,0,1-.61.14c-0.33.33,0.45,0.06,0.53,0a8.52,8.52,0,0,0-3.24,3s-0.08.22-.13,0.31l-0.13.17c-1.12.48-1-.64-1-1.3,0.09-.08.35-0.42,0.4-0.44s-0.46.09-.36,0A0.54,0.54,0,0,1,9.69,6c-0.32-.28-0.3.08-0.58-0.06,0.74-1-.5-0.5-1-0.41a0.76,0.76,0,0,1,.35-0.38c-0.09,0-.65.21-0.62,0.16a5.37,5.37,0,0,1,2.62-1.8l0.14-.08,0.09-.15,0.14-.09,0.1-.09,0,0,0.09,0L11.1,3l0.06,0,0.1-.14h0.05l0.14-.06h0.07l0.1-.1,0.07-.08,0.13,0,0,0,0-.08,0.16-.06,0.05,0,0.2-.15,0.12,0,0,0,0.13-.06,0.11-.06,0.08,0h0l0.08,0,0.14,0,0.09,0,0,0,0.11-.09A1.81,1.81,0,0,0,13.66,2l0.1,0.05a0.14,0.14,0,0,1,.17.08h0A1.42,1.42,0,0,0,14.79,2h0c0.25-.07.26,0,0.26,0A6.48,6.48,0,0,0,13.92,2.85ZM29.37,22.36a1.23,1.23,0,0,0-.14.34c-0.21.5-.4,1.07-0.59,1.58-0.81.49-.9-0.65-0.36-1a3,3,0,0,1,.28-1,2.57,2.57,0,0,0,.64-0.83s0-.1.12,0.08h0A0.75,0.75,0,0,1,29.37,22.36Zm-1.3-3a1.11,1.11,0,0,0-.38.66,3.25,3.25,0,0,0,.11,1.25A1.5,1.5,0,0,1,27,22.71c-0.21.21-.92,1.65-0.68,1.64-0.69,0-1.13,2.32-2.39,2.37-1,0-.93,0-1.12-1.09a8.54,8.54,0,0,1-.33-1.59c-0.22.19-.24-1.81,0-2.15a1.18,1.18,0,0,0-.06-1.13c-0.08-.23-0.76-1.24-0.74-1.35,0.1-.5.38-0.59,0.09-1.06l-0.09-.11h0c-0.63,0-.68-0.38-1.27-0.3h0L20.2,18a5.71,5.71,0,0,0-.64.27l-0.15.05a1.63,1.63,0,0,0-1.16.1l-0.17,0a1.09,1.09,0,0,1-.47-0.2,2,2,0,0,1-.88-0.76A2.49,2.49,0,0,0,16.29,17a0.18,0.18,0,0,1-.13-0.15,0.26,0.26,0,0,1-.28-0.11,0.68,0.68,0,0,1,0-.66,3.94,3.94,0,0,1,.33-1.78,2.55,2.55,0,0,1,.73-1h0a3.21,3.21,0,0,1,.45-0.2,0.34,0.34,0,0,0,.36-0.24v-0.1c0-.58.6-0.64,0.87-1.1q0.14-.12.26,0.06a1.68,1.68,0,0,0,1.38-.14l0.86-.07h0.6l0.18,0a0.36,0.36,0,0,0,.29.09,1.44,1.44,0,0,0-.09.65,1.34,1.34,0,0,0,.87.28c0.63,0.79,1,.12,1.62.13,0.92,0.29,2-.09,2.15,1a2,2,0,0,1-.4-0.43,5.12,5.12,0,0,1,.94,1.85c0,0.68,1.15,1.09,1.15,1.74a0.07,0.07,0,0,0,0,0c0.08,0.35,1.2-.08,1.36-0.14C29.78,17.12,28.83,19.37,28.07,19.37Zm4.52-4.61a0.33,0.33,0,0,0,.16,0c0,0.09,0,.18,0,0.27Z" transform="translate(-0.1 -0.1)" style="fill:#fff"/></svg>