<?xml version="1.0" encoding="utf-8"?>
<svg version="1.1" xmlns="http://www.w3.org/2000/svg" xmlns:xlink="http://www.w3.org/1999/xlink" x="0px" y="0px"
	 viewBox="0 0 295 295" style="enable-background:new 0 0 295 295;" xml:space="preserve">
<style type="text/css">
	.st0{fill-rule:evenodd;clip-rule:evenodd;fill:#EFEFEF;}
</style>
<g>
	<g>
		<path class="st0" d="M69.5,153.7l-3,3.1l49.4,50.3l3-3.1L69.5,153.7z M147,25.5C79.3,25.5,24.5,80.3,24.5,148
			c0,67.7,54.8,122.5,122.5,122.5c67.7,0,122.5-54.8,122.5-122.5C269.5,80.3,214.7,25.5,147,25.5z M147,267
			c-65.7,0-119-53.3-119-119c0-65.7,53.3-119,119-119c65.7,0,119,53.3,119,119C266.1,213.7,212.8,267,147,267z M116,207.3l3.2,3.2
			L228.5,98.7l-3.2-3.2L116,207.3z"/>
	</g>
</g>
</svg>
