<?xml version="1.0" encoding="utf-8"?>
<svg version="1.1" xmlns="http://www.w3.org/2000/svg" xmlns:xlink="http://www.w3.org/1999/xlink" x="0px" y="0px"
	 viewBox="0 0 19 19" style="enable-background:new 0 0 19 19;" xml:space="preserve">
<style type="text/css">
	.st0{fill:#FFFFFF;}
</style>
<g>
	<g>
		<path class="st0" d="M9.9,0.5c-0.2,0-0.4,0.2-0.4,0.4c0,0.2,0.2,0.4,0.4,0.4c4.3,0,7.8,3.5,7.8,7.7c0,0.2,0.2,0.4,0.4,0.4
			s0.4-0.2,0.4-0.4C18.5,4.3,14.6,0.5,9.9,0.5z M9.9,2.9c-0.2,0-0.4,0.2-0.4,0.4s0.2,0.4,0.4,0.4c3,0,5.4,2.4,5.4,5.3
			c0,0.2,0.2,0.4,0.4,0.4c0.2,0,0.4-0.2,0.4-0.4C16.1,5.6,13.3,2.9,9.9,2.9z M6.7,3.4c-0.1-0.1-0.2-0.1-0.3,0
			c-0.1,0-0.2,0.1-0.2,0.2l-3.3,6.8c-0.1,0.2,0,0.4,0.1,0.5c0,0,0.1,0.1,0.1,0.1l-1.7,1.7c-0.6,0.6-1,1.4-1,2.3c0,0.9,0.3,1.7,1,2.3
			c0.6,0.6,1.4,1,2.3,1c0.7,0,1.4-0.2,2-0.7c0,0.1,0,0.1,0.1,0.2c0.6,0.6,1.4,0.9,2.1,0.9h0c0.5,0,1-0.2,1.3-0.5
			c0.1-0.1,0.1-0.4,0-0.5c-0.1-0.1-0.4-0.1-0.5,0c-0.2,0.2-0.5,0.3-0.7,0.3h0c-0.5,0-1.1-0.3-1.6-0.7c0,0-0.1,0-0.1-0.1l1.6-1.5
			c0,0,0.1,0.1,0.1,0.1c0.1,0.1,0.2,0.2,0.3,0.2c0.1,0,0.1,0,0.2,0l6.9-3.3c0.1,0,0.2-0.1,0.2-0.2c0-0.1,0-0.2,0-0.3
			C13.1,8.5,10.2,5.6,6.7,3.4z M5.6,16.6c-1,0.9-2.6,0.9-3.6,0c-0.5-0.5-0.7-1.1-0.7-1.8c0-0.7,0.3-1.3,0.7-1.8l1.8-1.7
			c1.4,1,2.6,2.2,3.6,3.5L5.6,16.6z M8.3,14.9c-1.2-1.8-2.8-3.3-4.6-4.6l3-6.1c3.1,2.1,5.7,4.7,7.8,7.7L8.3,14.9z"/>
	</g>
</g>
</svg>
