<?xml version="1.0" encoding="utf-8"?>
<svg version="1.1" xmlns="http://www.w3.org/2000/svg" xmlns:xlink="http://www.w3.org/1999/xlink" x="0px" y="0px"
	 viewBox="0 0 18 18" style="enable-background:new 0 0 18 18;" xml:space="preserve">
<style type="text/css">
	.st0{fill:#FFFFFF;}
</style>
<path class="st0" d="M9,18C9,18,9,18,9,18c-0.4,0-0.7-0.1-0.9-0.4L0.4,9.9C0.2,9.7,0,9.3,0,9c0-0.4,0.1-0.7,0.4-0.9l2.4-2.4
	c0.1-0.1,0.3-0.1,0.4-0.1c0.1,0,0.2,0.2,0.3,0.3C3.6,6.3,3.8,6.7,4.1,7c0.8,0.8,2.3,0.8,3.1,0c0.9-0.9,0.9-2.3,0-3.1
	C6.9,3.5,6.5,3.3,6.1,3.2C6,3.2,5.8,3.1,5.8,2.9c0-0.1,0-0.3,0.1-0.4l2.2-2.2c0.5-0.5,1.4-0.5,1.9,0l2,2c0.1-0.5,0.4-1,0.8-1.4
	c1.1-1.1,3.1-1.1,4.3,0c1.2,1.2,1.2,3.1,0,4.3c-0.4,0.4-0.9,0.7-1.4,0.8l2,2C17.8,8.3,18,8.6,18,9c0,0.4-0.1,0.7-0.4,0.9l-2.2,2.2
	c-0.1,0.1-0.3,0.1-0.4,0.1c-0.1,0-0.2-0.2-0.3-0.3c-0.1-0.4-0.3-0.8-0.6-1.1c-0.8-0.8-2.3-0.8-3.1,0c-0.9,0.9-0.9,2.3,0,3.1
	c0.3,0.3,0.7,0.5,1.1,0.6c0.1,0,0.3,0.1,0.3,0.3c0,0.1,0,0.3-0.1,0.4l-2.4,2.4C9.7,17.9,9.4,18,9,18L9,18z M2.9,6.7L1,8.6
	C0.9,8.7,0.8,8.9,0.8,9c0,0.1,0.1,0.3,0.2,0.4L8.6,17c0.1,0.1,0.2,0.2,0.4,0.2l0,0c0.1,0,0.3-0.1,0.4-0.2l1.9-2
	c-0.3-0.1-0.6-0.3-0.8-0.6c-1.2-1.2-1.2-3.1,0-4.3c1.1-1.1,3.1-1.1,4.3,0c0.2,0.2,0.4,0.5,0.6,0.8L17,9.4c0.1-0.1,0.2-0.2,0.2-0.4
	c0-0.1-0.1-0.3-0.2-0.4L14.4,6c-0.1-0.1-0.2-0.3-0.1-0.5c0.1-0.2,0.2-0.2,0.4-0.2c0.7,0.1,1.3-0.2,1.7-0.6c0.9-0.9,0.9-2.3,0-3.1
	c-0.8-0.8-2.3-0.8-3.1,0c-0.5,0.5-0.7,1.1-0.6,1.7c0,0.2-0.1,0.3-0.2,0.4c-0.1,0.1-0.3,0-0.5-0.1L9.4,1C9.2,0.8,8.8,0.8,8.6,1
	L6.9,2.7C7.2,2.8,7.5,3,7.8,3.3c1.2,1.2,1.2,3.1,0,4.3c-1.1,1.1-3.1,1.1-4.3,0C3.3,7.3,3.1,7,2.9,6.7L2.9,6.7z"/>
</svg>
