<?xml version="1.0" encoding="utf-8"?>
<svg version="1.1" xmlns="http://www.w3.org/2000/svg" xmlns:xlink="http://www.w3.org/1999/xlink" x="0px" y="0px"
	 viewBox="0 0 19 18" style="enable-background:new 0 0 19 18;" xml:space="preserve">
<style type="text/css">
	.st0{fill:#FFFFFF;}
</style>
<g>
	<g>
		<path class="st0" d="M18.6,0h-4.3C14.1,0,14,0.2,14,0.4v17.2c0,0.2,0.2,0.4,0.4,0.4h4.3c0.2,0,0.4-0.2,0.4-0.4V0.4
			C19,0.2,18.8,0,18.6,0z M18.2,17.2h-3.5V0.8h3.5V17.2z M11.6,9.9H7.4C7.2,9.9,7,10,7,10.3v7.3C7,17.8,7.2,18,7.4,18h4.3
			c0.2,0,0.4-0.2,0.4-0.4v-7.3C12,10,11.8,9.9,11.6,9.9z M11.2,17.2H7.8v-6.5h3.5V17.2z M4.6,6.3H0.4C0.2,6.3,0,6.4,0,6.7v10.9
			C0,17.8,0.2,18,0.4,18h4.3C4.9,18,5,17.8,5,17.6V6.7C5,6.4,4.9,6.3,4.6,6.3z M4.2,17.2H0.8V7.1h3.5V17.2z"/>
	</g>
</g>
</svg>
