<?xml version="1.0" encoding="utf-8"?>
<svg version="1.1" xmlns="http://www.w3.org/2000/svg" xmlns:xlink="http://www.w3.org/1999/xlink" x="0px" y="0px"
	 viewBox="0 0 18 16" style="enable-background:new 0 0 18 16;" xml:space="preserve">
<style type="text/css">
	.st0{fill:#FFFFFF;}
</style>
<g>
	<g>
		<path class="st0" d="M9,5.1c-1.4,0-2.6,1.3-2.6,2.8c0,1.5,1.2,2.8,2.6,2.8c0.3,0,0.7-0.1,0.9-0.2c-0.7,0-1.3-0.7-1.3-1.5
			c0-0.8,0.6-1.5,1.4-1.5c0.8,0,1.4,0.7,1.4,1.5c0.1-0.3,0.2-0.7,0.2-1.1C11.6,6.4,10.4,5.1,9,5.1z M9,2C3.9,2,0,8,0,8s3.9,6,9,6
			c5.1,0,9-6,9-6S14.1,2,9,2z M9,12.2c-2.2,0-3.9-1.9-3.9-4.2c0-2.3,1.8-4.2,3.9-4.2c2.2,0,3.9,1.9,3.9,4.2
			C12.9,10.3,11.2,12.2,9,12.2z"/>
	</g>
</g>
</svg>
