<?xml version="1.0" encoding="utf-8"?>
<svg version="1.1" xmlns="http://www.w3.org/2000/svg" xmlns:xlink="http://www.w3.org/1999/xlink" x="0px" y="0px"
	 viewBox="0 0 18 18.3" style="enable-background:new 0 0 18 18.3;" xml:space="preserve">
<style type="text/css">
	.st0{fill:#FFFFFF;}
</style>
<g>
	<g>
		<path class="st0" d="M9,0C4.6,0,1,3.5,1,7.7C1,11.9,8.4,18,8.7,18.2c0.1,0.1,0.2,0.1,0.3,0.1c0.1,0,0.2,0,0.3-0.1
			C9.6,18,17,11.9,17,7.7C17,3.5,13.4,0,9,0z M9,17.4c-1.3-1.1-7.1-6.3-7.1-9.7c0-3.8,3.2-6.9,7.1-6.9c3.9,0,7.1,3.1,7.1,6.9
			C16.1,11.1,10.3,16.3,9,17.4z M9,4.1c-2,0-3.7,1.6-3.7,3.6c0,2,1.6,3.6,3.7,3.6c2,0,3.7-1.6,3.7-3.6C12.7,5.7,11,4.1,9,4.1z
			 M9,10.5c-1.6,0-2.9-1.2-2.9-2.8c0-1.5,1.3-2.8,2.9-2.8c1.6,0,2.9,1.2,2.9,2.8C11.9,9.2,10.6,10.5,9,10.5z"/>
	</g>
</g>
</svg>
