<svg version="1.1" id="Слой_1" xmlns="http://www.w3.org/2000/svg" xmlns:xlink="http://www.w3.org/1999/xlink" x="0px" y="0px"
	 width="28px" height="28px" viewBox="0 0 28 28" enable-background="new 0 0 28 28" xml:space="preserve">
<g>
	<g>
		<circle fill="#FFFFFF" cx="13.998" cy="14.001" r="13.693"/>
		<path fill="#4D4744" d="M2.251,14c0,4.649,2.702,8.669,6.622,10.573L3.269,9.219C2.617,10.68,2.251,12.296,2.251,14z"/>
		<path fill="#4D4744" d="M21.931,13.407c0-1.452-0.521-2.458-0.968-3.24c-0.596-0.968-1.154-1.787-1.154-2.756
			c0-1.079,0.818-2.085,1.973-2.085c0.052,0,0.102,0.007,0.152,0.01C19.844,3.421,17.059,2.251,14,2.251
			c-4.105,0-7.715,2.106-9.816,5.296C4.459,7.556,4.719,7.561,4.94,7.561c1.229,0,3.131-0.149,3.131-0.149
			C8.704,7.374,8.779,8.305,8.146,8.38c0,0-0.637,0.074-1.344,0.111l4.278,12.727l2.571-7.711l-1.83-5.016
			c-0.633-0.037-1.232-0.111-1.232-0.111c-0.633-0.037-0.559-1.006,0.075-0.969c0,0,1.94,0.149,3.094,0.149
			c1.229,0,3.131-0.149,3.131-0.149c0.633-0.037,0.708,0.894,0.074,0.969c0,0-0.637,0.074-1.344,0.111l4.246,12.629l1.172-3.915
			C21.544,15.579,21.931,14.412,21.931,13.407z"/>
		<path fill="#4D4744" d="M14.206,15.027l-3.525,10.243c1.053,0.31,2.166,0.479,3.319,0.479c1.368,0,2.68-0.236,3.901-0.666
			c-0.031-0.051-0.061-0.104-0.085-0.162L14.206,15.027z"/>
		<path fill="#4D4744" d="M24.309,8.363c0.051,0.374,0.08,0.775,0.08,1.208c0,1.192-0.224,2.532-0.895,4.208l-3.588,10.375
			c3.492-2.036,5.842-5.82,5.842-10.154C25.748,11.957,25.227,10.037,24.309,8.363z"/>
		<path fill="#4D4744" d="M14,0.305C6.448,0.305,0.305,6.448,0.305,14S6.448,27.695,14,27.695c7.551,0,13.695-6.144,13.695-13.695
			S21.551,0.305,14,0.305z M14,27.067C6.794,27.067,0.933,21.205,0.933,14S6.794,0.933,14,0.933c7.205,0,13.066,5.862,13.066,13.067
			S21.205,27.067,14,27.067z"/>
	</g>
</g>
</svg>
