<?xml version="1.0" encoding="utf-8"?>
<svg version="1.1" xmlns="http://www.w3.org/2000/svg" xmlns:xlink="http://www.w3.org/1999/xlink" x="0px" y="0px"
	 viewBox="0 0 34 30" style="enable-background:new 0 0 34 30;" xml:space="preserve">
<style type="text/css">
	.st0{fill:#333333;}
</style>
<g>
	<g>
		<path class="st0" d="M30.8,15.3v-3h-3v3h-3v3h3v3h3v-3h3v-3L30.8,15.3L30.8,15.3z"/>
	</g>
</g>
<path class="st0" d="M11.9,15.2v4h6.5c-0.3,1.7-2,5-6.5,5c-3.9,0-7.2-3.3-7.2-7.3c0-4,3.2-7.3,7.2-7.3c2.2,0,3.7,1,4.6,1.8l3.1-3
	c-2-1.9-4.6-3-7.7-3c-6.4,0-11.5,5.2-11.5,11.5s5.2,11.5,11.5,11.5c6.7,0,11.1-4.7,11.1-11.3c0-0.8-0.1-1.3-0.2-1.9L11.9,15.2
	L11.9,15.2L11.9,15.2z"/>
</svg>
