<?xml version="1.0" encoding="utf-8"?>
<svg version="1.1" xmlns="http://www.w3.org/2000/svg" xmlns:xlink="http://www.w3.org/1999/xlink" x="0px" y="0px"
	 viewBox="0 0 30 30" style="enable-background:new 0 0 30 30;" xml:space="preserve">
<style type="text/css">
	.st0{fill:#333333;}
</style>
<g id="Symbol_2_">
	<g>
		<path class="st0" d="M29.4,6.1C28.3,6.6,27.2,6.9,26,7c1.2-0.7,2.2-1.9,2.6-3.3c-1.1,0.7-2.4,1.2-3.7,1.4
			c-1.1-1.1-2.6-1.9-4.3-1.9c-3.3,0-5.9,2.6-5.9,5.9c0,0.5,0.1,0.9,0.2,1.3C9.9,10.3,5.5,8,2.6,4.4c-0.5,0.9-0.8,1.9-0.8,3
			c0,2,1,3.8,2.6,4.9c-1,0-1.9-0.3-2.7-0.7v0.1c0,2.9,2,5.2,4.7,5.8c-0.5,0.1-1,0.2-1.6,0.2c-0.4,0-0.7,0-1.1-0.1
			c0.7,2.3,2.9,4,5.5,4.1c-2,1.6-4.6,2.5-7.3,2.5c-0.5,0-0.9,0-1.4-0.1c2.6,1.7,5.7,2.6,9,2.6c10.8,0,16.8-9,16.8-16.8
			c0-0.3,0-0.5,0-0.8C27.6,8.3,28.6,7.3,29.4,6.1z"/>
	</g>
</g>
</svg>
