<?xml version="1.0" encoding="utf-8"?>
<svg version="1.1" xmlns="http://www.w3.org/2000/svg" xmlns:xlink="http://www.w3.org/1999/xlink" x="0px" y="0px"
	 viewBox="0 0 34 30" style="enable-background:new 0 0 34 30;" xml:space="preserve">
<style type="text/css">
	.st0{fill:#333333;}
</style>
<path class="st0" d="M14.3,28.2c-5.6,0.6-10.5-2-10.8-5.7c-0.4-3.7,3.9-7.1,9.5-7.7c5.6-0.6,10.5,2,10.8,5.7
	C24.1,24.2,19.9,27.6,14.3,28.2 M25.5,15.9c-0.5-0.1-0.8-0.2-0.6-0.9c0.5-1.4,0.6-2.5,0-3.4c-1.1-1.6-4.1-1.5-7.6,0
	c0,0-1.1,0.5-0.8-0.4c0.5-1.7,0.5-3.1-0.4-4c-1.9-1.9-6.9,0.1-11.1,4.3C1.9,14.9,0,18.2,0,21.2c0,5.6,7.2,9,14.2,9
	c9.2,0,15.4-5.4,15.4-9.6C29.6,18,27.5,16.6,25.5,15.9"/>
<path class="st0" d="M31.6,5.7c-2.2-2.5-5.5-3.4-8.6-2.8h0c-0.7,0.2-1.1,0.8-1,1.5c0.1,0.7,0.8,1.2,1.5,1c2.2-0.5,4.5,0.2,6.1,2
	c1.6,1.8,2,4.2,1.3,6.3v0c-0.2,0.7,0.2,1.4,0.8,1.6c0.7,0.2,1.4-0.2,1.6-0.8c0,0,0,0,0,0C34.5,11.5,33.9,8.1,31.6,5.7"/>
<path class="st0" d="M28.2,8.8c-1.1-1.2-2.7-1.7-4.2-1.3c-0.6,0.1-1,0.7-0.9,1.3c0.1,0.6,0.7,1,1.3,0.9l0,0c0.7-0.2,1.5,0.1,2,0.7
	c0.5,0.6,0.7,1.4,0.4,2.1h0c-0.2,0.6,0.1,1.2,0.7,1.4c0.6,0.2,1.2-0.1,1.4-0.7C29.6,11.6,29.3,10,28.2,8.8"/>
<path class="st0" d="M14.6,21.5c-0.2,0.3-0.6,0.5-1,0.4c-0.3-0.1-0.4-0.5-0.2-0.8c0.2-0.3,0.6-0.5,0.9-0.4
	C14.6,20.8,14.8,21.2,14.6,21.5 M12.8,23.8c-0.5,0.9-1.7,1.2-2.6,0.8c-0.9-0.4-1.1-1.4-0.6-2.2c0.5-0.8,1.7-1.2,2.5-0.9
	C13,21.9,13.3,22.9,12.8,23.8 M14.8,17.7c-2.7-0.7-5.7,0.6-6.9,3c-1.2,2.4,0,5.1,2.7,5.9c2.8,0.9,6.1-0.5,7.2-3.1
	C19,21,17.6,18.4,14.8,17.7"/>
</svg>
