<?xml version="1.0" encoding="utf-8"?>
<svg version="1.1" xmlns="http://www.w3.org/2000/svg" xmlns:xlink="http://www.w3.org/1999/xlink" x="0px" y="0px"
	 viewBox="0 0 34 30" style="enable-background:new 0 0 34 30;" xml:space="preserve">
<style type="text/css">
	.st0{fill:#333333;}
</style>
<path class="st0" d="M3.9,10.5h5.6v18.1H3.9V10.5z M6.7,1.5C8.5,1.5,10,3,10,4.8C10,6.5,8.5,8,6.7,8S3.5,6.5,3.5,4.7
	S4.9,1.5,6.7,1.5"/>
<path class="st0" d="M13,10.5h5.4V13h0.1c0.7-1.4,2.6-2.9,5.3-2.9c5.7,0,6.7,3.7,6.7,8.6v9.9h-5.6v-8.8c0-2.1,0-4.8-2.9-4.8
	s-3.4,2.3-3.4,4.6v8.9H13C13,28.5,13,10.5,13,10.5z"/>
</svg>
