<?xml version="1.0" encoding="utf-8"?>
<svg version="1.1" xmlns="http://www.w3.org/2000/svg" xmlns:xlink="http://www.w3.org/1999/xlink" x="0px" y="0px"
	 viewBox="0 0 34 30" style="enable-background:new 0 0 34 30;" xml:space="preserve">
<style type="text/css">
	.st0{fill:#333333;}
</style>
<path class="st0" d="M32.6,24.7c-0.2,0-0.4,0-0.5,0.1c-1.8,0-3.5,0-5.3,0c-0.2,0-0.5-0.1-0.6-0.2c-0.4-0.3-0.7-0.6-1.1-0.9
	c-0.9-0.9-1.7-1.8-2.6-2.7c-0.3-0.3-0.6-0.5-0.9-0.8c-0.1-0.1-0.3-0.2-0.5-0.2c-0.3,0-0.5,0.1-0.6,0.4c-0.1,0.2-0.2,0.5-0.2,0.7
	c0,0.4,0,0.8-0.1,1.3c0,0.5,0,0.9-0.2,1.4c-0.1,0.2-0.1,0.4-0.2,0.6c-0.2,0.3-0.5,0.5-0.8,0.5c-1.5,0-3.1,0.1-4.6,0
	c-0.3,0-0.6-0.1-0.8-0.2c-1.4-0.7-2.7-1.6-3.8-2.8c-1.3-1.4-2.6-2.9-3.8-4.5c-1.6-2.1-3-4.3-4.3-6.6C1.2,9.8,0.7,8.9,0.4,8
	c-0.2-0.4-0.2-0.9,0-1.3c0-0.1,0.1-0.3,0.2-0.4C0.6,6.1,0.8,6,1,6C1,6,1.1,6,1.2,6C2.8,6,4.4,6,6,6c0.3,0,0.6,0.1,0.8,0.3
	c0.4,0.4,0.7,0.9,1,1.3c0.3,0.5,0.6,1,0.9,1.6c0.6,1.2,1.3,2.3,2.1,3.4c0.4,0.5,0.8,1,1.2,1.5c0.2,0.2,0.4,0.3,0.7,0.3
	c0.3,0,0.4-0.1,0.4-0.4c0-0.1,0-0.1,0-0.2c0-1.8,0-3.6,0-5.4c0-0.1,0-0.3,0-0.4c0-0.3-0.2-0.5-0.5-0.6c-0.1,0-0.3,0-0.4-0.1
	c-0.5-0.1-0.6-0.3-0.7-0.7c-0.1-0.7,0.3-1.2,0.9-1.5c0.3-0.1,0.6-0.1,0.9-0.1c1.4,0,2.9,0,4.3,0c0.3,0,0.6,0,0.9,0
	c0.3,0,0.6,0.1,0.9,0.2c0.6,0.2,1,0.6,1.1,1.3c0,0.2,0,0.3,0,0.5c0,1.1,0,2.2,0,3.3c0,1.2,0,2.3,0,3.5c0,0.1,0,0.2,0,0.3
	c0.1,0.4,0.5,0.5,0.8,0.2c1-0.7,1.6-1.6,2.1-2.6c0.4-0.9,0.8-1.9,1.2-2.9c0.3-0.8,0.7-1.5,1-2.3c0.1-0.2,0.2-0.4,0.3-0.5
	C25.8,6.1,25.9,6,26.1,6c2.1,0,4.1,0,6.2,0c0.5,0,0.9,0.2,1.2,0.6c0.1,0.1,0.2,0.3,0.2,0.5c0.1,0.8-0.2,1.5-0.5,2.2
	c-0.4,0.6-0.8,1.2-1.3,1.8c-1,1.2-2,2.4-2.8,3.6c-0.2,0.3-0.4,0.7-0.6,1c-0.1,0.3-0.1,0.5,0.1,0.7c0.4,0.5,0.7,0.9,1.1,1.3
	c0.9,1,1.9,2,2.8,3c0.3,0.3,0.6,0.7,0.9,1c0.1,0.1,0.2,0.2,0.3,0.4C34.3,23.2,33.5,24.6,32.6,24.7z"/>
</svg>
