<svg xmlns="http://www.w3.org/2000/svg" viewBox="0 0 659.05 476.12"><path d="M107.49,121c0-10.61-3.75-19.2-8.28-19.18s-8.16,8.64-8.11,19.25a41.65,41.65,0,0,0,.88,8.47l14.71-.07A41.66,41.66,0,0,0,107.49,121Z" transform="translate(0 0.01)" style="fill:#e28a95"/><path d="M79.83,98c0-10.61-3.75-19.2-8.28-19.18s-8.16,8.64-8.11,19.25a41.65,41.65,0,0,0,.88,8.47L79,106.46A41.52,41.52,0,0,0,79.83,98Z" transform="translate(0 0.01)" style="fill:#e28a95"/><path d="M47.57,115.47c0-10.61-3.75-19.2-8.28-19.18s-8.16,8.64-8.11,19.25a41.65,41.65,0,0,0,.88,8.47H46.77A41.58,41.58,0,0,0,47.57,115.47Z" transform="translate(0 0.01)" style="fill:#e28a95"/><path d="M17.64,140.19c0-10.61-3.75-19.2-8.28-19.18s-8.16,8.64-8.11,19.25a41.65,41.65,0,0,0,.88,8.47l14.71-.07A41.66,41.66,0,0,0,17.64,140.19Z" transform="translate(0 0.01)" style="fill:#e28a95"/><path d="M160,237.27c10.07-3.35,17.08-9.54,15.65-13.83s-10.75-5.07-20.82-1.72a41.57,41.57,0,0,0-7.78,3.47l4.64,14A41.5,41.5,0,0,0,160,237.27Z" transform="translate(0 0.01)" style="fill:#e28a95"/><path d="M87.24,273l0.15,33.07c0,7.3-4.94,48.93-11.31,49l-46.1.21c-6.36,0-11.71-41.56-11.74-48.86l-0.15-33.07Z" transform="translate(0 0.01)" style="fill:#e49c86"/><path d="M18.23,304.34a12,12,0,0,0,5.82,2l57.67-.26a13.5,13.5,0,0,0,5.67-1.67l-0.11-24.8-69.16.31Z" transform="translate(0 0.01)" style="fill:#cd8c78"/><path d="M169.63,219.14s-10.59-14.47-42,.91c-4.36,2.73-10.24,6.28-15.76,9.75l-2.18-108.94c0-7.3-4.09-13.19-11.43-13.16s-8.16,6-8.13,13.25l-4.76,72.84-62.16.3L19.58,141.2c0-7.29-2.41-13.18-9.75-13.15S0,134,0,141.27L2.17,267c0,9.28,8.19,26.24,17.57,26.2l66.15-.3c7.07,0,18.43-8.08,23.61-16,3.86-4.21,21.27-22,55.44-39.4A13.57,13.57,0,0,0,169.63,219.14Z" transform="translate(0 0.01)" style="fill:#e7a793"/><polygon points="87.75 475.92 19.37 476.12 18.53 316.23 86.91 316.04 87.75 475.92" style="fill:#e7a793"/><rect x="7.96" y="329.64" width="90" height="146.48" style="fill:#fff"/><path d="M84,196.29c0,5.52-5.52,10-12.33,10h0c-6.81,0-12.33-4.48-12.33-10l3-102c0-5.52,2.52-10,9.33-10h0c6.81,0,9.33,4.48,9.33,10Z" transform="translate(0 0.01)" style="fill:#e7a793"/><path d="M52,213.63c0,5.52-5.52,10-12.33,10h0c-6.81,0-12.33-4.48-12.33-10l3-102c0-5.52,2.52-10,9.33-10h0c6.81,0,9.33,4.48,9.33,10Z" transform="translate(0 0.01)" style="fill:#e7a793"/><path d="M8,193.63H98S42,210.29,8,193.63Z" transform="translate(0 0.01)" style="fill:#cc9283"/><path d="M102.62,229.63s-30.67,4-41.33,30H46S68.62,223.63,102.62,229.63Z" transform="translate(0 0.01)" style="fill:#cc9283"/><path d="M494,142a13.34,13.34,0,0,1-13.34,13.34h-0.59A13.34,13.34,0,0,1,466.74,142V99.33A13.34,13.34,0,0,1,480.08,86h0.59A13.34,13.34,0,0,1,494,99.33V142Z" transform="translate(0 0.01)" style="fill:#e49c86"/><path d="M471.49,140a36.86,36.86,0,0,0-10.38,2h0l-0.3-47.09V28.47a11.86,11.86,0,0,0-23.72,0V95.89l-4.74.2V12.45a12.46,12.46,0,0,0-24.91,0v84.7l-3.85.16V29.06a12.46,12.46,0,1,0-24.91,0V98.37l-4.76.2V46.85a12.46,12.46,0,0,0-24.91,0h0v86.58a12.43,12.43,0,0,0,.12,1.61,192.24,192.24,0,0,1-2,23.29c-3.56,21.35,23.54,46.85,28.58,52.78s81.36,7.1,81.36,7.1c18.16-10.6,35.24-36.47,37-62.85V140H471.49Z" transform="translate(0 0.01)" style="fill:#e49c86"/><path d="M460.81,142.08s-27.87,8-40.92,47.1H403.58S427.6,142.08,460.81,142.08Z" transform="translate(0 0.01)" style="fill:#cc9283"/><path d="M460.81,94.88L349,99.63S426,110.6,460.81,94.88Z" transform="translate(0 0.01)" style="fill:#cc9283"/><path d="M461,206v37.2c0,8.21-6.66,55-14.87,55h-59.5c-8.21,0-14.88-46.82-14.88-55V206H461Z" transform="translate(0 0.01)" style="fill:#e49c86"/><path d="M425.28,227.14a10.74,10.74,0,0,0-.57,3.09v30.65a12.56,12.56,0,0,0,.45,3h6.89V227.14h-6.77Z" transform="translate(0 0.01)" style="fill:#cd8c78"/><path d="M404.28,227.14a10.74,10.74,0,0,0-.57,3.09v30.65a12.51,12.51,0,0,0,.46,3h6.89V227.14h-6.78Z" transform="translate(0 0.01)" style="fill:#cd8c78"/><rect x="366.78" y="262.49" width="96.62" height="209.25" style="fill:#5d6978"/><rect x="411.96" y="262.49" width="43.92" height="209.25" style="fill:#545c68"/><rect x="366.78" y="262.49" width="96.62" height="24.55" style="fill:#231f20;opacity:0.4000000059604645;isolation:isolate"/><path d="M476,268c0,5.27-3.83,9.54-8.57,9.54H362.8c-4.73,0-8.57-4.27-8.57-9.54v-7.28c0-5.27,3.83-9.54,8.57-9.54H467.39c4.73,0,8.57,4.27,8.57,9.54V268h0Z" transform="translate(0 0.01)" style="fill:#faffff"/><circle cx="457.08" cy="263.83" r="8.16" style="fill:#5d6978"/><path d="M173.65,424a9,9,0,0,1-9,9h-0.4a9,9,0,0,1-9-9V395a9,9,0,0,1,9-9h0.4a9,9,0,0,1,9,9v29Z" transform="translate(0 0.01)" style="fill:#c17563"/><path d="M158.37,422.56a25.07,25.07,0,0,0-7,1.37L151.13,392V347a8,8,0,1,0-16.08,0v45.72l-3.22.14V336.11a8.44,8.44,0,1,0-16.89,0v57.43l-2.61.11V347.37a8.44,8.44,0,1,0-16.89,0v47l-3.23.14V359.43a8.44,8.44,0,1,0-16.89,0q0.29,19.06.59,38.12c0.28,17.88-2.58,37.3,3.53,54.28,2.59,7.21,6,17.08,13.43,20,5.76,2.26,14.68,1.92,20.82,2.37,7.91,0.58,15.84.9,23.77,1.15,2.32,0.07,9,1.49,11.12.27,12.31-7.19,23.9-24.73,25.07-42.61V422.56H158.37Z" transform="translate(0 0.01)" style="fill:#c17563"/><path d="M151.13,424s-18.9,5.4-27.75,31.93H112.33S128.62,424,151.13,424Z" transform="translate(0 0.01)" style="fill:#231f20;opacity:0.4000000059604645;isolation:isolate"/><path d="M151.13,392l-75.81,3.22S127.51,402.66,151.13,392Z" transform="translate(0 0.01)" style="fill:#231f20;opacity:0.4000000059604645;isolation:isolate"/><circle cx="250.43" cy="426.11" r="9.32" style="fill:#bcbec0"/><circle cx="250.43" cy="426.11" r="8.37" style="fill:#e6e7e8"/><circle cx="252.09" cy="421.31" r="2.63" style="fill:#fff"/><path d="M257.62,420.38a9,9,0,0,1-15.77,8A9,9,0,1,0,257.62,420.38Z" transform="translate(0 0.01)" style="fill:#231f20;opacity:0.4000000059604645;isolation:isolate"/><circle cx="250.43" cy="426.11" r="9.32" style="fill:#bcbec0;opacity:0.5;isolation:isolate"/><circle cx="241.43" cy="433.49" r="9.32" style="fill:#bcbec0"/><circle cx="241.43" cy="433.49" r="8.37" style="fill:#e6e7e8"/><circle cx="243.08" cy="428.71" r="2.63" style="fill:#fff"/><path d="M248.61,427.77a9,9,0,0,1-15.77,8A9,9,0,1,0,248.61,427.77Z" transform="translate(0 0.01)" style="fill:#231f20;opacity:0.4000000059604645;isolation:isolate"/><circle cx="241.43" cy="433.49" r="9.32" style="fill:#bcbec0;opacity:0.5;isolation:isolate"/><circle cx="327.53" cy="417.24" r="11.02" style="fill:#bcbec0"/><circle cx="327.53" cy="417.24" r="9.89" style="fill:#e6e7e8"/><circle cx="329.49" cy="411.58" r="3.11" style="fill:#fff"/><path d="M336,410.47a10.63,10.63,0,0,1-18.63,9.41A10.64,10.64,0,1,0,336,410.47Z" transform="translate(0 0.01)" style="fill:#231f20;opacity:0.4000000059604645;isolation:isolate"/><circle cx="327.53" cy="417.24" r="11.02" style="fill:#bcbec0;opacity:0.5;isolation:isolate"/><path d="M318.89,369.57L319,402.64c0,7.3-5,48.93-11.31,49l-46.11.21c-6.36,0-11.71-41.56-11.74-48.86l-0.15-33.07Z" transform="translate(0 0.01)" style="fill:#e7a793"/><path d="M344.72,315.76a10.55,10.55,0,0,1-10.55,10.55H333.7a10.55,10.55,0,0,1-10.55-10.55V282a10.55,10.55,0,0,1,10.55-10.55h0.47A10.55,10.55,0,0,1,344.72,282v33.76Z" transform="translate(0 0.01)" style="fill:#e7a793"/><path d="M326.9,314.12a29.19,29.19,0,0,0-8.21,1.6l-0.23-37.24V226a9.38,9.38,0,0,0-18.76,0h0v53.31l-3.75.16V213.3a9.85,9.85,0,0,0-19.69-.63q0,0.31,0,.63v67l-3,.13v-54a9.85,9.85,0,0,0-19.7,0v54.81l-3.76.16V240.5a9.85,9.85,0,0,0-19.69,0V309a9.94,9.94,0,0,0,.09,1.27c-0.42,11.43-1.87,22,1.78,33.38,1.67,5.19,3.26,11.32,6.6,15.73,3.57,4.73,7.66,7.39,11.62,12S315.48,376,315.48,376c14.36-8.38,27.87-28.84,29.24-49.7V314.12H326.9Z" transform="translate(0 0.01)" style="fill:#e7a793"/><path d="M318.46,315.8s-22,6.29-32.36,37.24H273.2S292.2,315.8,318.46,315.8Z" transform="translate(0 0.01)" style="fill:#cc9283"/><path d="M318.46,278.48l-88.4,3.75S290.91,290.9,318.46,278.48Z" transform="translate(0 0.01)" style="fill:#cc9283"/><polygon points="319.39 471.67 251.02 471.75 250.18 412.67 318.56 412.6 319.39 471.67" style="fill:#e7a793"/><path d="M318.62,427.82a11,11,0,0,0-6.35,8.07A11,11,0,0,0,298.53,443a11,11,0,0,0-18.41,6A11,11,0,0,0,262,455.76a11,11,0,0,0-11.64-2.43l0.09,20.61a11,11,0,0,0,14.72-8.77,11,11,0,0,0,18.55-5.85,11,11,0,0,0,17.71-4.92,11,11,0,0,0,17.29-2.82Z" transform="translate(0 0.01)" style="fill:#231f20;opacity:0.4000000059604645;isolation:isolate"/><circle cx="236.13" cy="448.73" r="11.02" style="fill:#bcbec0"/><circle cx="236.13" cy="448.73" r="9.89" style="fill:#e6e7e8"/><circle cx="238.08" cy="443.06" r="3.11" style="fill:#fff"/><path d="M244.61,442A10.63,10.63,0,0,1,226,451.37,10.64,10.64,0,1,0,244.61,442Z" transform="translate(0 0.01)" style="fill:#231f20;opacity:0.4000000059604645;isolation:isolate"/><circle cx="236.13" cy="448.73" r="11.02" style="fill:#bcbec0;opacity:0.5;isolation:isolate"/><circle cx="323.07" cy="430.26" r="11.02" style="fill:#bcbec0"/><circle cx="323.07" cy="430.26" r="9.89" style="fill:#e6e7e8"/><circle cx="325.02" cy="424.59" r="3.11" style="fill:#fff"/><path d="M331.56,423.49a10.63,10.63,0,0,1-18.64,9.41A10.64,10.64,0,1,0,331.56,423.49Z" transform="translate(0 0.01)" style="fill:#231f20;opacity:0.4000000059604645;isolation:isolate"/><circle cx="308.98" cy="438.8" r="11.02" style="fill:#bcbec0"/><circle cx="308.98" cy="438.8" r="9.89" style="fill:#e6e7e8"/><circle cx="310.93" cy="433.14" r="3.11" style="fill:#fff"/><path d="M317.47,432a10.63,10.63,0,0,1-18.63,9.41A10.64,10.64,0,1,0,317.47,432Z" transform="translate(0 0.01)" style="fill:#231f20;opacity:0.4000000059604645;isolation:isolate"/><circle cx="290.92" cy="443.4" r="11.02" style="fill:#bcbec0"/><circle cx="290.92" cy="443.4" r="9.89" style="fill:#e6e7e8"/><circle cx="292.87" cy="437.74" r="3.11" style="fill:#fff"/><path d="M299.4,436.63A10.63,10.63,0,0,1,280.77,446,10.64,10.64,0,1,0,299.4,436.63Z" transform="translate(0 0.01)" style="fill:#231f20;opacity:0.4000000059604645;isolation:isolate"/><circle cx="272.86" cy="449.7" r="11.02" style="fill:#bcbec0"/><circle cx="272.86" cy="449.7" r="9.89" style="fill:#e6e7e8"/><circle cx="274.82" cy="444.04" r="3.11" style="fill:#fff"/><path d="M281.35,442.92a10.63,10.63,0,0,1-18.63,9.41A10.64,10.64,0,1,0,281.35,442.92Z" transform="translate(0 0.01)" style="fill:#231f20;opacity:0.4000000059604645;isolation:isolate"/><circle cx="254.24" cy="455.99" r="11.02" style="fill:#bcbec0"/><circle cx="254.24" cy="455.99" r="9.89" style="fill:#e6e7e8"/><circle cx="256.19" cy="450.33" r="3.11" style="fill:#fff"/><path d="M262.73,449.22a10.63,10.63,0,0,1-18.63,9.41A10.64,10.64,0,1,0,262.73,449.22Z" transform="translate(0 0.01)" style="fill:#231f20;opacity:0.4000000059604645;isolation:isolate"/><path d="M659,284.52a13.34,13.34,0,0,1-13.34,13.34h-0.59a13.34,13.34,0,0,1-13.34-13.34h0v-42.7a13.34,13.34,0,0,1,13.34-13.34h0.59A13.34,13.34,0,0,1,659,241.82h0v42.7h0Z" transform="translate(0 0.01)" style="fill:#f29e8f"/><path d="M636.48,282.45a36.86,36.86,0,0,0-10.38,2h0l-0.3-47.09V171a11.86,11.86,0,1,0-23.72,0v67.47l-4.74.2V154.95a12.45,12.45,0,0,0-24.91,0h0v84.7l-3.85.16V171.55a12.45,12.45,0,1,0-24.91,0v69.31l-4.76.2V189.34a12.45,12.45,0,0,0-24.91,0v86.58a12.59,12.59,0,0,0,.12,1.61,192.25,192.25,0,0,1-2,23.29c-3.56,21.35,23.54,46.85,28.58,52.78s5.62,26.68,5.62,26.68l68-.33,2.59-26.87c18.16-10.6,40.4-28.85,42.14-55.23v-15.4H636.48Z" transform="translate(0 0.01)" style="fill:#f29e8f"/><path d="M625.8,284.57s-27.87,8-40.92,47.1h-16.3S592.6,284.57,625.8,284.57Z" transform="translate(0 0.01)" style="fill:#cc9283"/><path d="M625.8,237.38L514,242.12S591,253.1,625.8,237.38Z" transform="translate(0 0.01)" style="fill:#cc9283"/><rect x="545.85" y="378.24" width="68.67" height="93.5" style="fill:#f29e8f"/><rect x="542.21" y="421.59" width="6.31" height="22.55" transform="translate(-15.86 20.77) rotate(-2.15)" style="fill:#352f31"/><path d="M546.67,417.82l25.93-1,1.11,29.46-25.93,1-1.11-29.46m-3.53.13,1.11,29.46a3.54,3.54,0,0,0,3.67,3.4l25.93-1a3.54,3.54,0,0,0,3.4-3.67l-1.11-29.46a3.54,3.54,0,0,0-3.67-3.4l-25.93,1a3.54,3.54,0,0,0-3.4,3.67h0Z" transform="translate(0 0.01)" style="fill:#030303"/><rect x="539.06" y="421.59" width="12.63" height="22.55" transform="translate(-15.86 20.77) rotate(-2.15)" style="fill:#423a3d"/><polygon points="609.1 447.15 607.84 413.52 625.01 409.71 626.91 447.87 609.1 447.15" style="fill:#423a3d"/><rect x="566.34" y="415.12" width="43.85" height="31.79" transform="translate(-15.76 22.38) rotate(-2.15)" style="fill:#423a3d"/><rect x="599.81" y="414.58" width="3.83" height="31.79" transform="translate(-15.73 22.88) rotate(-2.15)" style="fill:#231f20;opacity:0.699999988079071;isolation:isolate"/><circle cx="573" cy="431.45" r="4.46" style="fill:#1c1517"/><path d="M590.55,419l0.08,7.86H590.4l0.28,4.28v4.29H591l0.51,7.84s17.27-1.89,20.35-8.62l0.47-2.32-0.15-4L611.49,426C607.91,419.54,590.55,419,590.55,419Z" transform="translate(0 0.01)" style="fill:#1e0e15"/><path d="M531.08,446.77l62.47-2.35-1-26.81L530.08,420Zm54.29-15.7c0.1,2.54-.76,4.63-1.91,4.67s-2.16-2-2.25-4.51,0.76-4.63,1.91-4.67,2.16,2,2.26,4.5h0Zm-14.06.53c0.09,2.54-.76,4.63-1.91,4.67s-2.16-2-2.26-4.51,0.76-4.63,1.91-4.67,2.17,2,2.27,4.5h0Zm-14.06.53c0.09,2.54-.76,4.63-1.91,4.67s-2.16-2-2.25-4.51,0.76-4.63,1.91-4.67,2.16,2,2.25,4.5h0Zm-14.06.53c0.1,2.54-.76,4.63-1.91,4.67s-2.16-2-2.25-4.51,0.76-4.63,1.91-4.67,2.15,2,2.25,4.5h0Z" transform="translate(0 0.01)" style="fill:#423a3d"/><path d="M586,443.45l-0.91-24.32-42.93,1.61,0.91,24.32Zm-8-12.09c0.09,2.3-.78,4.2-1.92,4.24s-2.15-1.79-2.24-4.08,0.78-4.2,1.92-4.24,2.15,1.78,2.24,4.08h0Zm-32.29,1.21c-0.09-2.3.78-4.2,1.93-4.24s2.15,1.79,2.24,4.08-0.78,4.2-1.93,4.24S545.79,434.87,545.71,432.57Zm14.06-.53c-0.09-2.3.78-4.2,1.93-4.24s2.15,1.79,2.24,4.08-0.78,4.2-1.92,4.24-2.16-1.77-2.25-4.12v0Z" transform="translate(0 0.01)" style="fill:#231f20;opacity:0.10000000149011612;isolation:isolate"/><rect x="580.09" y="412.7" width="12.21" height="36.81" transform="translate(-15.76 22.3) rotate(-2.15)" style="fill:#352f31"/><rect x="555.73" y="429.85" width="15.06" height="3.9" transform="translate(-15.8 21.44) rotate(-2.15)" style="fill:#939598"/><rect x="265.05" y="384.71" width="6" height="28.5" style="fill:#cd8c78"/><rect x="283.05" y="384.71" width="6" height="28.5" style="fill:#cd8c78"/></svg>