<svg xmlns="http://www.w3.org/2000/svg" xmlns:xlink="http://www.w3.org/1999/xlink" viewBox="3290 4299 25.307 14"><defs><style>.a{fill:url(#a);}.b{fill:url(#b);}.c{fill:url(#c);}.d{fill:url(#d);}.e{fill:url(#e);}.f{fill:url(#f);}</style><linearGradient id="a" x1="0.016" y1="-0.015" x2="0.956" y2="1.04" gradientUnits="objectBoundingBox"><stop offset="0" stop-color="#eba211"/><stop offset="0.217" stop-color="#ec9b12"/><stop offset="0.533" stop-color="#ef8817"/><stop offset="0.909" stop-color="#f4681d"/><stop offset="1" stop-color="#f55f1f"/></linearGradient><linearGradient id="b" x1="1" y1="0.5" x2="0" y2="0.5" gradientUnits="objectBoundingBox"><stop offset="0" stop-color="#fc3"/><stop offset="1" stop-color="#fe991b"/></linearGradient><linearGradient id="c" y1="0.5" x2="1" y2="0.5" gradientUnits="objectBoundingBox"><stop offset="0" stop-color="#ff8321"/><stop offset="1" stop-color="#eba211"/></linearGradient><linearGradient id="d" x1="0.016" y1="-0.015" x2="0.956" y2="1.04" gradientUnits="objectBoundingBox"><stop offset="0" stop-color="#5e7cdd"/><stop offset="0.303" stop-color="#5b76d6"/><stop offset="0.742" stop-color="#5166c3"/><stop offset="1" stop-color="#4a5ab4"/></linearGradient><linearGradient id="e" x1="1" y1="0.5" x2="0" y2="0.5" gradientUnits="objectBoundingBox"><stop offset="0" stop-color="#5e83ff"/><stop offset="0.412" stop-color="#5e7cfb"/><stop offset="1" stop-color="#5f69f1"/></linearGradient><linearGradient id="f" y1="0.5" x2="1" y2="0.5" gradientUnits="objectBoundingBox"><stop offset="0" stop-color="#5e7cdd"/><stop offset="0.423" stop-color="#5b75de"/><stop offset="1" stop-color="#5263df"/></linearGradient></defs><g transform="translate(3289.363 4298.862)"><path class="a" d="M17.753,8.917l4.733,9.254H27.1L21.9,8.92Z" transform="translate(-7.863 -4.033)"/><path class="b" d="M31.127,14.137H26.509l6.828-14H37.83Z" transform="translate(-11.886)"/><path class="c" d="M26.509,22.3h4.618l-2.474-4.4Z" transform="translate(-11.886 -8.161)"/><path class="d" d="M.637,8.917l4.732,9.254H9.987L4.782,8.92Z" transform="translate(0 -4.033)"/><path class="e" d="M14.009,14.137H9.391l6.828-14h4.495Z" transform="translate(-4.022)"/><path class="f" d="M9.391,22.3h4.618l-2.474-4.4Z" transform="translate(-4.022 -8.161)"/></g></svg>