<svg xmlns="http://www.w3.org/2000/svg" viewBox="0 0 34 34"><path d="M24.51,22.82l-0.32,0H21a0.58,0.58,0,0,1-.38-0.14c-0.22-.18-0.45-0.36-0.65-0.56-0.53-.52-1-1.06-1.57-1.59-0.16-.16-0.34-0.32-0.51-0.47A0.43,0.43,0,0,0,17.6,20a0.36,0.36,0,0,0-.34.22,1.37,1.37,0,0,0-.12.41c0,0.25,0,.5,0,0.75a3.22,3.22,0,0,1-.09.84,1.67,1.67,0,0,1-.15.35,0.56,0.56,0,0,1-.5.29c-0.92,0-1.84,0-2.76,0a1.24,1.24,0,0,1-.48-0.14A7.78,7.78,0,0,1,10.86,21c-0.8-.85-1.52-1.76-2.25-2.67A28.32,28.32,0,0,1,6,14.42a11.53,11.53,0,0,1-.74-1.54,1.24,1.24,0,0,1,0-.8,0.83,0.83,0,0,1,.1-0.23,0.33,0.33,0,0,1,.28-0.16h3a0.61,0.61,0,0,1,.46.19,3.8,3.8,0,0,1,.58.8c0.18,0.31.36,0.63,0.52,0.95a15.27,15.27,0,0,0,1.23,2c0.22,0.31.46,0.62,0.69,0.92a0.51,0.51,0,0,0,.42.2,0.2,0.2,0,0,0,.24-0.23s0-.08,0-0.12q0-1.62,0-3.24a2.33,2.33,0,0,0,0-.25,0.35,0.35,0,0,0-.31-0.34l-0.26,0a0.4,0.4,0,0,1-.41-0.42,0.79,0.79,0,0,1,.54-0.87,1.4,1.4,0,0,1,.51-0.07h2.56c0.17,0,.35,0,0.52,0a2.82,2.82,0,0,1,.54.09,0.82,0.82,0,0,1,.63.75,2.41,2.41,0,0,1,0,.28q0,1,0,2t0,2.09a0.78,0.78,0,0,0,0,.2,0.3,0.3,0,0,0,.48.15,3.74,3.74,0,0,0,1.23-1.55c0.27-.56.5-1.14,0.74-1.71s0.41-.9.61-1.35a2.43,2.43,0,0,1,.19-0.31,0.3,0.3,0,0,1,.26-0.13h3.72a0.9,0.9,0,0,1,.73.35,0.59,0.59,0,0,1,.11.28,2,2,0,0,1-.33,1.32,7.38,7.38,0,0,1-.77,1.08,23.64,23.64,0,0,0-1.68,2.18c-0.13.2-.24,0.41-0.36,0.61a0.34,0.34,0,0,0,0,.42c0.23,0.27.44,0.55,0.68,0.8,0.56,0.61,1.13,1.21,1.69,1.82,0.18,0.2.34,0.41,0.51,0.61s0.1,0.15.15,0.22A1,1,0,0,1,24.51,22.82Z" style="fill:#ffffff"/></svg>