<svg xmlns="http://www.w3.org/2000/svg" viewBox="0 0 34 34"><path d="M15.38,23.45c-3.36.33-6.26-1.19-6.48-3.39s2.33-4.26,5.69-4.6,6.26,1.19,6.48,3.39-2.33,4.26-5.69,4.6m6.72-7.32C21.81,16,21.62,16,21.77,15.61a2.12,2.12,0,0,0,0-2c-0.66-.94-2.46-0.89-4.53,0,0,0-.65.28-0.48-0.23A2.32,2.32,0,0,0,16.54,11c-1.12-1.12-4.1,0-6.66,2.6-1.91,1.91-3,3.94-3,5.7,0,3.35,4.3,5.4,8.51,5.4,5.52,0,9.19-3.21,9.19-5.75a3.08,3.08,0,0,0-2.46-2.77" style="fill:#fff"/><path d="M25.76,10a5.37,5.37,0,0,0-5.11-1.66h0A0.78,0.78,0,1,0,21,9.85a3.82,3.82,0,0,1,4.43,4.91h0a0.78,0.78,0,0,0,1.48.48h0A5.37,5.37,0,0,0,25.76,10" style="fill:#fff"/><path d="M23.72,11.83A2.62,2.62,0,0,0,21.23,11a0.67,0.67,0,1,0,.28,1.31h0A1.28,1.28,0,0,1,23,14h0a0.67,0.67,0,1,0,1.27.41,2.62,2.62,0,0,0-.55-2.56" style="fill:#fff"/><path d="M15.56,19.46a0.49,0.49,0,0,1-.58.21,0.34,0.34,0,0,1-.15-0.5A0.48,0.48,0,0,1,15.4,19a0.34,0.34,0,0,1,.16.51m-1.07,1.37a1.27,1.27,0,0,1-1.55.51A0.89,0.89,0,0,1,12.6,20a1.28,1.28,0,0,1,1.51-.51,0.89,0.89,0,0,1,.38,1.35m1.22-3.67A3.66,3.66,0,0,0,11.61,19,2.49,2.49,0,0,0,13.2,22.5a3.62,3.62,0,0,0,4.33-1.84,2.5,2.5,0,0,0-1.82-3.5" style="fill:#fff"/></svg>