<svg xmlns="http://www.w3.org/2000/svg" viewBox="0 0 27.39 27.39"><circle cx="13.69" cy="13.7" r="13.69" style="fill:#fff"/><path d="M2.25,14A11.75,11.75,0,0,0,8.87,24.57L3.27,9.22A11.7,11.7,0,0,0,2.25,14Z" transform="translate(-0.31 -0.31)" style="fill:#4d4744"/><path d="M21.93,13.41a6.19,6.19,0,0,0-1-3.24,5.5,5.5,0,0,1-1.15-2.76,2,2,0,0,1,2-2.09h0.15A11.74,11.74,0,0,0,4.18,7.55H4.94c1.23,0,3.13-.15,3.13-0.15a0.49,0.49,0,0,1,.07,1S7.51,8.45,6.8,8.49l4.28,12.73,2.57-7.71-1.83-5c-0.63,0-1.23-.11-1.23-0.11a0.49,0.49,0,0,1,.07-1s1.94,0.15,3.09.15,3.13-.15,3.13-0.15a0.49,0.49,0,0,1,.07,1s-0.64.07-1.34,0.11l4.25,12.63L21,17.2A14.24,14.24,0,0,0,21.93,13.41Z" transform="translate(-0.31 -0.31)" style="fill:#4d4744"/><path d="M14.21,15L10.68,25.27a11.75,11.75,0,0,0,7.22-.19,1.18,1.18,0,0,1-.08-0.16Z" transform="translate(-0.31 -0.31)" style="fill:#4d4744"/><path d="M24.31,8.36a8.92,8.92,0,0,1,.08,1.21,11.08,11.08,0,0,1-.9,4.21L19.91,24.15A11.75,11.75,0,0,0,24.31,8.36Z" transform="translate(-0.31 -0.31)" style="fill:#4d4744"/><path d="M14,0.31A13.69,13.69,0,1,0,27.69,14,13.71,13.71,0,0,0,14,.31Zm0,26.76A13.07,13.07,0,1,1,27.07,14,13.08,13.08,0,0,1,14,27.07Z" transform="translate(-0.31 -0.31)" style="fill:#4d4744"/></svg>