<svg version="1.1" xmlns="http://www.w3.org/2000/svg" xmlns:xlink="http://www.w3.org/1999/xlink" x="0px" y="0px"
	 width="11px" height="7px" viewBox="0 0 11 7" enable-background="new 0 0 11 7" xml:space="preserve">
<g>
	<g>
		<path fill="#FFFFFF" d="M5.515,1.828c-0.873,0-1.587,0.731-1.589,1.631C3.922,4.358,4.631,5.091,5.504,5.091
			c0.203,0,0.398-0.042,0.577-0.114C5.626,4.959,5.264,4.574,5.266,4.101C5.267,3.615,5.65,3.223,6.121,3.223
			c0.466,0,0.842,0.386,0.848,0.864c0.08-0.194,0.125-0.405,0.125-0.628C7.098,2.56,6.389,1.828,5.515,1.828z M5.521,0
			C2.399,0,0.02,3.496,0.02,3.496s2.356,3.496,5.478,3.496C8.619,6.992,11,3.496,11,3.496S8.643,0,5.521,0z M5.501,5.934
			c-1.327,0-2.398-1.107-2.394-2.475c0.004-1.367,1.084-2.474,2.41-2.474c1.327,0,2.398,1.106,2.395,2.474
			C7.907,4.826,6.828,5.934,5.501,5.934z"/>
	</g>
</g>
</svg>
