<svg xmlns="http://www.w3.org/2000/svg" width="16.66" height="22.55" viewBox="0 0 16.66 22.55"><title>Безымянный-4</title><path d="M16.79,9.41a2.62,2.62,0,0,0-2.53-2.7H13.65a2.5,2.5,0,0,0-2.1-1.2H10.86A2.46,2.46,0,0,0,9,4.61H8.59V3A2.62,2.62,0,0,0,6.06.33H5.92A2.62,2.62,0,0,0,3.39,3V13.42H5.09V3a0.92,0.92,0,0,1,.82-1H6.06a0.92,0.92,0,0,1,.82,1V9.56H8.59V6.32H9a0.77,0.77,0,0,1,.6.31v3.54h1.71v-3h0.26a0.83,0.83,0,0,1,.72.52v3.45H14V8.42h0.29a0.92,0.92,0,0,1,.82,1A38.38,38.38,0,0,1,14.67,16a45.55,45.55,0,0,1-1.94,5.12H5.38C5,20.43,1.93,12.91,1.85,12.54a2.5,2.5,0,0,1,.51-0.59V9.75l-0.24.18C0.55,11.1-.05,12,0.18,12.87c0.11,0.53,4.29,10,4.29,10h9.38a66,66,0,0,0,2.49-6.47A41.7,41.7,0,0,0,16.79,9.41Z" transform="translate(-0.13 -0.33)" style="fill:#333"/></svg>