<svg xmlns="http://www.w3.org/2000/svg" width="19.44" height="22.69" viewBox="0 0 19.44 22.69"><path d="M18.88,15.25A2.67,2.67,0,0,0,19,11.49L18.56,11a2.54,2.54,0,0,0-.65-2.38l-0.5-.5a2.51,2.51,0,0,0-.71-2l-0.28-.28,1.14-1.14A2.67,2.67,0,0,0,17.68,1l-0.1-.1A2.67,2.67,0,0,0,13.81,1L6.32,8.48,7.55,9.71,15,2.23a0.94,0.94,0,0,1,1.3-.12l0.1,0.1a0.94,0.94,0,0,1-.12,1.3l-4.7,4.7,1.23,1.23,2.33-2.33L15.47,7.4a0.79,0.79,0,0,1,.21.66l-2.55,2.55,1.23,1.23L16.49,9.7l0.19,0.19a0.84,0.84,0,0,1,.15.89l-2.49,2.49,1.23,1.23,2-2,0.21,0.21A0.94,0.94,0,0,1,17.65,14a39.15,39.15,0,0,1-5.09,4.48,46.42,46.42,0,0,1-5.09,2.3l-5.3-5.3c0.28-.78,3.47-8.44,3.68-8.76a2.55,2.55,0,0,1,.8-0.06L8.23,5.1l-0.31,0c-2-.29-3.07-0.07-3.52.71C4.1,6.23.28,16.09,0.28,16.09L7,22.85A67.3,67.3,0,0,0,13.49,20,42.52,42.52,0,0,0,18.88,15.25Z" transform="translate(-0.28 -0.15)" style="fill:#fff"/></svg>