<?xml version="1.0" encoding="utf-8"?>
<!-- Generator: Adobe Illustrator 16.0.2, SVG Export Plug-In . SVG Version: 6.00 Build 0)  -->
<!DOCTYPE svg PUBLIC "-//W3C//DTD SVG 1.1//EN" "http://www.w3.org/Graphics/SVG/1.1/DTD/svg11.dtd">
<svg version="1.1" id="Слой_1" xmlns="http://www.w3.org/2000/svg" xmlns:xlink="http://www.w3.org/1999/xlink" x="0px" y="0px"
	 width="34px" height="30px" viewBox="0 2 34 30" enable-background="new 0 2 34 30" xml:space="preserve">
<path fill="#FFFFFF" d="M2.23,12.016h6.19V31.92H2.23V12.016z M5.325,2.12c1.979,0,3.586,1.606,3.586,3.585
	c0,1.98-1.607,3.589-3.586,3.589c-1.982,0-3.587-1.608-3.587-3.589C1.74,3.726,3.342,2.12,5.325,2.12"/>
<path fill="#FFFFFF" d="M12.298,12.016h5.938v2.719h0.083c0.823-1.564,2.843-3.216,5.851-3.216c6.263,0,7.417,4.121,7.417,9.485
	V31.92h-6.176v-9.681c0-2.309-0.046-5.278-3.219-5.278c-3.217,0-3.707,2.517-3.707,5.112v9.847h-6.187V12.016z"/>
</svg>
