<?xml version="1.0" encoding="utf-8"?>
<!-- Generator: Adobe Illustrator 16.0.2, SVG Export Plug-In . SVG Version: 6.00 Build 0)  -->
<!DOCTYPE svg PUBLIC "-//W3C//DTD SVG 1.1//EN" "http://www.w3.org/Graphics/SVG/1.1/DTD/svg11.dtd">
<svg version="1.1" id="Слой_1" xmlns="http://www.w3.org/2000/svg" xmlns:xlink="http://www.w3.org/1999/xlink" x="0px" y="0px"
	 width="34px" height="30px" viewBox="0 2 34 30" enable-background="new 0 2 34 30" xml:space="preserve">
<path fill="#FFFFFF" d="M32.571,26.682c-0.179,0.023-0.36,0.05-0.54,0.052c-1.767,0.004-3.537-0.002-5.303,0.004
	c-0.248,0.003-0.455-0.09-0.639-0.237c-0.37-0.301-0.749-0.598-1.09-0.932c-0.885-0.878-1.746-1.783-2.626-2.669
	c-0.271-0.275-0.565-0.528-0.853-0.792c-0.15-0.14-0.337-0.173-0.528-0.17c-0.259,0.01-0.473,0.124-0.574,0.363
	c-0.095,0.219-0.174,0.455-0.196,0.685c-0.044,0.422-0.044,0.843-0.055,1.263c-0.008,0.471-0.023,0.941-0.153,1.4
	c-0.06,0.203-0.145,0.405-0.249,0.588c-0.184,0.316-0.468,0.488-0.838,0.491c-1.542,0.039-3.088,0.059-4.629-0.041
	c-0.285-0.019-0.55-0.111-0.803-0.237c-1.439-0.707-2.703-1.645-3.801-2.816c-1.336-1.42-2.551-2.948-3.765-4.473
	c-1.633-2.059-3.045-4.259-4.315-6.555c-0.463-0.837-0.909-1.685-1.245-2.586C0.203,9.579,0.203,9.133,0.329,8.685
	c0.035-0.135,0.099-0.264,0.172-0.38c0.105-0.17,0.266-0.266,0.474-0.27c0.074-0.001,0.15-0.003,0.222-0.003
	c1.604,0,3.208,0.008,4.81-0.005C6.324,8.025,6.566,8.132,6.78,8.345C7.173,8.739,7.481,9.2,7.758,9.679
	c0.301,0.521,0.601,1.047,0.867,1.588c0.583,1.189,1.299,2.302,2.055,3.383c0.369,0.528,0.769,1.033,1.153,1.549
	c0.18,0.241,0.426,0.332,0.71,0.34c0.279,0.01,0.39-0.105,0.402-0.38c0.001-0.067,0.001-0.132,0.001-0.199
	c0-1.811,0-3.619-0.001-5.429c0-0.142,0-0.282-0.014-0.421c-0.032-0.323-0.203-0.513-0.523-0.574
	c-0.144-0.029-0.293-0.04-0.44-0.062c-0.451-0.059-0.638-0.25-0.685-0.702c-0.071-0.683,0.258-1.22,0.899-1.459
	c0.276-0.104,0.563-0.125,0.854-0.124c1.429,0.002,2.859,0,4.287,0c0.289,0,0.58-0.015,0.868,0.011
	c0.302,0.028,0.605,0.068,0.9,0.156c0.624,0.179,0.983,0.606,1.058,1.26c0.018,0.157,0.021,0.314,0.021,0.47
	c0.004,1.1,0.004,2.198,0.004,3.297c0,1.164,0,2.329,0.001,3.492c0,0.114,0.013,0.234,0.043,0.344
	c0.1,0.353,0.486,0.469,0.809,0.248c0.952-0.658,1.577-1.571,2.058-2.588c0.446-0.939,0.828-1.909,1.246-2.861
	c0.334-0.755,0.678-1.506,1.025-2.254c0.085-0.185,0.212-0.354,0.326-0.524c0.106-0.153,0.245-0.22,0.443-0.22
	c2.077,0.006,4.15,0.005,6.223,0.004c0.509,0,0.91,0.206,1.225,0.593c0.11,0.136,0.159,0.297,0.187,0.473
	c0.123,0.818-0.156,1.53-0.546,2.217c-0.373,0.647-0.81,1.246-1.29,1.814c-0.991,1.173-1.965,2.363-2.816,3.648
	c-0.219,0.329-0.405,0.68-0.605,1.021c-0.148,0.25-0.129,0.488,0.057,0.711c0.376,0.452,0.736,0.915,1.134,1.346
	c0.938,1.025,1.895,2.028,2.835,3.048c0.304,0.33,0.575,0.683,0.854,1.03c0.095,0.114,0.161,0.249,0.251,0.366
	C34.335,25.202,33.458,26.567,32.571,26.682z"/>
</svg>
