<svg xmlns="http://www.w3.org/2000/svg" width="32.24" height="31.04" viewBox="0 0 32.24 31.04"><title>Безымянный-2</title><path d="M16.44,30.34a0.75,0.75,0,0,1-.75-0.75V23.2a0.75,0.75,0,1,1,1.5,0v6.38A0.75,0.75,0,0,1,16.44,30.34Z" style="fill:#414042"/><path d="M7.49,15.18A7.5,7.5,0,0,1,0,7.69V1.47H7.12a0.75,0.75,0,1,1,0,1.5H1.5V7.69a6,6,0,0,0,6,6A0.75,0.75,0,0,1,7.49,15.18Z" style="fill:#414042"/><path d="M24.75,15.18a0.75,0.75,0,0,1,0-1.5,6,6,0,0,0,6-6V3H25.12a0.75,0.75,0,0,1,0-1.5h7.12V7.69A7.5,7.5,0,0,1,24.75,15.18Z" style="fill:#414042"/><path d="M26.39,0.75v12.5a10,10,0,0,1-10,10h0a10,10,0,0,1-9.95-10V0.75h19.9Z" style="fill:#f9d657"/><path d="M16.44,24a10.71,10.71,0,0,1-10.7-10.7V0h21.4V13.25A10.71,10.71,0,0,1,16.44,24ZM7.24,1.5V13.25a9.2,9.2,0,1,0,18.4,0V1.5H7.24Z" style="fill:#414042"/><path d="M20.81,20.39a0.75,0.75,0,0,1-.5-1.31,9.16,9.16,0,0,0,2.24-3,0.75,0.75,0,0,1,1.37.62,10.66,10.66,0,0,1-2.6,3.53A0.75,0.75,0,0,1,20.81,20.39Z" style="fill:#414042"/><path d="M24.09,13.76H24A0.75,0.75,0,0,1,23.35,13q0-.36,0-0.72V3.66a0.75,0.75,0,1,1,1.5,0v8.57c0,0.28,0,.56,0,0.84A0.75,0.75,0,0,1,24.09,13.76Z" style="fill:#414042"/><path d="M22.52,31H10.36a0.75,0.75,0,0,1,0-1.5H22.52A0.75,0.75,0,0,1,22.52,31Z" style="fill:#414042"/></svg>