<svg xmlns="http://www.w3.org/2000/svg" width="99.38" height="90.48" viewBox="0 0 99.38 90.48"><title>Безымянный-2</title><polygon points="42.44 68.51 22.78 68.51 12.54 35.9 32.2 35.9 42.44 68.51" style="fill:#b7bec0;stroke:#484f59;stroke-miterlimit:10;stroke-width:3px"/><polygon points="43.57 88.98 23.92 88.98 13.68 56.37 33.34 56.37 43.57 88.98" style="fill:#f7f8fc;stroke:#484f59;stroke-miterlimit:10;stroke-width:3px"/><polygon points="11.87 56.57 14.01 63.39 41.54 56.57 11.87 56.57" style="fill:#e5e8ec;stroke:#484f59;stroke-miterlimit:10;stroke-width:3px"/><polygon points="43.25 23.6 43.25 56.93 91.9 77.89 91.9 2.64 43.25 23.6" style="fill:#f7f8fc"/><polygon points="43.25 41.08 43.25 56.93 91.9 77.89 91.9 41.08 43.25 41.08" style="fill:#e5e8ec"/><rect x="1.5" y="26.23" width="8.2" height="28.06" style="fill:#f7f8fc;stroke:#484f59;stroke-miterlimit:10;stroke-width:3px"/><rect x="7.43" y="23.96" width="35.58" height="32.61" style="fill:#ff8f8f"/><rect x="7.43" y="39.29" width="35.58" height="17.28" style="fill:#f06a69"/><rect x="92" y="1.5" width="5.88" height="77.53" style="fill:#ff8f8f"/><rect x="92" y="36.17" width="5.88" height="42.86" style="fill:#f06a69"/><rect x="92" y="1.5" width="5.88" height="77.53" style="fill:none;stroke:#484f59;stroke-miterlimit:10;stroke-width:3px"/><polygon points="43.25 23.6 43.25 56.93 91.9 77.89 91.9 2.64 43.25 23.6" style="fill:none;stroke:#484f59;stroke-miterlimit:10;stroke-width:3px"/><rect x="7.43" y="23.96" width="35.58" height="32.61" style="fill:none;stroke:#484f59;stroke-miterlimit:10;stroke-width:3px"/></svg>