<svg xmlns="http://www.w3.org/2000/svg" width="28.59" height="28.92" viewBox="0 0 28.59 28.92"><path d="M12.76,19.77V16.16H9.31a2.14,2.14,0,1,0-4.29,0H0.75a12,12,0,0,0,12,12V24.05A2.14,2.14,0,0,1,12.76,19.77Z" style="fill:#45c1e3"/><path d="M12.76,8.26V4.15a12,12,0,0,0-12,12H5a2.14,2.14,0,1,1,4.29,0h3.45V12.55A2.14,2.14,0,0,0,12.76,8.26Z" style="fill:#aed467"/><path d="M20.54,16.16a2.14,2.14,0,0,1-4.29,0H12.76v3.61a2.14,2.14,0,0,0,0,4.29v4.11a12,12,0,0,0,12-12H20.54Z" style="fill:#f9d657"/><path d="M16.53,0.75V4.62a2,2,0,1,1,0,4v3.4h3.29a2,2,0,1,0,4,0h4A11.31,11.31,0,0,0,16.53.75Z" style="fill:#f1787b"/><path d="M13.51,28.92H12.76A12.77,12.77,0,0,1,0,16.16V15.41H4.37a2.89,2.89,0,0,1,5.59,0h3.55v5.11H12.76a1.39,1.39,0,0,0,0,2.79h0.75v5.61Zm-12-12A11.28,11.28,0,0,0,12,27.39V24.7a2.89,2.89,0,0,1,0-5.59V16.91H8.56V16.16a1.39,1.39,0,1,0-2.79,0v0.75H1.52Z" style="fill:#414042"/><path d="M13.51,16.91h-5V16.16a1.39,1.39,0,1,0-2.79,0v0.75H0V16.16A12.77,12.77,0,0,1,12.76,3.4h0.75V7.61a2.89,2.89,0,0,1,0,5.59v3.71ZM10,15.41h2V11.8h0.75a1.39,1.39,0,0,0,0-2.79H12V4.92A11.28,11.28,0,0,0,1.52,15.41H4.37A2.89,2.89,0,0,1,10,15.41Z" style="fill:#414042"/><path d="M12.76,28.92H12V24.7a2.89,2.89,0,0,1,0-5.59V15.41h5v0.75a1.39,1.39,0,0,0,2.79,0V15.41h5.73v0.75A12.77,12.77,0,0,1,12.76,28.92Zm0-8.4a1.39,1.39,0,0,0,0,2.79h0.75v4.09A11.28,11.28,0,0,0,24,16.91h-2.8a2.89,2.89,0,0,1-5.59,0H13.51v3.61H12.76Z" style="fill:#414042"/><path d="M21.84,14.83a2.77,2.77,0,0,1-2.66-2H15.78V7.91h0.75a1.27,1.27,0,1,0,0-2.54H15.78V0h0.75A12.07,12.07,0,0,1,28.59,12.06v0.75H24.5A2.77,2.77,0,0,1,21.84,14.83Zm-4.56-3.52h3.29v0.75a1.27,1.27,0,1,0,2.54,0V11.31h4a10.58,10.58,0,0,0-9.78-9.78V4a2.77,2.77,0,0,1,0,5.33v2Z" style="fill:#414042"/></svg>