<svg xmlns="http://www.w3.org/2000/svg" width="37.05" height="28.04" viewBox="0 0 37.05 28.04"><title>Безымянный-2</title><path d="M1.9,0.75A1.15,1.15,0,0,0,.75,1.9V14.13A1.15,1.15,0,0,0,1.9,15.28H2.7l0.78,1.29a0.6,0.6,0,0,0,1.1,0l0.89-1.32H20.8A1.15,1.15,0,0,0,22,14.13V1.9A1.15,1.15,0,0,0,20.8.75H1.9Z" style="fill:#f1787b"/><path d="M4,18.69c-0.48,0-.91-1.27-1.2-1.73L2.28,16H1.9A1.9,1.9,0,0,1,0,14.13V1.9A1.9,1.9,0,0,1,1.9,0H20.8a1.9,1.9,0,0,1,1.9,1.9V14.13A1.9,1.9,0,0,1,20.8,16H5.87L5.2,17C4.91,17.45,4.49,18.69,4,18.69ZM1.9,1.5a0.4,0.4,0,0,0-.4.4V14.13a0.4,0.4,0,0,0,.4.4H3.13L4,17l1-2.52H20.8a0.4,0.4,0,0,0,.4-0.4V1.9a0.4,0.4,0,0,0-.4-0.4H1.9Z" style="fill:#414042"/><path d="M35.15,10.1a1.15,1.15,0,0,1,1.15,1.15V23.48a1.15,1.15,0,0,1-1.15,1.15h-0.8l-0.78,1.29a0.6,0.6,0,0,1-1.1,0l-0.89-1.32H16.24a1.15,1.15,0,0,1-1.15-1.15V11.25a1.15,1.15,0,0,1,1.15-1.15h18.9Z" style="fill:#f9d657"/><path d="M33,28c-0.45,0-.88-1.24-1.17-1.67l-0.67-1H16.24a1.9,1.9,0,0,1-1.9-1.9V11.25a1.9,1.9,0,0,1,1.9-1.9h18.9a1.9,1.9,0,0,1,1.9,1.9V23.48a1.9,1.9,0,0,1-1.9,1.9H34.76l-0.56.93C33.92,26.77,33.49,28,33,28ZM16.24,10.85a0.4,0.4,0,0,0-.4.4V23.48a0.4,0.4,0,0,0,.4.4H32l1,2.52,0.92-2.52h1.23a0.4,0.4,0,0,0,.4-0.4V11.25a0.4,0.4,0,0,0-.4-0.4H16.24Z" style="fill:#414042"/><circle cx="9.21" cy="12.25" r="0.52" style="fill:#414042"/><circle cx="12.04" cy="12.25" r="0.52" style="fill:#414042"/><circle cx="14.86" cy="12.25" r="0.52" style="fill:#414042"/><circle cx="21.56" cy="12.91" r="0.52" style="fill:#414042"/><circle cx="24.39" cy="12.91" r="0.52" style="fill:#414042"/><circle cx="27.22" cy="12.91" r="0.52" style="fill:#414042"/></svg>