<svg xmlns="http://www.w3.org/2000/svg" width="26.66" height="37.89" viewBox="0 0 26.66 37.89"><path d="M13.33,37.89A13.33,13.33,0,1,1,26.66,24.56,13.34,13.34,0,0,1,13.33,37.89Zm0-25.16A11.83,11.83,0,1,0,25.16,24.56,11.84,11.84,0,0,0,13.33,12.74Z" style="fill:#414042"/><path d="M17.69,37.11A0.75,0.75,0,0,1,17.06,36a21.82,21.82,0,0,0,3-11.43,21.86,21.86,0,0,0-3-11.35,0.75,0.75,0,1,1,1.28-.79,23.37,23.37,0,0,1,3.18,12.14,23.32,23.32,0,0,1-3.24,12.23A0.75,0.75,0,0,1,17.69,37.11Z" style="fill:#414042"/><path d="M9.29,37.11a0.75,0.75,0,0,1-.64-0.35A23.3,23.3,0,0,1,5.41,24.53,23.37,23.37,0,0,1,8.59,12.39a0.75,0.75,0,1,1,1.28.79,21.87,21.87,0,0,0-3,11.35A21.79,21.79,0,0,0,9.92,36,0.75,0.75,0,0,1,9.29,37.11Z" style="fill:#414042"/><path d="M13.33,37.89a0.75,0.75,0,0,1-.75-0.75V12a0.75,0.75,0,1,1,1.5,0V37.14A0.75,0.75,0,0,1,13.33,37.89Z" style="fill:#414042"/><path d="M25.91,25.31H0.75a0.75,0.75,0,0,1,0-1.5H25.91A0.75,0.75,0,0,1,25.91,25.31Z" style="fill:#414042"/><path d="M24.41,19.34H2.69a0.75,0.75,0,0,1,0-1.5H24.41A0.75,0.75,0,0,1,24.41,19.34Z" style="fill:#414042"/><path d="M24.18,31.29H2.26a0.75,0.75,0,0,1,0-1.5H24.18A0.75,0.75,0,0,1,24.18,31.29Z" style="fill:#414042"/><circle cx="20.82" cy="24.62" r="1.42" style="fill:#f9d657"/><path d="M20.82,26.54a1.92,1.92,0,1,1,1.92-1.92A1.92,1.92,0,0,1,20.82,26.54Zm0-2.84a0.92,0.92,0,1,0,.92.92A0.92,0.92,0,0,0,20.82,23.7Z" style="fill:#414042"/><circle cx="6.16" cy="24.56" r="1.42" style="fill:#f9d657"/><path d="M6.16,26.49a1.92,1.92,0,1,1,1.92-1.92A1.93,1.93,0,0,1,6.16,26.49Zm0-2.84a0.92,0.92,0,1,0,.92.92A0.92,0.92,0,0,0,6.16,23.64Z" style="fill:#414042"/><circle cx="13.33" cy="30.54" r="1.42" style="fill:#f9d657"/><path d="M13.33,32.46a1.92,1.92,0,1,1,1.92-1.92A1.92,1.92,0,0,1,13.33,32.46Zm0-2.84a0.92,0.92,0,1,0,.92.92A0.92,0.92,0,0,0,13.33,29.62Z" style="fill:#414042"/><circle cx="13.33" cy="24.56" r="2.51" style="fill:#45c1e3"/><path d="M13.33,27.82a3.26,3.26,0,1,1,3.25-3.26A3.26,3.26,0,0,1,13.33,27.82Zm0-5a1.76,1.76,0,1,0,1.75,1.76A1.76,1.76,0,0,0,13.33,22.81Z" style="fill:#414042"/><path d="M13.33,0.75A8.3,8.3,0,0,0,5,9.05c0,4.58,8.3,14.71,8.3,14.71s8.3-10.13,8.3-14.71A8.3,8.3,0,0,0,13.33.75Zm0,11.26a3.13,3.13,0,1,1,3.13-3.13A3.13,3.13,0,0,1,13.33,12Z" style="fill:#f1787b"/><path d="M13.33,24.95l-0.58-.71C12.4,23.82,4.28,13.85,4.28,9.05a9.05,9.05,0,1,1,18.1,0c0,4.8-8.13,14.77-8.47,15.19Zm0-23.45A7.56,7.56,0,0,0,5.78,9.05c0,3.27,5,10.29,7.55,13.51,2.55-3.23,7.55-10.25,7.55-13.51A7.56,7.56,0,0,0,13.33,1.5Zm0,11.26a3.88,3.88,0,1,1,3.88-3.88A3.88,3.88,0,0,1,13.33,12.76Zm0-6.26a2.38,2.38,0,1,0,2.38,2.38A2.38,2.38,0,0,0,13.33,6.5Z" style="fill:#414042"/></svg>