<svg xmlns="http://www.w3.org/2000/svg" width="30.11" height="30.11" viewBox="0 0 30.11 30.11"><title>Безымянный-2</title><path d="M24.5,13.92A10.58,10.58,0,0,1,13.92,24.5V13.92H24.5Z" style="fill:#f1787b"/><path d="M13.92,25.25H13.17V13.17H25.25v0.75A11.35,11.35,0,0,1,13.92,25.25Zm0.75-10.58v9.06a9.85,9.85,0,0,0,9.06-9.06H14.67Z" style="fill:#414042"/><path d="M29.29,16.17H29.22a0.75,0.75,0,0,1-.67-0.82c0-.47.07-1,0.07-1.43a0.75,0.75,0,1,1,1.5,0c0,0.52,0,1.05-.08,1.57A0.75,0.75,0,0,1,29.29,16.17Z" style="fill:#414042"/><path d="M18.4,29.45A0.75,0.75,0,0,1,18.18,28a14.65,14.65,0,0,0,2.66-1.1,0.75,0.75,0,0,1,.71,1.32,16.11,16.11,0,0,1-2.94,1.22A0.75,0.75,0,0,1,18.4,29.45Zm5.32-2.85a0.75,0.75,0,0,1-.48-1.33,14.81,14.81,0,0,0,2-2,0.75,0.75,0,0,1,1.16,1,16.31,16.31,0,0,1-2.25,2.25A0.75,0.75,0,0,1,23.71,26.61Zm3.83-4.66a0.75,0.75,0,0,1-.66-1.1A14.65,14.65,0,0,0,28,18.17a0.75,0.75,0,0,1,1.44.43,16.1,16.1,0,0,1-1.22,2.94A0.75,0.75,0,0,1,27.54,21.94Z" style="fill:#414042"/><path d="M13.92,30.11a0.75,0.75,0,0,1,0-1.5c0.48,0,1,0,1.43-.07A0.75,0.75,0,0,1,15.49,30C15,30.09,14.44,30.11,13.92,30.11Z" style="fill:#414042"/><path d="M27.08,13.92A13.17,13.17,0,1,0,13.92,27.08V13.92H27.08Z" style="fill:#45c1e3"/><path d="M21.1,13.92a7.18,7.18,0,1,0-7.18,7.18V13.92H21.1Z" style="fill:#6acde9"/><path d="M14.67,27.83H13.92A13.92,13.92,0,1,1,27.83,13.92v0.75H14.67V27.83ZM13.92,1.5a12.42,12.42,0,0,0-.75,24.81V13.17H26.31A12.43,12.43,0,0,0,13.92,1.5Z" style="fill:#414042"/></svg>