<svg xmlns="http://www.w3.org/2000/svg" width="33.47" height="23.07" viewBox="0 0 33.47 23.07"><title>gp</title><path d="M30.82,15.34v-3h-3v3h-3v3h3v3h3v-3h3v-3h-3Z" transform="translate(-0.39 -5.32)" style="fill:#fff"/><path d="M11.93,15.21v4h6.55c-0.26,1.69-2,5-6.55,5a7.29,7.29,0,0,1,0-14.57,6.5,6.5,0,0,1,4.6,1.78l3.13-3a11.06,11.06,0,0,0-7.73-3,11.54,11.54,0,0,0,0,23.07C18.59,28.39,23,23.71,23,17.12a10.79,10.79,0,0,0-.18-1.91H11.93Z" transform="translate(-0.39 -5.32)" style="fill:#fff"/></svg>