<svg xmlns="http://www.w3.org/2000/svg" width="10.98" height="6.99" viewBox="0 0 10.98 6.99"><title>views</title><path d="M5.51,1.83A1.62,1.62,0,0,0,3.93,3.46,1.6,1.6,0,0,0,5.5,5.09,1.55,1.55,0,0,0,6.08,5,0.88,0.88,0,1,1,7,4.09a1.64,1.64,0,0,0,.13-0.63A1.6,1.6,0,0,0,5.51,1.83ZM5.52,0C2.4,0,0,3.5,0,3.5S2.38,7,5.5,7,11,3.5,11,3.5,8.64,0,5.52,0Zm0,5.93A2.43,2.43,0,0,1,3.11,3.46,2.45,2.45,0,0,1,5.52,1,2.43,2.43,0,0,1,7.91,3.46,2.45,2.45,0,0,1,5.5,5.93Z" transform="translate(-0.02)" style="fill:#fff"/></svg>