<svg xmlns="http://www.w3.org/2000/svg" width="33.65" height="19.58" viewBox="0 0 33.65 19.58"><title>vk</title><path d="M32.57,26.68a4.68,4.68,0,0,1-.54.05h-5.3a1,1,0,0,1-.64-0.24c-0.37-.3-0.75-0.6-1.09-0.93-0.89-.88-1.75-1.78-2.63-2.67-0.27-.27-0.57-0.53-0.85-0.79A0.72,0.72,0,0,0,21,21.94a0.61,0.61,0,0,0-.57.36,2.32,2.32,0,0,0-.2.68c0,0.42,0,.84-0.06,1.26a5.42,5.42,0,0,1-.15,1.4,2.82,2.82,0,0,1-.25.59,0.93,0.93,0,0,1-.84.49c-1.54,0-3.09.06-4.63,0a2.11,2.11,0,0,1-.8-0.24,13.06,13.06,0,0,1-3.8-2.82c-1.34-1.42-2.55-2.95-3.77-4.47a47.44,47.44,0,0,1-4.32-6.56A19.34,19.34,0,0,1,.37,10a2.09,2.09,0,0,1,0-1.33A1.37,1.37,0,0,1,.5,8.31,0.54,0.54,0,0,1,1,8H1.2C2.8,8,4.4,8,6,8a1,1,0,0,1,.77.32,6.37,6.37,0,0,1,1,1.33c0.3,0.52.6,1,.87,1.59a25.65,25.65,0,0,0,2.06,3.38c0.37,0.53.77,1,1.15,1.55a0.86,0.86,0,0,0,.71.34,0.33,0.33,0,0,0,.4-0.38c0-.07,0-0.13,0-0.2q0-2.72,0-5.43a4.2,4.2,0,0,0,0-.42,0.59,0.59,0,0,0-.52-0.57L12,9.47a0.67,0.67,0,0,1-.69-0.7,1.32,1.32,0,0,1,.9-1.46A2.36,2.36,0,0,1,13,7.19h4.29c0.29,0,.58,0,0.87,0a4.62,4.62,0,0,1,.9.16,1.38,1.38,0,0,1,1.06,1.26,4.12,4.12,0,0,1,0,.47q0,1.65,0,3.3t0,3.49a1.33,1.33,0,0,0,0,.34,0.5,0.5,0,0,0,.81.25,6.27,6.27,0,0,0,2.06-2.59c0.45-.94.83-1.91,1.25-2.86,0.33-.76.68-1.51,1-2.25a3.91,3.91,0,0,1,.33-0.52A0.49,0.49,0,0,1,26.13,8h6.22a1.51,1.51,0,0,1,1.22.59,1,1,0,0,1,.19.47,3.38,3.38,0,0,1-.55,2.22,12.44,12.44,0,0,1-1.29,1.81,39.53,39.53,0,0,0-2.82,3.65c-0.22.33-.41,0.68-0.6,1a0.57,0.57,0,0,0,.06.71c0.38,0.45.74,0.92,1.13,1.35,0.94,1,1.9,2,2.83,3,0.3,0.33.58,0.68,0.85,1,0.1,0.11.16,0.25,0.25,0.37A1.62,1.62,0,0,1,32.57,26.68Z" transform="translate(-0.24 -7.18)" style="fill:#fff"/></svg>