<svg version="1.1" xmlns="http://www.w3.org/2000/svg" x="0px" y="0px" width="100%" height="100%" viewBox="0 0 486 486" enable-background="new 0 0 486 486" xml:space="preserve">

<g id="age-female-3">

	<path fill="#D7B886" d="M327.823,277.383
		c0,0-2.164-7.34-3.508-10.741c-1.346-3.4-5.443-11.993-5.443-11.993l-3.043-10.92l-2.148-12.173l-0.716-15.753v-8.772l0.716-7.519
		l3.223-8.234v-3.939l0.357-7.697l1.433-11.278l4.117-12.351l6.981-12.353l6.266-5.548l6.624-3.581l5.549-0.538
		c0,0,2.577-5.506,5.854-6.601c3.276-1.095,10.079-2.706,10.079-2.706l9.846-0.18l11.636,2.506l9.666,4.834l9.667,8.056l7.876,10.74
		l4.476,10.92l2.327,9.488l2.506,11.814l1.611,10.025l1.433,17.364l1.611,12.71l-0.358,9.487l-2.327,12.353l-3.401,11.636
		l-4.834,15.573l-2.505,6.266l-1.611,4.655L327.823,277.383z"/>
	<path fill="#C19854" d="M330.508,189.666
		c0,0-8.272,4.139-8.593,3.76c-4.331-5.124-6.265,0.537-6.265,0.537l-1.97,6.444c0,0-0.962,13.255-0.895,14.142
		c0.066,0.888,0.763,17.41,0.895,17.901c0.133,0.491,3.401,16.29,3.401,16.29l8.772,21.661l2.863,4.833l84.136,5.55l5.191-14.681
		l2.864-9.486l3.043-11.636l1.611-9.846l0.896-8.235l-5.55-7.161l-6.803-6.623l-4.441-5.55l-4.509-6.444L330.508,189.666z"/>
	<path fill="#C19854" d="M421.268,206.314
		c2.281,5.823-10.704,2.623-20.407-13.426c5.477,13.137,11.814,18.797,11.814,18.797l13.963,17.006c0,0,0.888-10.1-1.969-18.08
		c0.229-5.691-0.703-12.201-1.074-13.964c-0.758,9.921-6.631-2.619-8.234-5.906C414.998,190,417.177,200.15,421.268,206.314"/>
	<path fill="#C19854" d="M320.032,185.672
		c2.577,2.66,2.693,5.822,16.384,0.594c13.399-4.325-4.834,6.802-4.834,6.802l-13.783,4.296l-1.074-5.728
		c0,0,0.363-9.792,1.026-16.545c3.8,2.185,10.069,4.572,15.8,1.149C335.321,175.184,320.528,184.267,320.032,185.672"/>
	<path fill="#C19854" d="M335.7,138.469
		c10.147-2.326,9.332,10.02,11.829,13.824c3.128,4.766,3.65,15.733,0.701,20.905c2.401-3.122,40.324,1.88,44.573,2.148
		c-8.007-21.882-26.114-16.247-33.296-23.093c-8.035-7.661-9.812-20.097-2.147-25.956c-1.645,0.246-7.472,2.239-8.749,8.135
		C342.823,132.83,336.89,137.103,335.7,138.469"/>
	<path fill="#F0D8C0" d="M344.829,241.76l-3.58-6.266
		l-4.476-7.877l-3.223-11.635l-1.969-8.056l-1.79-11.457l-0.895-5.728l7.876-3.759l9.667-9.846l3.938-5.729l2.148-4.117l3.58-11.456
		l4.117,2.863l9.666,2.149l7.877,1.611l5.012,2.864l4.654,3.939l3.938,5.19l3.938,6.446l2.686,5.549l3.043,7.16l2.686,4.117
		l3.938,6.087l-1.969,9.308l-2.506,9.666l-2.686,6.624l-1.969,3.939L396.205,238l-2.685,3.939l0.716,7.16l2.686,11.814l2.327,5.371
		l-0.179,4.833l-4.476,23.451c0,0-0.705,7.149-1.433,7.876c-10.383,7.574-36.138,8.234-48.333-0.179
		c-1.091-1.454-4.833-26.494-4.833-26.494l-1.074-9.13l3.043-6.981l2.148-7.519L344.829,241.76z"/>
	<path fill="#D7B99A" d="M411.063,207.747
		c0,0-2.74,4.826-5.825,5.831c-0.515,2.707-0.978,5.09-0.978,5.09l-2.685,8.591l-3.401,6.266c0,0-1.965,5.711-5.064,9.201
		c0.683,3.25,3.927,18.588,5.163,22.254c0.165,0.166,0.26,0.261,0.26,0.261l1.253,1.76l-2.864,18.631l-3.222,17.351
		c-0.267,0.317-6.667,2.614-10.741,3.759c3.15-2.13,7.419-11.145,9.486-20.215c2.03-8.898,3.408-23.948-0.314-27.224
		c-1.766-1.171-3.541-1.534-5.412-0.179c-3.752,2.718-5.097,3.127-7.698,4.654c-2.629,1.545-4.138,3.401-9.846,3.401
		s-7.216-1.856-9.846-3.401c-2.602-1.527-3.946-1.937-7.697-4.654c-1.872-1.355-3.647-0.992-5.413,0.179
		c-3.723,3.275-2.344,18.325-0.315,27.224c2.068,9.07,6.337,18.085,9.487,20.215c-4.074-1.145-10.475-3.441-10.74-3.759
		l-3.223-17.351l-2.685-18.452l1.073-1.938c0,0,0.095-0.095,0.26-0.261c1.228-3.641,4.435-18.787,5.148-22.183
		c-2.684-3.545-4.691-8.198-4.691-8.198l-3.938-7.876l-2.864-8.951c0,0-0.58-2.993-1.141-5.979
		c-0.031,0.406-0.067,0.791-0.112,1.145c-7.672-4.243-8.849-17.031-8.772-20.049c5.881-2.321,14.298-5.443,20.767-13.068
		c9.011-10.623,10.665-20.547,11.636-23.808c13.683,9.971,28.382-3.375,41.637,31.991c0.747,0.915,1.504,2.005,2.221,3.274
		c0.862,2.405,2.271,4.935,3.824,7.294c-0.028-0.156-0.058-0.313-0.088-0.475c1.098,2.14,2.376,3.262,3.494,5.166
		C408.771,205.252,410.199,206.85,411.063,207.747 M398.32,194.578c-2.465-2.315-3.955-3.974-7.485-4.912
		c-0.097-0.025-0.181-0.049-0.25-0.074c-1.396,0.104-3.101,0.378-5.299,0.97c-0.782,0.211-3.926,2.228-8.234,3.76
		c-0.106,0.037-0.207,0.065-0.31,0.096c-0.994,1.419-1.553,3.183-1.66,6.705c-0.186,6.132,3.13,11.713,1.611,14.322
		c-0.714,1.226-2.691,0.746-3.401-2.327c-0.693-3.004-2.022-6.208-2.506-11.636c-0.483-5.428,1.089-9.779,3.401-12.353
		c0.15-0.166,0.324-0.297,0.515-0.392c0.807-0.842,1.89-1.596,3.243-2.114c2.625-1.003,6.388-2.454,9.847-3.043
		c2.059-0.35,3.854-0.321,5.611-0.049c-0.021-0.043-0.04-0.086-0.062-0.129c-3.41-6.715-7.123-9.926-12.353-14.142
		c-5.225-4.215-16.154-3.931-22.734-7.161c-2.604,8.85-8.514,16.962-16.648,21.661c-0.667,0.385-1.271,0.858-1.825,1.398
		c1.208-0.23,2.776-0.526,4.869-1.219c3.295-1.093,11.183,0.928,13.783,2.147c2.602,1.221,0.645,0.118,3.939,2.507
		c3.713,2.692-1.439,3.513-3.223,3.222c-1.783-0.29-5.705-2.399-8.234-2.149c-2.531,0.252-4.249,0.556-5.013,1.076
		c-2.33,1.582-6.729,2.163-8.413,0.357c-0.344-0.368-0.623-0.715-0.85-1.041c-1.038,2.478-1.704,5.301-2.201,8.032
		c0.011,0.003,0.02,0.004,0.03,0.007c-0.894,4.739-0.854,6.176-0.715,8.052c0.51,6.908,7.388,14.21,9.284,17.888
		c5.675,11.01,3.048,17.673,8.234,22.377c0.42,0.38,0.9,0.607,1.254,0.537c0.784-0.158,0.94-0.813,1.61-0.896
		c1.058-0.133,0.72,1.643,4.654,4.833c1.584,1.284,3.769,2.796,8.235,3.76c0.572,0.123,1.161-0.122,1.909-0.169
		c0.02-0.005,0.037-0.011,0.06-0.011c0.03,0,0.06,0.003,0.09,0.004c0.03-0.001,0.058-0.004,0.089-0.004
		c0.029,0,0.056,0.005,0.081,0.012c0.738,0.051,1.32,0.29,1.888,0.168c4.466-0.964,6.651-2.476,8.235-3.76
		c3.934-3.19,3.596-4.966,4.654-4.833c0.67,0.083,0.826,0.737,1.611,0.896c0.353,0.07,0.833-0.157,1.253-0.537
		c5.187-4.705,2.56-11.367,8.234-22.377c1.863-3.616,8.537-10.733,9.248-17.535c-0.61-1.9-1.373-4.032-2.088-5.736
		C401.678,199.3,399.849,196.87,398.32,194.578 M369.175,243.37c-8.367,0-12.902-4.603-7.519-4.295
		c6.888,0.391,8.193,0.439,15.037,0C381.992,238.734,377.542,243.37,369.175,243.37 M369.175,226.723
		c-5.133,0-6.087-4.834-6.087-4.834h12.174C375.262,221.889,374.308,226.723,369.175,226.723"/>
	<path fill="#512410" d="M351.273,189.773
		c2.313,0,4.189,1.876,4.189,4.189c0,2.314-1.877,4.19-4.189,4.19c-2.313,0-4.189-1.876-4.189-4.19
		C347.084,191.649,348.96,189.773,351.273,189.773"/>
	<path fill="#512410" d="M360.583,195.037c-0.217,0-0.435-0.078-0.606-0.237
		c-3.969-3.649-10.745-5.827-17.867-0.992c-0.409,0.278-0.966,0.171-1.243-0.238c-0.277-0.409-0.171-0.965,0.237-1.243
		c7.987-5.422,15.612-2.959,20.084,1.156c0.364,0.334,0.389,0.901,0.054,1.265C361.065,194.939,360.824,195.037,360.583,195.037"/>
	<path fill="#512410" d="M387.076,189.773
		c-2.313,0-4.188,1.876-4.188,4.189c0,2.314,1.875,4.19,4.188,4.19c2.313,0,4.189-1.876,4.189-4.19
		C391.266,191.649,389.39,189.773,387.076,189.773"/>
	<path fill="#512410" d="M377.768,195.037c-0.241,0-0.482-0.098-0.658-0.289
		c-0.335-0.364-0.312-0.931,0.052-1.265c4.473-4.114,12.097-6.579,20.085-1.156c0.408,0.278,0.515,0.834,0.237,1.243
		c-0.278,0.409-0.836,0.516-1.243,0.238c-7.122-4.835-13.898-2.658-17.866,0.992C378.202,194.959,377.984,195.037,377.768,195.037"
		/>
	
		<path fill="none" stroke="#5F2C12" stroke-width="1.79" stroke-linecap="round" stroke-linejoin="round" stroke-miterlimit="10" d="
		M338.743,266.642c3.731-6.194,5.586-17.5,5.729-22.197c0.029-1.031,0.056-1.895,0.078-2.615"/>
	
		<path fill="none" stroke="#5F2C12" stroke-width="1.79" stroke-linecap="round" stroke-linejoin="round" stroke-miterlimit="10" d="
		M399.607,266.642c-3.732-6.194-5.587-17.5-5.729-22.197c-0.03-1.031-0.057-1.895-0.078-2.615"/>
	
		<path fill="none" stroke="#5F2C12" stroke-width="1.79" stroke-linecap="round" stroke-linejoin="round" stroke-miterlimit="10" d="
		M407.395,203.507c-1.85,11.208-4.37,21.943-7.787,27.69c-3.271,5.503-3.521,8.539-8.056,13.248c-3.459,3.593-6.33,5.25-8.772,5.907
		c-2.508,1.743-8.052,5.729-13.604,5.729s-11.096-3.985-13.604-5.729c-2.442-0.657-5.313-2.314-8.772-5.907
		c-4.534-4.708-4.783-7.745-8.055-13.248c-4.725-7.945-7.734-25.421-9.628-40.501"/>
	
		<path fill="none" stroke="#5F2C12" stroke-width="1.79" stroke-linecap="round" stroke-linejoin="round" stroke-miterlimit="10" d="
		M323.819,193.131c-0.034,6.46,2.304,15.369,8.121,20.165"/>
	
		<path fill="none" stroke="#5F2C12" stroke-width="1.79" stroke-linecap="round" stroke-linejoin="round" stroke-miterlimit="10" d="
		M410.92,207.72c-1.179,2.132-2.671,4.06-4.511,5.576"/>
	
		<path fill="none" stroke="#5F2C12" stroke-width="1.79" stroke-linecap="round" stroke-linejoin="round" stroke-miterlimit="10" d="
		M383.675,234.369c-3.782,1.277-11.771,1.434-14.321,1.482h-0.357c-2.551-0.048-10.5-0.321-14.321-1.482"/>
	
		<path fill="none" stroke="#5F2C12" stroke-width="1.79" stroke-linecap="round" stroke-linejoin="round" stroke-miterlimit="10" d="
		M363.805,221.531c0,0,2.674,1.252,5.354,1.252c2.691,0,5.387-1.252,5.387-1.252"/>
	<path fill="#5D2B13" d="M347.336,237.758c-0.423,0-0.799-0.301-0.879-0.73
		c-0.296-1.585-0.358-3.175-0.189-4.86c0.271-2.735,1.93-4.706,2-4.788c0.319-0.376,0.886-0.421,1.262-0.1
		c0.375,0.321,0.42,0.886,0.1,1.261c-0.012,0.015-1.365,1.642-1.581,3.805c-0.15,1.514-0.095,2.937,0.169,4.352
		c0.091,0.487-0.229,0.954-0.716,1.044C347.445,237.753,347.391,237.758,347.336,237.758"/>
	<path fill="#5D2B13" d="M391.017,237.758c-0.055,0-0.109-0.005-0.166-0.016
		c-0.485-0.09-0.806-0.557-0.715-1.044c0.264-1.415,0.319-2.837,0.169-4.352c-0.216-2.163-1.569-3.79-1.582-3.806
		c-0.318-0.378-0.272-0.942,0.104-1.261s0.939-0.276,1.259,0.101c0.071,0.082,1.729,2.053,2,4.788
		c0.168,1.686,0.105,3.276-0.189,4.86C391.814,237.457,391.438,237.758,391.017,237.758"/>
	
		<path fill="none" stroke="#B28439" stroke-width="1.79" stroke-linecap="round" stroke-linejoin="round" stroke-miterlimit="10" d="
		M349.662,142.407c0.235,8.802,7.749,14.57,8.139,14.821c10.967,7.056,25.182-3.672,39.479,28.322
		c14.593,32.657,28.104,27.613,29.178,44.753c1.092-7.289-0.162-16.818-2.863-20.946c-6.287-9.605-7.364-13.814-8.413-19.154
		 M355.748,155.654c-1.063,10.861-9.854,24.896-19.153,31.149c-9.704,6.524-21.96,4.452-23.987,27.567
		c-0.181-24.765,9.039-29.669,12.173-32.222c3.327-2.712,6.839-4.304,10.259-7.223 M339.311,170.326
		c1.995-2.711,3.914-6.287,5.697-11.271"/>
	
		<path fill="none" stroke="#B28439" stroke-width="1.79" stroke-linecap="round" stroke-linejoin="round" stroke-miterlimit="10" d="
		M337.669,151.716c-1.754,4.478-4.104,8.433-6.803,11.994"/>
	
		<path fill="none" stroke="#B28439" stroke-width="1.79" stroke-linecap="round" stroke-linejoin="round" stroke-miterlimit="10" d="
		M425.176,212.677c-0.59-15.313-2.707-37.537-9.637-56.128c-3.874-10.394-17.258-32.209-46.339-32.222h-0.025
		c-8.816,0-19.266,2.224-20.407,10.204c-8.055-2.692-17.974,7.37-21.303,12.889c-7.546,12.507-11.052,26.003-10.575,43.493
		 M312.607,214.37c0.14,11.195,1.895,23.678,2.631,26.945c2.528,11.204,6.838,21.277,11.437,29.979"/>
	
		<path fill="none" stroke="#B28439" stroke-width="1.79" stroke-linecap="round" stroke-linejoin="round" stroke-miterlimit="10" d="
		M413.57,278.457c5.69-16.504,9.715-25.585,12.889-48.154"/>
	
		<path fill="none" stroke="#B28439" stroke-width="1.79" stroke-linecap="round" stroke-linejoin="round" stroke-miterlimit="10" d="
		M367.385,139.006c13.144,0.563,25.957,3.938,37.414,22.734"/>
	
		<path fill="none" stroke="#B28439" stroke-width="1.79" stroke-linecap="round" stroke-linejoin="round" stroke-miterlimit="10" d="
		M385.286,155.834c8.099,3.857,14.858,13.962,19.154,25.598"/>
	
		<path fill="none" stroke="#B28439" stroke-width="1.79" stroke-linecap="round" stroke-linejoin="round" stroke-miterlimit="10" d="
		M409.095,170.87c1.771,4.084,3.084,7.829,4.135,11.511"/>
	
		<path fill="none" stroke="#B28439" stroke-width="1.79" stroke-linecap="round" stroke-linejoin="round" stroke-miterlimit="10" d="
		M359.688,186.444c-4.862-1.65-9.778-4.038-15.216-2.685c-3.238,0.805-4.27,1.126-6.042,1.645"/>
	
		<path fill="none" stroke="#B28439" stroke-width="1.79" stroke-linecap="round" stroke-linejoin="round" stroke-miterlimit="10" d="
		M378.663,186.444c4.861-1.65,9.777-4.038,15.216-2.685c1.154,0.288,2.028,0.513,2.756,0.707"/>
</g>

<g id="age-male-3">
		<path fill="#F2DAC2" d="M201.294,243.296l-9.899-13.8
			l-5.101-9.3l-3.6-21.601l-2.4-11.699l-3-24.9l2.101-2.7l2.099-15.6l1.8-16.2l10.2-24.6l9.3,6.6l18-2.1l6.3,2.699l16.5,3
			l10.5-1.799l13.201-2.701l19.501-3.599l8.102,3.3l3.3,4.799l3.3,10.201l5.1,24l0.9,12.9l1.8,7.8l-3.3,22.5l-4.2,17.099
			l-2.1,13.201l-3,7.5l-5.701,7.799l-5.4,6.9l-0.3,8.4l4.5,19.801l-10.2,23.1l-4.8,4.799c0,0-12.43,1.556-19.501,7.5
			c-7.072,5.947-11.082,15.883-12.301,17.102c-4.48-7.82-7.907-15.365-15.3-18.9c-9.276-4.436-18.9-7.201-18.9-7.201l-8.399-16.199
			l-2.701-12.301l3.6-12.6V243.296z"/>
		<path fill="#F2DAC2" d="M314.097,148.795l-3,7.8
			c0,0-1.155,3.355-1.8,6.6c-1.807,9.099-4.2,34.201-4.2,34.201l8.4-4.5l4.201-17.401l1.2-14.7l-0.9-9L314.097,148.795z"/>
		<polygon fill="#F2DAC2" points="178.494,163.795 
			176.394,155.695 173.694,149.095 170.394,146.996 168.294,152.396 167.394,159.295 168.594,176.695 172.794,192.295 
			182.094,197.996 		"/>
		<path fill="#D7B99A" d="M289.196,269.396l0.599,3.301
			l-1.199,6.897l-11.399,18.603c0,0-0.058,0.014-0.166,0.043c-0.17,1.17-1.794,2.576-4.635,3.256l-17.701,11.099l-11.4,12.302
			l-11.399-12.302l-17.7-11.099c-2.841-0.68-4.465-2.086-4.635-3.256c-0.108-0.029-0.165-0.043-0.165-0.043l-11.4-18.603l-1.2-6.897
			l0.6-3.301c2.191-5.996,4.8-29.1,4.8-29.1l9.3,10.5c0,0,9.181,8.932,11.4,10.199c2.218,1.267,13.199,7.201,13.199,7.201
			l7.201,0.553l7.2-0.553c0,0,10.982-5.935,13.201-7.201c2.218-1.268,11.4-10.199,11.4-10.199l9.301-10.5
			C284.396,240.295,287.004,263.399,289.196,269.396 M282.315,271.823c-0.06-0.336-0.091-0.639-0.109-0.922
			c-0.07-0.17-0.141-0.367-0.21-0.605c-1.061-3.646-3.564-4.871-6-3.9c-2.531,0.744-4.011,1.947-6.001,3.6
			c-2.119,1.76-3.765,4.566-5.701,6.301c-7.41,5.986-21,5.4-21,5.4v-0.02v0.02c0,0-13.588,0.586-21-5.4
			c-1.935-1.734-3.582-4.541-5.701-6.301c-1.99-1.652-3.469-2.855-6-3.6c-2.435-0.971-4.939,0.254-6,3.9
			c-0.068,0.238-0.138,0.436-0.21,0.605c-0.018,0.283-0.049,0.586-0.108,0.922c-0.849,4.834,2.06,16.262,7.937,24.65
			c23.011,4.225,31.082,20.021,31.082,20.021s8.071-15.797,31.083-20.021C280.254,288.085,283.164,276.657,282.315,271.823"/>
		<path fill="#D7B99A" d="M168.294,170.396
			c2.83,9.707,9.995,15.568,11.101,21.6c1.104,6.031,1.986,3.808-0.601,3.299c-8.734-1.716-9.899-20.399-9.899-20.399
			S165.464,160.687,168.294,170.396"/>
		<path fill="#D7B99A" d="M225.294,147.295
			c-4.358-2.045-17.576-5.431-23.1-3.6s-8.874,2.012-11.1,2.701c-2.225,0.687-6.49,3.31-0.9,9.299
			c2.825,3.027,10.195,2.052,14.1-0.6c1.28-0.869,4.158-1.379,8.4-1.8s10.812,3.112,13.8,3.601c2.988,0.487,11.623-0.89,5.401-5.401
			C226.373,147.492,229.652,149.34,225.294,147.295"/>
		<path fill="#D7B99A" d="M274.495,143.095
			c-5.797,0.987-12.483,3.516-16.8,5.4c-9.228,4.028-11,16.081-1.2,12.6c7.221-2.564,13.043-6.907,14.4-6.899
			c3.428,0.018,12.25-3.691,14.4-2.401c2.151,1.29,9.914-1.52,12.602-4.8C288.923,144.099,283.071,141.635,274.495,143.095"/>
		<path fill="#D7B99A" d="M305.697,151.496
			c-11.462-53.761-27.575-35.734-40.502-33c-12.531,2.651-26.287,4.596-44.701,2.7c-16.963-1.746-24.045-8.135-29.401,5.1
			c-2.757,6.817-9.899,23.1-9.899,23.1s-4.379-17.093,13.5-45c2.729,1.559,7.784,4.875,22.2,8.7
			c11.069,2.002,32.027-0.621,39.001-2.1c7.01-1.486,30.53-12.354,39.002-2.1C298.092,113.022,308.112,139.775,305.697,151.496"/>
		<path fill="#D7B99A" d="M230.694,234.595
			c11.542,0.656,13.729,0.737,25.201,0c8.88-0.57,1.422,7.201-12.602,7.201C229.271,241.796,221.672,234.082,230.694,234.595"/>
		<path fill="#D7B99A" d="M318.083,170.451
			c-2.807,9.672-9.912,15.511-11.008,21.52c-1.097,6.007-1.97,3.775,0.595,3.269c8.662-1.711,9.817-20.324,9.817-20.324
			S320.889,160.779,318.083,170.451"/>
		<path fill="#D7B99A" d="M303.897,200.396l-4.2,22.8
			c0,0-12.055,14.478-17.59,20.522c-0.705,3.461-1.842,7.576-2.605,9.965c-1.944,6.086-25.708,17.214-25.708,17.214
			s-8.101,2.089-10.5-1.993c-2.399,4.082-10.5,1.993-10.5,1.993s-23.76-11.128-25.706-17.214c-0.763-2.389-1.9-6.504-2.604-9.965
			c-5.536-6.044-17.589-20.522-17.589-20.522l-4.2-22.8c0,0-4.512-28.203-3.601-27c7.913,8.903,6.694,27.889,13.5,42.6
			c2.931,6.332,9.842,17.138,14.518,24.898c0.06,0.1,0.12,0.197,0.182,0.302c0.113,0.188,0.221,0.367,0.328,0.547
			c0.017,0.028,0.034,0.057,0.05,0.086c1.869,3.131,2.764,4.676,3.523,5.067c1.036,0.534,1.733-0.081,2.7-0.302
			c1.445-0.328,2.479,1.652,3.3,2.701c0.513,0.654,4.638,8.043,8.399,10.799c4.444,1.717,10.043,2.4,17.701,2.4
			s13.259-0.684,17.701-2.4c3.763-2.756,7.887-10.145,8.4-10.799c0.82-1.049,1.854-3.029,3.3-2.701
			c0.967,0.221,1.664,0.836,2.701,0.302c0.759-0.392,1.653-1.937,3.522-5.067c0.017-0.029,0.033-0.058,0.051-0.086
			c0.105-0.18,0.214-0.359,0.326-0.547c0.063-0.105,0.123-0.202,0.183-0.302c4.677-7.76,11.587-18.566,14.518-24.898
			c6.808-14.711,5.59-33.697,13.501-42.6C308.408,172.193,303.897,200.396,303.897,200.396"/>
		<path fill="#D7B99A" d="M253.494,207.595h-20.4
			c0,0,1.598,8.101,10.2,8.101C251.896,215.696,253.494,207.595,253.494,207.595"/>
		<path fill="#D7B99A" d="M251.694,152.696
			c-3.876,4.313-6.51,11.604-5.7,20.7c0.81,9.096,3.037,14.465,4.2,19.5c1.188,5.15,4.504,5.955,5.701,3.9
			c2.544-4.372-3.014-13.724-2.701-24c0.206-6.811,1.421-9.699,3.601-12.3C262.149,154.105,254.484,149.59,251.694,152.696"/>
		<path fill="#D7B99A" d="M308.397,168.595
			c4.95-0.855,7.966-4.615,9.601-8.1c1.635-3.484,0-9.599,0-9.599l-4.201,9.3C313.797,160.196,303.446,169.45,308.397,168.595"/>
		<path fill="#D7B99A" d="M178.049,168.54
			c-4.967-0.853-7.99-4.601-9.631-8.074c-1.64-3.474,0-9.57,0-9.57l4.214,9.27C172.632,160.166,183.016,169.393,178.049,168.54"/>
		<g opacity="0.2" clip-path="url(#SVGID_4_)">
				<path fill="#454141" d="M305.899,162.4
					c-1.282,10.631-5.371,38.352-10.8,50.4c-1.463,3.244-2.403,6.249-7.8,13.5c-1.97,2.646-6.491,3.326-8.101,0.6
					c-2.184-3.698-4.075-7.914-9-10.5c-4.186-2.198-11.859-2.281-18.6-0.6c-1.854,0.462-4.946,1.165-8.4,1.165
					s-6.546-0.703-8.399-1.165c-6.742-1.681-14.415-1.598-18.601,0.6c-4.925,2.586-6.816,6.802-9,10.5
					c-1.609,2.726-6.131,2.046-8.1-0.6c-5.397-7.251-6.338-10.256-7.799-13.5c-5.43-12.048-9.518-39.769-10.801-50.4
					c-1.219-0.18-3.01,2.327-2.699,5.4c1.703,16.845,6.851,48.827,9,53.1c7.072,9.958,15.899,21.265,32.099,36h0.231
					c1.054,2.234,2.182,4.363,3.069,5.399c7.411,5.986,21,5.4,21,5.4s13.589,0.586,21-5.4c0.887-1.036,2.015-3.165,3.07-5.399h0.229
					c16.2-14.735,25.027-26.042,32.101-36c2.148-4.273,7.296-36.255,9-53.1C308.91,164.727,307.118,162.22,305.899,162.4
					 M264.199,241.9c-9.822,2.071-11.028-6.6-21-6.6c-9.971,0-11.177,8.671-21,6.6c-6.171-1.301-10.923-8.205-6.899-15.6
					c2.954-5.431,7.413-1.216,27.899-0.6c20.486-0.616,24.946-4.831,27.9,0.6C275.122,233.695,270.37,240.599,264.199,241.9"/>
			
		</g>
		<path fill="#512410" d="M213.294,153.775
			c3.877,0,7.021,3.144,7.021,7.021c0,3.876-3.144,7.02-7.021,7.02s-7.021-3.144-7.021-7.02
			C206.273,156.919,209.417,153.775,213.294,153.775"/>
		<path fill="#512410" d="M228.895,162.595c-0.363,0-0.728-0.131-1.016-0.396
			c-6.649-6.117-18.005-9.766-29.942-1.663c-0.685,0.464-1.619,0.287-2.084-0.398c-0.465-0.686-0.287-1.619,0.398-2.084
			c13.386-9.087,26.165-4.957,33.66,1.937c0.609,0.561,0.649,1.51,0.088,2.12C229.704,162.432,229.298,162.595,228.895,162.595"/>
		<path fill="#512410" d="M273.295,153.775
			c-3.877,0-7.021,3.144-7.021,7.021c0,3.876,3.144,7.02,7.021,7.02c3.878,0,7.021-3.144,7.021-7.02
			C280.315,156.919,277.173,153.775,273.295,153.775"/>
		<path fill="#512410" d="M257.695,162.595c-0.404,0-0.809-0.163-1.104-0.484
			c-0.562-0.61-0.521-1.559,0.088-2.12c7.494-6.896,20.271-11.024,33.659-1.937c0.686,0.465,0.863,1.398,0.398,2.084
			c-0.466,0.686-1.4,0.862-2.084,0.398c-11.935-8.105-23.293-4.455-29.942,1.663C258.423,162.464,258.059,162.595,257.695,162.595"
			/>
		<path fill="#5F2C12" d="M294.297,284.095c-0.508,0-1.004-0.258-1.286-0.726
			c-6.447-10.701-9.573-29.983-9.813-37.929c-0.019-2-0.011-2.876-0.004-3.587l0.003-0.37c0.006-0.828,0.712-1.522,1.511-1.489
			c0.829,0.007,1.495,0.683,1.489,1.512l-0.003,0.374c-0.007,0.7-0.015,1.563,0.003,3.502c0.225,7.398,3.298,26.337,9.385,36.438
			c0.427,0.71,0.198,1.632-0.511,2.06C294.828,284.025,294.561,284.095,294.297,284.095"/>
		<path fill="#5F2C12" d="M192.293,284.095c-0.264,0-0.53-0.069-0.772-0.214
			c-0.71-0.428-0.939-1.35-0.512-2.06c6.075-10.102,9.142-29.04,9.367-36.472c0.025-2.914,0.023-3.596,0.021-3.753
			c-0.003-0.067-0.003-0.136,0.001-0.206c0.056-0.808,0.725-1.411,1.556-1.398c1.136,0.045,1.379,0.952,1.431,1.606l0.006,0.001
			l-0.003,0.038c0.011,0.165,0.01,0.311,0.01,0.421c-0.001,0.515-0.006,1.494-0.023,3.351c-0.24,7.976-3.359,27.257-9.796,37.959
			C193.298,283.836,192.802,284.095,192.293,284.095"/>
		<path fill="#5F2C12" d="M242.201,269.715c-3.547,0-14.3-0.461-20.85-5.752
			c-0.057-0.047-0.112-0.098-0.162-0.152c-3.016-3.284-5.809-11.062-6.592-13.368c0,0-0.183-0.785,0.182-1.443
			c0.274-0.494,0.773-0.537,0.773-0.537c0.776-0.241,1.624,0.247,1.884,1.015c1.431,4.209,3.823,9.902,5.889,12.224
			c6.355,5.049,17.734,5.044,19.634,5.005c0.178-0.041,0.373-0.048,0.555-0.022c1.497,0.042,13.267,0.149,19.75-4.997
			c2.067-2.318,4.459-8.005,5.889-12.209c0.261-0.768,1.108-1.258,1.885-1.015c0,0,0.587,0.055,0.867,0.622
			c0.283,0.572,0.104,1.311,0.104,1.311c-0.801,2.353-3.593,10.123-6.61,13.403c-0.05,0.055-0.104,0.104-0.161,0.152
			c-7.282,5.876-19.753,5.786-21.753,5.733c-0.041,0.006-0.083,0.009-0.126,0.011C243.269,269.699,242.858,269.715,242.201,269.715"
			/>
		<path fill="#5F2C12" d="M218.994,259.245c-0.36,0-0.722-0.129-1.01-0.391
			c-11.778-10.716-19.676-18.92-25.605-26.604c-4.996-6.476-8.745-14.465-10.285-21.92c-1.834-8.88-3.636-21.53-5.077-35.62
			c-0.174-1.711-1.351-14.933-1.667-19.676c-1.256-7.532,5.64-55.11,5.936-57.14c0.085-0.581,0.5-1.059,1.063-1.224l60.524-17.714
			c0.273-0.081,0.568-0.081,0.842,0l60.518,17.709c0.563,0.165,0.979,0.643,1.063,1.224c0.295,2.029,7.192,49.596,5.936,57.126
			c-0.317,4.774-1.508,18.116-1.685,19.846c-1.438,14.018-3.233,26.603-5.058,35.434c-1.54,7.454-5.289,15.442-10.285,21.915
			c-5.932,7.686-13.828,15.889-25.604,26.599c-0.61,0.557-1.56,0.513-2.117-0.102c-0.558-0.612-0.513-1.561,0.101-2.119
			c11.64-10.585,19.426-18.669,25.246-26.211c4.728-6.125,8.271-13.666,9.723-20.689c1.804-8.735,3.583-21.213,5.011-35.133
			c0.178-1.73,1.373-15.142,1.681-19.818c0.004-0.058,0.012-0.116,0.021-0.173c1.008-5.471-3.718-40.868-5.8-55.29l-59.171-17.315
			l-59.177,17.32c-2.082,14.425-6.808,49.832-5.8,55.304c0.01,0.058,0.018,0.115,0.022,0.173c0.305,4.646,1.488,17.938,1.663,19.649
			c1.429,13.992,3.216,26.534,5.029,35.319c1.451,7.023,4.995,14.566,9.723,20.693c5.818,7.539,13.605,15.626,25.25,26.219
			c0.612,0.558,0.657,1.505,0.099,2.118C219.807,259.08,219.401,259.245,218.994,259.245"/>
		<path fill="#5F2C12" d="M245.694,257.696h-4.8c-0.828,0-1.5-0.671-1.5-1.5s0.672-1.5,1.5-1.5h4.8
			c0.828,0,1.5,0.671,1.5,1.5S246.522,257.696,245.694,257.696"/>
		<path fill="#5F2C12" d="M209.693,234.215c-0.708,0-1.338-0.504-1.473-1.225
			c-0.496-2.654-0.6-5.317-0.318-8.143c0.455-4.585,3.233-7.887,3.352-8.025c0.537-0.629,1.484-0.705,2.114-0.168
			c0.63,0.539,0.705,1.485,0.167,2.115c-0.02,0.024-2.288,2.751-2.649,6.375c-0.253,2.539-0.16,4.925,0.284,7.295
			c0.152,0.814-0.385,1.598-1.2,1.75C209.878,234.206,209.785,234.215,209.693,234.215"/>
		<path fill="#5F2C12" d="M276.897,234.215c-0.092,0-0.184-0.009-0.277-0.026
			c-0.814-0.152-1.352-0.935-1.199-1.749c0.442-2.372,0.535-4.758,0.283-7.296c-0.36-3.623-2.63-6.351-2.652-6.378
			c-0.533-0.632-0.456-1.577,0.175-2.113c0.63-0.534,1.573-0.46,2.109,0.168c0.118,0.139,2.897,3.441,3.353,8.026
			c0.281,2.825,0.177,5.488-0.318,8.142C278.235,233.711,277.605,234.215,276.897,234.215"/>
		<path fill="#5F2C12" d="M242.994,232.496c-2.884-0.055-17.479-0.436-24.436-2.549
			c-0.793-0.241-1.24-1.079-1-1.871c0.242-0.793,1.083-1.243,1.872-0.999c6.579,1.998,20.807,2.366,23.592,2.419h0.571
			c11.528-0.222,19.451-1.031,23.521-2.405c0.786-0.268,1.637,0.155,1.9,0.941c0.267,0.784-0.155,1.636-0.939,1.901
			c-6.573,2.22-20.03,2.478-24.453,2.563H242.994z"/>
		<path fill="#5F2C12" d="M243.268,210.595c-4.771,0-9.415-2.15-9.61-2.241
			c-0.749-0.351-1.073-1.243-0.722-1.993c0.351-0.751,1.241-1.076,1.993-0.724c0.042,0.019,4.249,1.958,8.339,1.958
			c4.13,0,8.352-1.94,8.395-1.96c0.748-0.349,1.643-0.023,1.992,0.728c0.349,0.752,0.023,1.644-0.729,1.993
			C252.729,208.447,248.053,210.595,243.268,210.595"/>
		<path fill="#5F2C12" d="M180.895,198.955c-0.148,0-0.301-0.022-0.45-0.07
			c-2.491-0.784-5.744-2.161-8.808-5.877c-0.104-0.127-0.187-0.27-0.246-0.424c-4.43-11.73-8.558-39.13-3.059-44.469
			c1.124-1.09,2.588-1.342,4.134-0.707c3.961,1.686,5.329,7.1,5.386,7.33c0.197,0.804-0.295,1.617-1.1,1.814
			c-0.807,0.197-1.617-0.295-1.814-1.1c-0.289-1.159-1.507-4.373-3.63-5.276c-0.554-0.229-0.73-0.059-0.886,0.091
			c-3.531,3.429-1.354,27.459,3.688,41.021c1.983,2.345,4.161,3.768,7.235,4.736c0.791,0.249,1.23,1.091,0.981,1.881
			C182.124,198.545,181.533,198.955,180.895,198.955"/>
		<path fill="#5F2C12" d="M305.697,198.955c-0.638,0-1.229-0.41-1.431-1.05
			c-0.249-0.79,0.189-1.632,0.98-1.881c3.073-0.968,5.251-2.391,7.234-4.736c5.043-13.56,7.221-37.591,3.688-41.021
			c-0.155-0.15-0.33-0.321-0.901-0.084c-2.107,0.896-3.325,4.11-3.615,5.272c-0.2,0.803-1.016,1.292-1.815,1.095
			c-0.804-0.199-1.295-1.009-1.098-1.812c0.057-0.23,1.425-5.644,5.37-7.323c1.555-0.641,3.026-0.391,4.15,0.7
			c5.5,5.341,1.37,32.74-3.061,44.469c-0.059,0.154-0.142,0.297-0.246,0.424c-3.063,3.716-6.315,5.093-8.807,5.877
			C305.998,198.933,305.846,198.955,305.697,198.955"/>
		<path fill="#454141" d="M308.397,167.396l4.199-6.601
			l6.901-17.7l3.3-19.8l0.601-15.599l-1.2-11.401l-6-9.899l-8.102-7.801l-9-4.8l-4.199-4.5l-9.302-7.2l-10.5-6.899l-11.4-4.8
			l-14.701-0.601l-7.8,0.3l-4.2-1.8l-15-1.199l-10.5,2.1l-10.8,5.099l-5.401,6.3l-5.399,8.401l-2.7,9l-11.401,3.299l-7.2,7.8
			l-4.5,10.801l-1.5,13.5l1.5,15l5.101,20.699l6,15l3,4.2l1.2-3l0.6-22.5l2.4-15l6-13.799l9.3-7.5c0,0,5.015,3.19,5.7,3.299
			c0.684,0.11,12.899,3.601,12.899,3.601l15.901,0.3l18.3-1.2l12.901-3l11.7-2.401l8.4-0.599l6.9,1.5l6.601,5.4l4.8,9l3.601,15.6
			l1.5,16.799L308.397,167.396z"/>
		<path fill="#343030" d="M162.895,104.396
			c0.323-1.869,0.298-5.264,0.723-2.924c4.076,22.442,6.964,36.694,17.577,36.224c-2.132,9.149-1.404,29.748-2.7,29.099
			c-1.312-0.655-2.607-0.932-3-1.5c-0.176-0.254-1.706-0.566-6-14.7c-2.68-8.818-4.271-13.749-5.401-21
			c-1.327-8.518-1.199-18.3-1.199-18.3S163.495,116.939,162.895,104.396"/>
		<path fill="#343030" d="M186.895,77.396
			c0,0-9.396-0.014-9.352,2.826c0.135,8.587,1.563,26.8,10.852,34.373c1.002-3.648,5.237-5.391,9.3-8.099
			c30.395,19.38,81.721-3.236,94.502,0.9c-0.734-7.902-66.95,6.291-85.202-6c-18.449-12.424-14.401-37.801-14.401-37.801
			L186.895,77.396z"/>
		<path fill="#343030" d="M317.398,120.595
			c-0.208-1.102-12.302-9.6-12.302-9.6l-11.101-2.7h-1.8c0,0,1.687,1.337,3.001,1.8c8.104,2.35,17.537,11.33,20.088,15.462
			C317.603,129.312,318.517,126.532,317.398,120.595"/>
		<path fill="#343030" d="M304.797,131.095
			c4.266,9.554,13.654,4.947,18.301-15.899c-1.072,16.28-4.5,30.299-4.5,30.299s-8.387,23.539-10.2,22.8
			c-1.814-0.739-1.801-19.2-1.801-19.2S305.772,141.025,304.797,131.095"/>
		<path fill="#343030" d="M288.896,64.196
			c-14.096-1.778-36.934,5.917-43.502,22.5c9.649-7.539,20.085-12.774,24.953-14.134c6.966-1.944,16.877-4.681,27.55,0.934
			C295.608,69.508,293.548,67.411,288.896,64.196"/>
		<path fill="#343030" d="M241.494,50.396
			c0,0-4.858,0.593-18,7.5c-1.439,0.131-0.031-9.249,8.4-9.9c3.093-0.036,6.9,0.9,6.9,0.9L241.494,50.396z"/>
		<path fill="#202121" d="M308.34,169.8c-0.154,0-0.313-0.018-0.477-0.058
			c-1.941-0.465-2.04-3.264-2.112-5.308l-0.007-0.191c-0.004-0.093-0.003-0.352-0.001-0.759
			c0.072-12.119-0.995-51.917-17.737-55.217c-0.813-0.16-1.341-0.949-1.182-1.762c0.16-0.813,0.952-1.344,1.762-1.181
			c18.482,3.643,20.254,41.899,20.157,58.178c-0.002,0.329-0.004,0.543-0.001,0.627l0.007,0.199
			c0.018,0.499,0.042,0.915,0.069,1.261c0.021-0.039,0.044-0.079,0.067-0.121c0.026-0.047,0.056-0.094,0.088-0.139
			c7.877-11.114,17.819-52.878,10.638-70.261c-3.068-7.427-14.232-19.296-29.444-22.428c-14.265-2.936-28.97,2.504-42.525,15.729
			c-0.593,0.579-1.542,0.568-2.121-0.026c-0.579-0.593-0.567-1.543,0.025-2.121c18.07-17.628,34.565-18.715,45.227-16.52
			c0.981,0.202,1.945,0.436,2.888,0.698c-33.083-31.701-60.261-16.639-68.063-11.026c-0.672,0.483-1.609,0.331-2.094-0.342
			c-0.483-0.673-0.331-1.61,0.342-2.094c3.418-2.458,7.898-5.048,13.329-6.853c-13.212-3.245-24.403-1.847-33.322,4.179
			c-10.104,6.827-14.479,17.878-14.861,23.239c-0.051,0.718-0.606,1.298-1.321,1.383c-9.419,1.109-16.074,5.863-19.779,14.127
			c-10.136,22.603,4.195,64.352,9.733,72.362c-0.274-36.446,6.551-56.74,20.291-60.33c0.798-0.212,1.622,0.269,1.831,1.071
			c0.21,0.802-0.271,1.621-1.073,1.831c-12.177,3.182-18.416,23.35-18.04,58.324c0.001,0.058-0.002,0.117-0.009,0.175
			c-0.085,0.809-0.315,2.96-2.016,3.297c-1.584,0.319-2.672-1.242-3.453-2.666c-6.464-9.35-20.549-51.77-10.002-75.292
			c4.011-8.943,11.065-14.227,20.982-15.72c0.929-6.253,5.762-17.344,16.037-24.287c10.78-7.283,24.476-8.357,40.714-3.196
			c4.528-0.886,9.566-1.163,15.075-0.452c14.508,1.877,28.733,10.178,42.285,24.676c11.874,5.42,19.656,15.108,22.139,21.117
			c7.759,18.781-2.794,61.502-10.915,73.071C310.924,167.978,309.876,169.8,308.34,169.8 M206.394,96.296
			c-0.657,0-1.261-0.436-1.444-1.1c-1.957-7.055,0.303-16.399,6.046-24.995c0.46-0.689,1.393-0.873,2.08-0.413
			c0.689,0.46,0.874,1.391,0.414,2.08c-5.264,7.88-7.376,16.301-5.65,22.527c0.222,0.798-0.246,1.625-1.045,1.846
			C206.662,96.278,206.526,96.296,206.394,96.296"/>
		<path fill="#202121" d="M316.198,121.795c-0.522,0-1.019-0.274-1.293-0.739
			c-2.537-4.311-13.55-12.761-27.509-12.761c-7.624,0-13.597,1.467-20.513,3.166c-8.84,2.172-18.859,4.634-34.99,4.634l-0.644,0.001
			c-0.098,0-0.2,0-0.297,0c-36.855,0-45.12-18.072-45.558-33.258c-0.024-0.828,0.628-1.519,1.456-1.543
			c0.808-0.021,1.519,0.629,1.542,1.456c0.581,20.136,14.901,30.345,42.552,30.345c0.101,0,0.196,0,0.297,0l0.652-0.001
			c15.768,0,25.599-2.416,34.274-4.547c6.81-1.673,13.241-3.253,21.229-3.253c12.145,0,22.086,5.809,27.153,10.694
			c-0.64-6.096-3.082-12.048-6.972-16.804c-0.524-0.642-0.43-1.586,0.212-2.111c0.641-0.525,1.585-0.428,2.11,0.212
			c5.247,6.416,8.089,14.821,7.797,23.062c-0.023,0.666-0.484,1.237-1.131,1.401C316.444,121.78,316.32,121.795,316.198,121.795
			 M253.495,100.496c-0.454,0-0.903-0.205-1.198-0.597c-0.499-0.661-0.367-1.602,0.294-2.1c5.766-4.35,11.567-7.61,17.244-9.688
			c0.775-0.283,1.639,0.115,1.924,0.893c0.285,0.778-0.114,1.639-0.893,1.924c-5.398,1.977-10.939,5.094-16.469,9.265
			C254.127,100.396,253.809,100.496,253.495,100.496 M301.37,93.167c-0.276,0-0.556-0.076-0.806-0.235
			c-6.456-4.119-14.26-5.491-22.562-3.973c-0.817,0.149-1.597-0.39-1.746-1.206c-0.149-0.815,0.391-1.596,1.205-1.745
			c9.062-1.657,17.609-0.139,24.716,4.394c0.698,0.446,0.903,1.373,0.458,2.072C302.349,92.922,301.865,93.167,301.37,93.167"/>
		<path fill="#202121" d="M224.396,97.196c-0.031,0-0.063-0.001-0.095-0.003
			c-0.826-0.052-1.455-0.764-1.403-1.591c0.451-7.213,4.599-15.389,11.097-21.869c0.586-0.586,1.535-0.584,2.122,0.003
			c0.585,0.586,0.583,1.536-0.003,2.121c-5.994,5.978-9.816,13.429-10.222,19.933C225.842,96.585,225.182,97.196,224.396,97.196
			 M241.851,70.741c-0.485,0-0.962-0.235-1.251-0.67c-0.458-0.69-0.27-1.621,0.42-2.08c6.268-4.162,16.577-8.77,30.062-7.083
			c0.822,0.103,1.405,0.852,1.303,1.674c-0.103,0.823-0.853,1.407-1.675,1.303c-12.572-1.569-22.185,2.724-28.029,6.606
			C242.424,70.66,242.136,70.741,241.851,70.741"/>
		<path fill="#202121" d="M227.395,149.696c-0.157,0-0.317-0.025-0.475-0.078
			c-1.913-0.638-3.8-1.339-5.625-2.017c-5.639-2.096-10.963-4.077-14.115-2.999c-8.067,2.757-13.544,4.144-17.76,4.498
			c-0.821,0.083-1.55-0.544-1.621-1.369c-0.069-0.825,0.544-1.551,1.369-1.62c3.961-0.333,9.217-1.674,17.041-4.348
			c4.164-1.422,9.709,0.639,16.131,3.026c1.802,0.669,3.664,1.361,5.53,1.984c0.786,0.262,1.211,1.111,0.948,1.897
			C228.607,149.299,228.022,149.696,227.395,149.696"/>
		<path fill="#202121" d="M259.195,149.696c-0.625,0-1.208-0.394-1.42-1.018
			c-0.268-0.785,0.153-1.636,0.938-1.903c1.863-0.633,3.725-1.336,5.523-2.016c6.429-2.431,11.98-4.529,16.152-3.081
			c7.821,2.72,13.075,4.083,17.035,4.422c0.826,0.071,1.438,0.798,1.367,1.623c-0.07,0.825-0.803,1.428-1.622,1.367
			c-4.22-0.362-9.698-1.773-17.765-4.578c-3.15-1.095-8.469,0.921-14.106,3.053c-1.823,0.689-3.709,1.402-5.62,2.051
			C259.518,149.67,259.355,149.696,259.195,149.696"/>
	</g>
</svg>
