<svg version="1.1" xmlns="http://www.w3.org/2000/svg" x="0px" y="0px" width="100%" height="100%" viewBox="0 0 486 486"
     enable-background="new 0 0 486 486" xml:space="preserve">
<g id="age-male-1">
                <path fill="#F0D8C0" d="M307.81,192.01 c-2.558,2.982-3.803,4.462-6.6,5.458c-0.853,0.2-1.5,0.242-1.5,0.242s-0.11-0.066-0.209-0.06 c-2.851,12.755-5.933,20.684-8.491,25.86c-1.713,3.466-4.041,7.312-6.866,11.247c0.132,0.822,0.281,1.666,0.454,2.536l0.112,3.317 l0.6,10.8l4.5,19.8l-10.2,23.1l-4.8,4.8c0,0-12.429,1.554-19.5,7.5c-7.071,5.947-11.081,15.882-12.3,17.101 c-4.481-7.82-7.907-15.364-15.3-18.9c-9.275-4.437-18.9-7.2-18.9-7.2l-8.4-16.199l-2.7-12.301l3.6-12.6l0.9-16.5l0.058-2.451 c0.097-0.874,0.211-1.75,0.335-2.625c-2.883-3.997-5.254-7.906-6.993-11.424c-2.555-5.168-5.631-13.08-8.478-25.8 c-0.241-0.001-1.01-0.024-1.722-0.242c-2.797-0.879-5.534-2.287-8.1-5.399c-5.49-14.538-8.778-46.503-0.9-43.259 c2.087,0.888,3.332,3.169,3.966,4.728c-1.669-15.063,2.411-52.414,2.411-52.414L243.31,83.41l60.523,17.714 c0,0,3.458,38.963,2.299,52.698c0.594-1.552,1.86-4.068,4.078-5.012C318.817,145.229,314.665,178.911,307.81,192.01"/>
                <path fill="#D7B99A" d="M313.299,177.93 c0,0-4.125,16.655-9.816,17.623c-2.576,0.439-1.69,0.639-0.595-5.369c1.095-6.009,8.2-11.847,11.007-21.519 C316.7,158.993,313.299,177.93,313.299,177.93 M293.71,219.309c-4.604,8.019-14.595,23.355-17.735,26.156 c-15.18,15.581,7.992-16.856,14.056-30.007c6.785-14.715,6.771-33.704,14.658-42.61c0.908-1.203-4.79,27.007-4.79,27.007 S298.207,211.475,293.71,219.309 M291.78,121.598c-5.41-2.471-8.469,0.675-4.971,13.112c2.638,9.376-10.518-4.505-21-8.401 c-14.442-5.366-23.065-3.913-34.8-10.8c-6.136,1.418,21.649,18.045,16.8,18.601c-43.743,5.011-49.395-18.347-54.078-14.101 c-7.572,6.866-10.2,29.4-10.2,29.4s-2.635-12.594,8.1-42.9c2.729,1.56,13.093,6.957,29.478,0.601 c5.855,2.732,42.978-1.504,50.4,0.299c6.963,1.692,17.396,2.149,24.9,1.5c3.194,4.128,9.015,30.881,6.6,42.6 C298.851,129.362,295.3,123.205,291.78,121.598 M210.61,245.41c-3.151-2.801-16.079-20.913-18.9-27.001 c-2.821-6.088-5.1-18.6-5.1-18.6s-5.711-28.202-4.8-27c7.912,8.904,7.893,27.889,14.7,42.6 C202.593,228.556,225.837,260.987,210.61,245.41 M183.01,196.209c-8.735-1.717-9.9-18.599-9.9-18.599s-3.43-19.009-0.6-9.301 c2.83,9.709,9.994,15.57,11.1,21.6C184.715,195.94,185.596,196.718,183.01,196.209 M251.71,152.709 c0.313-0.35,0.7-0.586,1.127-0.723c1.253-1.373,2.89-2.611,4.873-3.477c4.315-1.884,11.003-4.413,16.8-5.399 c8.575-1.461,14.427,1.003,23.4,3.899c-2.688,3.279-10.449,6.091-12.601,4.8c-2.15-1.29-10.972,2.419-14.399,2.401 c-1.357-0.008-7.18,4.334-14.4,6.9c-0.156,0.055-0.301,0.095-0.45,0.143c-1.598,1.743-2.516,4.886-3.149,7.656 c-1.254,5.475-1.74,9-0.301,13.5c1.687,5.271,3.059,11.798,2.101,12.9c-1.522,1.753-4.211,2.75-5.4-2.4 c-1.162-5.034-2.49-10.403-3.3-19.5C245.2,164.314,247.834,157.023,251.71,152.709 M243.014,208.588 c5.164-0.642,10.489-2.603,10.496-2.779c0,0-1.598,8.1-10.2,8.1c-8.602,0-10.2-8.1-10.2-8.1S238.655,209.131,243.014,208.588 M230.71,234.61c11.543,0.656,13.729,0.736,25.2,0c8.88-0.571,1.422,7.199-12.601,7.199 C229.288,241.809,221.687,234.096,230.71,234.61 M212.71,153.309c-4.242,0.422-7.12,0.931-8.4,1.801 c-3.906,2.651-11.276,3.626-14.1,0.599c-5.591-5.989-1.326-8.611,0.9-9.3c2.226-0.688,5.576-0.869,11.1-2.699 c5.523-1.831,18.741,1.554,23.1,3.599c4.359,2.045,1.078,0.198,6.6,4.2c6.222,4.511-2.411,5.888-5.4,5.4 C223.521,156.422,216.952,152.888,212.71,153.309 M201.91,237.61c4.9,5.048,9.9,9.899,9.9,9.899s10.082,8.333,12.3,9.6 c2.218,1.268,10.5,5.4,10.5,5.4l9,0.6l8.101-0.3c0,0,14.581-8.933,16.8-10.2c2.219-1.267,10.2-9.3,10.2-9.3l5.7-5.699 c0,0,0.682,20.042,5.1,34.8c-0.134-0.084-0.261-0.16-0.391-0.239l-1.409,5.639l-10.5,20.4c0,0-2.294,0.562-7.132,2.391 c-6.625,3.806-15.068,7.509-15.068,7.509l-6.9,7.5l-4.8,9.301l-5.7-11.4l-10.2-8.7c0,0-7.631-2.199-12.24-4.718 c-3.899-1.426-5.76-1.882-5.76-1.882l-10.5-20.4l-1.5-6l0.975-2.73c-0.315,0.099-0.638,0.206-0.975,0.331 C199.601,263.413,202.207,250.677,201.91,237.61 M272.109,299.41c0.011-0.013,0.021-0.025,0.031-0.037 c-0.02,0.013-0.039,0.024-0.059,0.036C272.092,299.409,272.101,299.41,272.109,299.41 M212.232,296.488 c23.008,4.227,31.078,20.021,31.078,20.021s3.806-15.096,31.077-20.026c7.327-10.538,9.72-25.833,6.824-26.945 c-0.469,0.066-0.936,0.181-1.413,0.338c-0.063,0.042-0.124,0.084-0.188,0.134c-0.007-0.023-0.006-0.043-0.011-0.066 c-1.73,0.603-3.668,1.73-6.589,3.066c-7.603,3.477-9.82,1.521-14.4,3.3c-4.654,1.808-6.452,5.4-15.3,5.4s-10.646-3.593-15.3-5.4 c-4.581-1.779-6.798,0.177-14.4-3.3c-2.754-1.26-4.792-2.39-6.579-3.207c0.005,0.067,0.001,0.136-0.021,0.207 C201.919,266.088,203.836,284.416,212.232,296.488"/>
                <path fill="#512410" d="M213.31,153.79 c3.877,0,7.02,3.143,7.02,7.02s-3.143,7.02-7.02,7.02s-7.02-3.143-7.02-7.02S209.433,153.79,213.31,153.79"/>
                <path fill="#512410" d="M228.909,162.61c-0.363,0-0.727-0.131-1.015-0.396 c-6.649-6.118-18.007-9.766-29.942-1.663c-0.685,0.464-1.618,0.287-2.084-0.399c-0.465-0.685-0.286-1.618,0.399-2.084 c13.386-9.087,26.163-4.957,33.658,1.938c0.61,0.561,0.649,1.51,0.088,2.12C229.718,162.447,229.314,162.61,228.909,162.61"/>
                <path fill="#512410" d="M273.31,153.79 c-3.877,0-7.02,3.143-7.02,7.02s3.143,7.02,7.02,7.02s7.021-3.143,7.021-7.02S277.187,153.79,273.31,153.79"/>
                <path fill="#512410" d="M257.711,162.61c-0.405,0-0.809-0.163-1.105-0.484 c-0.561-0.61-0.521-1.559,0.089-2.12c7.493-6.895,20.271-11.026,33.658-1.938c0.685,0.466,0.864,1.399,0.398,2.084 c-0.466,0.686-1.397,0.864-2.084,0.399c-11.936-8.104-23.292-4.454-29.941,1.663C258.438,162.479,258.073,162.61,257.711,162.61"/>
                <path fill="#5F2C12" d="M243.31,264.752c-4.157,0-9.082-0.34-14.094-2.862 c-16.289-9.528-30.543-26.173-36.248-37.715c-6.807-13.77-11.694-35.962-14.525-65.964c-3.387-7.854,1.032-52.151,1.554-57.239 c0.063-0.61,0.49-1.12,1.079-1.289l61.821-17.714c0.269-0.078,0.556-0.078,0.826,0l61.821,17.714 c0.581,0.166,1.005,0.664,1.076,1.264c0.61,5.093,5.756,49.325,1.55,57.331c-2.832,29.971-7.717,52.139-14.519,65.898 c-5.706,11.541-19.96,28.187-36.164,37.669C252.392,264.412,247.467,264.752,243.31,264.752 M182.879,102.286 c-2.007,19.922-4.042,50.244-1.639,54.827c0.091,0.173,0.147,0.362,0.166,0.556c2.792,29.767,7.587,51.696,14.251,65.176 c5.508,11.141,19.295,27.225,34.991,36.411c4.368,2.194,8.857,2.496,12.662,2.496s8.294-0.302,12.745-2.541 c15.611-9.14,29.399-25.225,34.907-36.366c6.664-13.478,11.459-35.406,14.251-65.176c0.023-0.246,0.107-0.482,0.244-0.688 c2.943-4.44,0.56-35.466-1.698-54.69L243.31,84.97L182.879,102.286z"/>
                <path fill="#5F2C12" d="M294.311,284.109c-0.508,0-1.004-0.258-1.285-0.726 c-6.449-10.701-9.574-29.983-9.814-37.929c-0.038-4.167-0.003-5.438,0-5.49l-0.002-4.156c0-0.828,0.672-1.5,1.5-1.5 c0.83,0,1.5,0.672,1.5,1.5v4.2c-0.001,0.057-0.035,1.336,0,5.388c0.225,7.399,3.299,26.337,9.385,36.438 c0.428,0.71,0.199,1.632-0.511,2.06C294.842,284.04,294.574,284.109,294.311,284.109"/>
                <path fill="#5F2C12" d="M192.308,284.109c-0.263,0-0.53-0.069-0.771-0.214 c-0.71-0.428-0.94-1.349-0.513-2.06c6.075-10.102,9.143-29.039,9.367-36.472c0.036-4.019,0.001-5.298,0-5.311 c0-0.068,0.019-1.548,0.019-4.244c0-0.828,0.671-1.5,1.5-1.5c0.828,0,1.5,0.672,1.5,1.5c0,2.725-0.019,4.219-0.019,4.219 c0.001,0,0.037,1.278,0,5.396c-0.241,7.977-3.36,27.258-9.796,37.959C193.313,283.851,192.817,284.109,192.308,284.109"/>
                <path fill="#5F2C12" d="M300.908,199.21c-0.783,0-1.443-0.609-1.495-1.403 c-0.054-0.826,0.573-1.54,1.399-1.594c0.002,0,0.507-0.037,1.174-0.187c2.324-0.845,3.35-2.036,5.771-4.861 c5.803-11.255,9.209-36.697,5.438-40.815c-0.238-0.262-0.494-0.452-1.209-0.156c-2.527,1.076-3.609,5.231-3.619,5.273 c-0.197,0.805-1.006,1.297-1.814,1.1c-0.805-0.197-1.297-1.009-1.1-1.814c0.057-0.23,1.424-5.645,5.369-7.324 c1.766-0.733,3.388-0.412,4.586,0.895c5.316,5.806,0.566,33.613-5.069,44.381c-0.053,0.101-0.116,0.195-0.19,0.281l-0.094,0.108 c-2.58,3.011-4.002,4.67-7.141,5.787c-0.053,0.019-0.107,0.035-0.162,0.048c-0.945,0.221-1.666,0.273-1.744,0.278 C300.975,199.209,300.941,199.21,300.908,199.21"/>
                <path fill="#5F2C12" d="M185.654,199.21c-0.304,0-1.257-0.025-2.183-0.308 c-2.502-0.787-5.754-2.163-8.818-5.88c-0.105-0.127-0.188-0.27-0.247-0.424c-4.429-11.73-8.559-39.129-3.059-44.47 c1.124-1.089,2.59-1.341,4.134-0.706c3.962,1.686,5.329,7.1,5.386,7.33c0.197,0.805-0.296,1.617-1.1,1.814 c-0.8,0.197-1.615-0.294-1.813-1.096c-0.29-1.163-1.508-4.377-3.632-5.281c-0.554-0.229-0.73-0.059-0.885,0.092 c-3.531,3.429-1.354,27.46,3.688,41.021c1.985,2.346,4.162,3.768,7.235,4.735c0.491,0.15,1.122,0.174,1.322,0.173 c0.008,0,0.016,0,0.024,0c0.816,0,1.486,0.653,1.501,1.472c0.016,0.826-0.638,1.509-1.464,1.527 C185.728,199.21,185.697,199.21,185.654,199.21"/>
                <path fill="#5F2C12" d="M243.01,232.51c-2.883-0.055-17.477-0.436-24.436-2.549 c-0.793-0.241-1.24-1.078-0.999-1.871c0.241-0.793,1.08-1.241,1.871-0.999c6.58,1.998,20.808,2.366,23.593,2.419h0.57 c11.526-0.222,19.449-1.031,23.52-2.406c0.785-0.264,1.637,0.157,1.902,0.942c0.264,0.785-0.157,1.636-0.941,1.901 c-6.574,2.22-20.03,2.478-24.452,2.563H243.01z"/>
                <path fill="#5F2C12" d="M243.282,210.61c-4.771,0-9.414-2.15-9.608-2.242 c-0.75-0.351-1.073-1.243-0.723-1.993c0.352-0.75,1.245-1.075,1.994-0.724c0.042,0.02,4.249,1.959,8.337,1.959 c4.13,0,8.353-1.941,8.396-1.96c0.75-0.348,1.643-0.023,1.992,0.728s0.023,1.643-0.729,1.992 C252.745,208.462,248.068,210.61,243.282,210.61"/>
                <path fill="#7F5122" d="M194.307,107.11 c-10.23,9.642-10.05,23.624-12.923,54.9c-6.225,6.445-31.181-61.83-1.477-83.308c6.06-29.771,33.533-38.907,63.402-38.907 c35.661,0,70.963,19.294,74.759,67.015c0.255,3.207,0.14,6.833-0.254,11.728c-0.015,0.189,0.038,0.636,0.108,0.851 c1.58,4.85,2.576,9.877,2.846,15.021c-1.129-1.151-2.516-2.429-4.087-3.779c-0.028-0.025-0.097-0.095-0.113-0.121 c-2.366,16.915-6.998,34.203-11.7,31.5c-0.832-8.343-1.539-35.378-8.4-45.6c-0.141-0.183-0.11-0.198-0.31-0.313 c-2.83-1.631-7.498-2.984-9.787-3.887c-5.96-2.351-5.929-3.322-12.413-5.835c-0.137-0.038-0.205-0.121-0.349-0.165 c8.6,6.742,12.073,20.648,12.601,27.9c-16.981-16.046-33.194-13.096-50.7-21.9c-1.629-0.819-3.098-1.631-4.448-2.439 c-0.034,0.011-0.085-0.009-0.052,0.039c1.326,12.161,19.764,20.747,15,20.4c-13.714,0.248-36.029,0.562-51.584-23.163"/>
                <path fill="#684014" d="M262.51,101.11l10.8,4.8l0.32,0.308 c-0.007-0.002-0.013-0.006-0.021-0.008c0.027,0.021,0.055,0.045,0.081,0.066l3.047,2.934c1.193,1.373,2.256,2.889,3.199,4.489 c-2.823-0.128-9.563-0.911-18.927-5.089c-13.106-5.849-18.447-12.953-28.2-20.008c-7.649-5.532-17.311-9.517-27-12.9 c1.8-1.351,8.4-1.5,8.4-1.5l7.8,1.5l8.1,3.9l9.6,6.301l10.201,7.107L262.51,101.11z M202.51,92.202 c0.711,0.566,3.486-0.387,12,5.008c8.515,5.395,11.561,9.452,16.2,12.6c0.111,0.075,0.221,0.151,0.33,0.228 c0.333,2.62,1.453,5.072,2.955,7.3c-1.515-0.505-3.468-1.355-5.985-2.728c-9.946-5.425-20.66-15.652-31.2-24 C198.584,90.286,201.879,91.701,202.51,92.202 M195.91,77.18c0.008,1.929-8.299,2.115-9.958,12.83 c-0.351-4.152-1.518-8.938-5.958-11.707c2.25-10.644,7.26-18.624,14.145-24.476c-5.22,6.244-5.276,12.874,1.171,11.953 C199.853,65.13,190.477,73.893,195.91,77.18 M186.552,91.21c0.269,1.379,5.363,11.328,7.862,15.843l-0.106,0.057 c-2.33,2.195-4.118,4.616-5.526,7.414C183.988,106.312,186.284,89.839,186.552,91.21 M180.552,139.51 c1.14-0.826,2.155-1.599,3.058-2.303c-0.719,6.823-1.321,14.955-2.226,24.803c-5.119,5.3-22.905-39.933-12.541-68.115 C169.022,111.799,174.459,143.923,180.552,139.51 M320.769,134.41c-1.129-1.151-2.516-2.429-4.087-3.778 c-0.028-0.026-0.097-0.096-0.113-0.122c-2.366,16.916-6.998,34.203-11.7,31.5c-0.448-4.496-0.861-14.421-2.22-24.218 c0.72,0.477,1.554,1.049,2.52,1.718c2.165,1.5,3.805-1.151,5.022-6.008l-8.953-3.91c-0.933-4.373-2.138-8.365-3.719-11.396 l13.738,9.875c2.038-13.092,2.279-33.441,1.711-41.961c-0.066-0.995-0.008-1.784,0.147-2.403 c2.553,6.813,4.269,14.493,4.953,23.103c0.255,3.207,0.14,6.833-0.254,11.728c-0.015,0.189,0.038,0.637,0.108,0.851 C319.503,124.24,320.499,129.266,320.769,134.41"/>
                <path fill="none" stroke="#4F2F13" stroke-width="3" stroke-linecap="round" stroke-linejoin="round" stroke-miterlimit="10" d=" M259.21,148.209c8.147-2.766,15.94-6.754,20.7-5.1c7.179,2.496,12.95,4.12,17.399,4.5"/>
                <path fill="none" stroke="#4F2F13" stroke-width="3" stroke-linecap="round" stroke-linejoin="round" stroke-miterlimit="10" d=" M227.41,148.209c-8.148-2.718-15.941-6.639-20.7-5.013c-7.179,2.454-12.95,4.049-17.4,4.424"/>
                <path fill="#4F2F13" d="M180.606,163.938c-0.299,0-0.605-0.047-0.913-0.144 c-4.885-1.528-11.56-17.555-14.285-34.296c-2.26-13.886-3.54-38.897,12.999-51.339c7.051-32.93,39.142-39.864,64.902-39.864 c19.288,0,37.171,5.716,50.354,16.095c15.29,12.038,24.313,30.235,26.094,52.624c0.28,3.518,0.118,6.257-0.292,11.211 c1.654,5.118,2.701,10.501,2.994,16.107c0.032,0.623-0.324,1.201-0.895,1.451c-0.572,0.252-1.238,0.123-1.674-0.323 c-0.604-0.615-1.294-1.266-2.057-1.944c-1.379,8.881-4.848,27.266-10.239,29.903c-1.075,0.528-2.242,0.489-3.28-0.108 c-0.42-0.242-0.697-0.67-0.746-1.152c-0.139-1.392-0.277-3.34-0.438-5.595c-0.797-11.164-2.278-31.945-7.572-38.293 c-0.039-0.047-0.075-0.096-0.107-0.146c-3.164-1.759-6.133-3.227-8.592-4.196c-2.031-0.802-3.762-1.443-5.373-2.038 c-0.65-0.241-1.28-0.475-1.903-0.708c5.535,7.467,7.721,17.277,8.123,22.819c0.045,0.617-0.294,1.198-0.854,1.463 c-0.558,0.267-1.224,0.16-1.673-0.264c-10.23-9.667-20.069-12.1-30.486-14.676c-6.412-1.585-13.043-3.225-19.857-6.652 c-0.544-0.273-1.069-0.545-1.58-0.815c2.196,5.816,8.277,10.56,11.781,13.295c2.601,2.028,3.678,2.868,3.146,4.246 c-0.311,0.804-1.053,1.177-2.208,1.112l-0.878,0.017c-13.424,0.255-36.287,0.688-51.388-21.628 c-6.635,6.214-7.775,19.256-9.767,42.029c-0.275,3.148-0.567,6.484-0.891,10.018c-0.032,0.34-0.178,0.66-0.415,0.905 C182.075,163.633,181.364,163.938,180.606,163.938 M243.31,41.294c-24.79,0-55.684,6.598-62.082,38.03 c-0.075,0.369-0.286,0.696-0.591,0.916c-19.638,14.199-12.884,48.002-10.346,58.023c3.375,13.333,7.889,21.153,9.877,22.479 c0.283-3.114,0.541-6.069,0.787-8.875c2.091-23.922,3.277-37.473,11.116-44.332c-2.712-4.492-5.129-9.808-7.141-16.1 c-0.253-0.789,0.182-1.633,0.971-1.885c0.791-0.249,1.634,0.183,1.886,0.971c12.054,37.693,38.576,38.514,55.46,38.239 c-0.019-0.014-0.037-0.029-0.055-0.043c-4.333-3.38-12.293-9.592-13.581-17.723c-3.745-2.261-6.602-4.447-9.392-6.581 c-5.327-4.077-10.836-8.292-22.785-13.248c-0.765-0.318-1.128-1.196-0.811-1.961c0.318-0.766,1.195-1.127,1.96-0.811 c12.311,5.107,17.978,9.443,23.459,13.637c4.024,3.078,7.824,5.986,14.141,9.162c6.513,3.276,12.978,4.874,19.23,6.42 c9.365,2.316,19.021,4.703,28.791,12.729c-1.205-6.667-4.499-16.455-11.393-21.948c-3.352-1.543-7.431-3.669-13.455-7.163 c-6.498-3.768-11.922-7.992-16.708-11.719c-11.152-8.686-19.961-15.547-35.997-12.906c-0.818,0.135-1.589-0.419-1.723-1.236 c-0.135-0.818,0.419-1.59,1.236-1.724c17.328-2.857,27.061,4.724,38.327,13.499c4.94,3.847,10.048,7.825,16.368,11.49 c11.552,6.699,15.795,8.269,21.666,10.442c1.629,0.603,3.379,1.25,5.434,2.061c7.918,3.124,20.988,11.269,29.262,17.944 c0.366,0.118,0.664,0.371,0.846,0.692c0.368,0.306,0.727,0.607,1.071,0.904c-3.368-28.648-27.202-50.761-48.792-59.492 c-25.276-10.221-51.614-10.155-64.564-4.805c-0.766,0.319-1.643-0.048-1.959-0.813c-0.317-0.766,0.048-1.643,0.813-1.959 c13.099-5.411,39.601-6.218,66.835,4.796c17.418,7.044,36.245,22.519,45.411,43.094c0.036-1.5-0.003-2.798-0.117-4.247 C312.898,58.622,276.285,41.294,243.31,41.294 M300.541,121.103c3.725,9.187,4.854,25.058,5.582,35.248 c0.115,1.622,0.22,3.084,0.32,4.28c2.488-1.59,6.189-12.011,8.699-29.384C311.047,127.952,305.758,124.295,300.541,121.103"/>
            </g>
</svg>