<svg version="1.1" xmlns="http://www.w3.org/2000/svg" x="0px" y="0px" width="100%" height="100%" viewBox="0 0 486 486"
     enable-background="new 0 0 486 486" xml:space="preserve">
<g id="age-male-6">
                <path fill="#F2DAC2" d="M201.903,249.288l-6-8.1l-5.7-21.9 l-7.2-21.6l-2.701-10.8l-3-24.901l-1.799-5.099l5.099-15l7.801-26.401l2.399-14.4l15.3-13.5l18-7.199l11.7-2.7l15.3,1.2l15,2.099 l10.199,3.6l15.9,11.701l5.1,9.299l0.301,9.301l3.9,8.4l5.1,24l3.6,9.9l-0.9,10.799l-3.299,22.5l-4.201,17.1l-3,10.801l-3.299,11.4 l-3,7.5l-4.5,7.5l-3,5.1l4.799,21.301l-10.199,23.1l-4.801,4.799c0,0-12.428,1.556-19.499,7.5 c-7.071,5.947-11.081,15.883-12.3,17.102c-4.48-7.82-7.908-15.365-15.3-18.9c-9.277-4.436-18.901-7.201-18.901-7.201l-8.399-16.199 l-2.7-12.301l3.599-12.6L201.903,249.288z"/>
                <path fill="#F2DAC2" d="M314.103,148.788l-3,7.799 c0,0-1.156,3.355-1.801,6.601c-1.807,9.098-4.199,34.2-4.199,34.2l8.4-4.5l4.199-17.401l1.201-14.699l-0.9-9L314.103,148.788z"/>
                <polygon fill="#F2DAC2" points="178.503,163.788 176.403,155.688 173.703,149.087 170.403,146.987 168.303,152.388 167.403,159.288 168.603,176.688 172.803,192.288 182.103,197.987 "/>
                <path fill="#D7B99A" d="M289.202,269.388l0.599,3.301 l-1.198,6.898l-11.4,18.602c0,0-0.057,0.014-0.166,0.043c-0.17,1.17-1.793,2.576-4.633,3.256l-17.7,11.1l-11.4,12.301 l-11.399-12.301l-17.7-11.1c-2.841-0.68-4.465-2.086-4.635-3.256c-0.108-0.029-0.165-0.043-0.165-0.043l-11.4-18.602l-1.201-6.898 l0.601-3.301c2.19-5.996,4.8-29.099,4.8-29.099l9.3,10.5c0,0,9.181,8.932,11.4,10.199c2.218,1.268,13.199,7.201,13.199,7.201 l7.201,0.553l7.2-0.553c0,0,10.98-5.934,13.199-7.201s11.4-10.199,11.4-10.199l9.301-10.5 C284.403,240.289,287.011,263.392,289.202,269.388 M282.321,271.815c-0.059-0.336-0.09-0.639-0.109-0.922 c-0.07-0.17-0.141-0.367-0.209-0.605c-1.061-3.646-3.564-4.871-6-3.9c-2.531,0.744-4.01,1.947-6,3.6 c-2.12,1.76-3.766,4.566-5.702,6.301c-7.409,5.986-20.998,5.4-20.998,5.4v-0.02v0.02c0,0-13.588,0.586-21-5.4 c-1.934-1.734-3.581-4.541-5.7-6.301c-1.99-1.652-3.469-2.855-6-3.6c-2.435-0.971-4.939,0.254-6,3.9 c-0.068,0.238-0.138,0.436-0.21,0.605c-0.018,0.283-0.05,0.586-0.108,0.922c-0.849,4.834,2.059,16.262,7.937,24.65 c23.011,4.225,31.082,20.021,31.082,20.021s8.071-15.797,31.082-20.021C280.261,288.077,283.171,276.649,282.321,271.815"/>
                <path fill="#D7B99A" d="M168.303,170.388 c2.83,9.707,11.795,16.469,12.9,22.5c1.105,6.031,0.187,2.908-2.4,2.4c-8.734-1.716-9.899-20.4-9.899-20.4 S165.473,160.679,168.303,170.388"/>
                <path fill="#D7B99A" d="M225.303,147.288 c-4.358-2.045-17.576-5.432-23.1-3.6c-5.524,1.83-8.874,2.012-11.1,2.7c-2.225,0.687-6.49,3.31-0.9,9.3 c2.825,3.026,10.195,2.051,14.1-0.601c1.28-0.869,4.158-1.379,8.4-1.799c4.242-0.422,10.812,3.111,13.8,3.6 c2.988,0.488,11.623-0.889,5.401-5.401C226.382,147.485,229.661,149.333,225.303,147.288"/>
                <path fill="#D7B99A" d="M274.503,143.087 c-5.797,0.988-12.484,3.516-16.801,5.4c-9.226,4.028-10.998,16.082-1.199,12.6c7.221-2.564,13.043-6.906,14.4-6.898 c3.428,0.017,13.309,1.377,15.6,2.398c6.361,2.844,8.713-6.32,11.4-9.6C288.929,144.091,283.077,141.628,274.503,143.087"/>
                <path fill="#D7B99A" d="M230.703,234.587 c11.542,0.656,13.729,0.738,25.2,0c8.879-0.57,1.422,7.201-12.601,7.201S221.681,234.075,230.703,234.587"/>
                <path fill="#D7B99A" d="M318.087,170.442 c-2.807,9.672-9.91,15.512-11.006,21.52c-1.096,6.007-1.971,3.775,0.594,3.269c8.662-1.711,9.816-20.324,9.816-20.324 S320.894,160.771,318.087,170.442"/>
                <path fill="#D7B99A" d="M303.302,198.587l-7.799,25.201 c0.059,0.158-5.383,20.545-11.229,25.752c-2.865-2.369-4.002,1.746-4.766,4.135c-1.945,6.086-25.706,17.213-25.706,17.213 s-5.071-1.125-10.5-1.801c-5.429,0.676-10.5,1.801-10.5,1.801s-23.761-11.127-25.706-17.213c-0.764-2.389-1.9-6.504-4.766-4.135 c-5.845-5.207-11.287-25.594-11.228-25.752l-7.8-25.201c0,0-3.988-23.609-4.2-25.199c9.33,14.806,10.515,39.845,18,56.099 c4.781,10.381,7.323,13.407,9.9,15.6c3.393,2.889,4.088,1.721,6,1.5c1.473-0.168,3.379,1.652,4.2,2.701 c0.513,0.654,4.638,8.043,8.4,10.799c4.443,1.717,10.043,2.4,17.7,2.4c7.657,0,13.257-0.684,17.7-2.4 c3.762-2.756,7.887-10.145,8.4-10.799c0.82-1.049,2.727-2.869,4.199-2.701c1.912,0.221,2.607,1.389,6-1.5 c2.576-2.193,5.119-5.219,9.9-15.6c7.484-16.254,8.67-41.293,18-56.099C307.29,174.978,303.302,198.587,303.302,198.587"/>
                <path fill="#D7B99A" d="M253.503,207.587h-20.4 c0,0,1.598,8.102,10.2,8.102C251.905,215.689,253.503,207.587,253.503,207.587"/>
                <path fill="#D7B99A" d="M251.703,152.688 c-3.876,4.312-6.51,11.604-5.7,20.699c0.81,9.096,3.037,14.465,4.2,19.5c1.188,5.151,4.504,5.955,5.7,3.901 c2.543-4.373-3.013-13.725-2.7-24c0.206-6.811,1.421-9.7,3.599-12.301C262.157,154.097,254.493,149.582,251.703,152.688"/>
                <path fill="#D7B99A" d="M180.903,176.987 c10.496,19.469,20.996,31.479,26.399,34.201c2.453,1.235,8.712-2.451,11.701-5.101c2.671-2.37,4.065-0.127,2.7,2.4 c-2.74,5.074-10.226,9.266-11.101,16.801c-0.678,5.838,1.655,10.832,2.401,12.9c1.02,2.832-2.133,3.496-3.901-0.601 c-1.679-3.893-5.56-15.44-8.699-21.299c-3.141-5.862-4.588-8.492-6.301-10.801c-2.127-2.869-5.951-7.588-3.899,1.5 C188.83,213.803,179.875,175.082,180.903,176.987"/>
                <path fill="#D7B99A" d="M309.903,164.388 c3.295-13.561,6.727-10.324,8.397-6.6c1.579,3.51-0.298-6.9-0.298-6.9s-2.436-5.381-7.202,1.199 C307.872,156.136,308.716,169.271,309.903,164.388"/>
                <path fill="#D7B99A" d="M176.703,164.987 c-4.771-10.195-6.253-13.559-8.101-7.199c-1.071,3.687-0.175-6.901-0.175-6.901s3.98-4.091,6.476,0.901 C177.399,156.78,178.839,169.551,176.703,164.987"/>
                <path fill="#D7B99A" d="M202.69,171.903 c3.693,2.1,16.984,2.393,20.652,0.301c3.604-2.055,5.328,0.877,2.994,3.623c-5.089,5.99-19.144,8.363-27.004-0.369 C197.573,173.505,197.705,169.069,202.69,171.903"/>
                <path fill="#D7B99A" d="M283.915,171.903 c-3.693,2.1-16.984,2.393-20.652,0.301c-3.604-2.055-5.328,0.877-2.994,3.623c5.09,5.99,19.145,8.363,27.004-0.369 C289.032,173.505,288.901,169.069,283.915,171.903"/>
                <path fill="#D7B99A" d="M305.702,176.987 c-10.496,19.469-20.996,31.479-26.4,34.201c-2.452,1.235-8.711-2.451-11.699-5.101c-2.672-2.37-4.064-0.127-2.699,2.4 c2.737,5.074,10.225,9.266,11.1,16.801c0.678,5.838-1.656,10.832-2.4,12.9c-1.021,2.832,2.133,3.496,3.9-0.601 c1.679-3.893,5.561-15.44,8.699-21.299c3.141-5.862,4.588-8.492,6.301-10.801c2.127-2.869,5.951-7.588,3.9,1.5 C297.774,213.803,306.729,175.082,305.702,176.987"/>
                <path fill="#F9E6D3" d="M243.603,94.788 c12.261,0,22.199,3.627,22.199,8.1c0,4.472-9.938,8.099-22.199,8.099c-12.26,0-22.199-3.627-22.199-8.099 C221.403,98.415,231.342,94.788,243.603,94.788"/>
                <path fill="#512410" d="M273.302,153.767 c-3.877,0-7.02,3.145-7.02,7.021c0,3.877,3.143,7.02,7.02,7.02s7.021-3.143,7.021-7.02 C280.323,156.912,277.179,153.767,273.302,153.767"/>
                <path fill="#512410" d="M257.702,162.587c-0.404,0-0.81-0.163-1.104-0.484 c-0.561-0.61-0.521-1.559,0.089-2.12c7.493-6.895,20.27-11.026,33.659-1.936c0.686,0.466,0.863,1.398,0.398,2.084 s-1.399,0.862-2.084,0.398c-11.936-8.105-23.293-4.456-29.942,1.662C258.43,162.456,258.065,162.587,257.702,162.587"/>
                <path fill="#512410" d="M213.303,153.767 c3.877,0,7.021,3.145,7.021,7.021c0,3.877-3.144,7.02-7.021,7.02s-7.021-3.143-7.021-7.02 C206.282,156.912,209.426,153.767,213.303,153.767"/>
                <path fill="#512410" d="M228.903,162.587c-0.363,0-0.728-0.131-1.016-0.396 c-6.651-6.118-18.008-9.765-29.942-1.662c-0.685,0.464-1.619,0.288-2.084-0.398s-0.287-1.618,0.398-2.084 c13.386-9.087,26.165-4.959,33.66,1.936c0.609,0.561,0.649,1.51,0.088,2.12C229.712,162.424,229.307,162.587,228.903,162.587"/>
                <path fill="#5F2C12" d="M294.303,284.087c-0.508,0-1.004-0.258-1.286-0.726 c-5.871-9.746-8.766-25.985-9.55-34.046c-0.08-0.823,0.522-1.558,1.348-1.638c0.824-0.078,1.559,0.523,1.639,1.348 c0.985,10.126,4.264,24.704,9.134,32.787c0.427,0.71,0.198,1.632-0.511,2.06C294.834,284.018,294.566,284.087,294.303,284.087"/>
                <path fill="#5F2C12" d="M192.302,284.087c-0.264,0-0.53-0.069-0.772-0.214 c-0.71-0.428-0.939-1.349-0.512-2.06c5.545-9.22,8.33-24.852,9.101-32.635c0.083-0.824,0.823-1.422,1.642-1.344 c0.824,0.081,1.426,0.816,1.345,1.64c-0.797,8.033-3.699,24.209-9.518,33.886C193.307,283.828,192.811,284.087,192.302,284.087"/>
                <path fill="#5F2C12" d="M243.303,269.688c-11.065,0-18.075-1.854-22.061-5.84 c-5.303-5.304-6.743-13.236-6.739-13.969c0.005-0.826,0.676-1.492,1.5-1.492h0.006c0.785,0.005,1.425,0.607,1.489,1.373 c0.051,0.336,1.215,7.316,5.866,11.967c3.385,3.384,9.721,4.961,19.939,4.961c10.218,0,16.554-1.576,19.938-4.961 c4.667-4.667,5.816-11.625,5.867-11.962c0.063-0.769,0.703-1.374,1.487-1.378h0.008c0.825,0,1.496,0.667,1.5,1.492 c0.004,0.732-1.438,8.667-6.74,13.969C261.378,267.834,254.369,269.688,243.303,269.688"/>
                <path fill="#5F2C12" d="M268.053,259.19c-0.652,0-1.252-0.429-1.44-1.087 c-0.229-0.796,0.231-1.627,1.028-1.854c8.776-2.518,10.565-3.247,15.78-7.719c5.153-4.42,7.086-12.042,9.76-22.589 c0.85-3.351,1.812-7.148,2.972-11.202c1.076-3.758,2.268-7.084,3.42-10.3c2.746-7.661,5.584-15.583,7.012-29.992l1.666-19.692 c0.005-0.048,0.011-0.097,0.02-0.145c1.021-5.547-3.843-41.831-5.879-55.886c-3.015-3.228-25.264-21.257-52.891-23.14 c-0.701-0.048-1.355-0.097-1.977-0.144c-2.826-0.211-4.867-0.364-7.711-0.156c-22.785,1.668-52.424,17.762-57.199,20.43 c-1.614,15.236-5.305,53.335-4.288,58.861c0.009,0.048,0.015,0.096,0.02,0.145l1.668,19.703 c1.425,14.381,4.265,22.299,7.011,29.957c1.152,3.214,2.344,6.539,3.421,10.294c1.161,4.053,2.124,7.85,2.973,11.2 c2.674,10.541,4.606,18.157,9.76,22.574c5.216,4.47,7.005,5.199,15.782,7.717c0.797,0.228,1.257,1.059,1.029,1.854 s-1.06,1.257-1.855,1.028c-9.182-2.632-11.268-3.488-16.908-8.322c-5.876-5.035-7.906-13.038-10.716-24.115 c-0.845-3.329-1.802-7.102-2.95-11.111c-1.049-3.661-2.224-6.938-3.361-10.107c-2.807-7.829-5.71-15.925-7.174-30.695 l-1.664-19.657c-1.273-7.481,4.119-58.247,4.35-60.412c0.051-0.477,0.326-0.9,0.741-1.14c1.365-0.788,33.72-19.336,59.141-21.197 c3.063-0.223,5.309-0.056,8.153,0.156c0.615,0.047,1.263,0.095,1.958,0.142c31.248,2.131,54.588,23.272,55.415,24.761 c0.093,0.168,0.153,0.354,0.179,0.544h0.003c0.296,2.032,7.199,49.69,5.933,57.18l-1.662,19.646 c-1.466,14.799-4.368,22.898-7.176,30.73c-1.136,3.171-2.311,6.45-3.359,10.113c-1.148,4.01-2.104,7.784-2.948,11.114 c-2.81,11.083-4.839,19.091-10.715,24.13c-5.642,4.836-7.727,5.691-16.907,8.324C268.329,259.172,268.189,259.19,268.053,259.19"/>
                <path fill="#5F2C12" d="M245.703,257.688h-4.8c-0.828,0-1.5-0.671-1.5-1.5s0.672-1.5,1.5-1.5h4.8 c0.828,0,1.5,0.671,1.5,1.5S246.531,257.688,245.703,257.688"/>
                <path fill="#5F2C12" d="M276.904,234.289c-0.105,0-0.214-0.012-0.322-0.035 c-0.809-0.177-1.321-0.977-1.144-1.787c1.106-5.05,0.047-11.4-2.267-13.589c-2.477-2.343-4.736-5.272-6.729-7.856 c-1.961-2.542-3.989-5.17-5.126-5.654c-0.763-0.324-1.117-1.204-0.794-1.967c0.325-0.761,1.204-1.118,1.968-0.794 c1.859,0.79,3.831,3.347,6.327,6.582c1.927,2.497,4.11,5.328,6.416,7.51c3.49,3.3,4.335,10.936,3.135,16.411 C278.215,233.81,277.594,234.289,276.904,234.289"/>
                <path fill="#5F2C12" d="M209.702,234.289c-0.689,0-1.311-0.478-1.464-1.179 c-1.201-5.474-0.356-13.11,3.135-16.411c2.306-2.182,4.489-5.013,6.416-7.51c2.496-3.236,4.468-5.792,6.327-6.582 c0.765-0.325,1.644,0.032,1.968,0.794c0.323,0.763-0.032,1.643-0.794,1.967c-1.138,0.484-3.165,3.112-5.126,5.653 c-1.994,2.584-4.254,5.513-6.73,7.857c-2.315,2.189-3.374,8.539-2.266,13.589c0.178,0.809-0.334,1.609-1.144,1.787 C209.916,234.277,209.807,234.289,209.702,234.289"/>
                <path fill="#5F2C12" d="M296.424,165.028c-1.293,0-2.763-0.32-4.507-1.061 c-0.764-0.323-1.118-1.204-0.795-1.966c0.322-0.762,1.204-1.118,1.967-0.795c3.318,1.409,4.92,0.871,6.88-0.691 c0.649-0.516,1.593-0.409,2.107,0.239c0.517,0.648,0.409,1.591-0.238,2.107C300.212,164.157,298.557,165.028,296.424,165.028"/>
                <path fill="#5F2C12" d="M299.383,174.681c-0.497,0-0.982-0.247-1.269-0.698 c-1.927-3.045-2.968-3.692-5.248-5.11c-0.444-0.275-0.926-0.575-1.457-0.919c-0.696-0.45-0.895-1.378-0.445-2.074 c0.45-0.696,1.382-0.895,2.074-0.445c0.516,0.333,0.981,0.623,1.412,0.891c2.435,1.514,3.904,2.428,6.199,6.053 c0.443,0.7,0.234,1.626-0.466,2.07C299.936,174.605,299.657,174.681,299.383,174.681"/>
                <path fill="#5F2C12" d="M190.182,165.029c-2.133,0-3.787-0.871-5.413-2.167 c-0.649-0.517-0.755-1.46-0.238-2.108c0.516-0.649,1.463-0.754,2.107-0.238c1.961,1.562,3.564,2.096,6.879,0.69 c0.763-0.323,1.644,0.032,1.967,0.795c0.323,0.763-0.032,1.643-0.795,1.967C192.944,164.708,191.475,165.029,190.182,165.029"/>
                <path fill="#5F2C12" d="M187.223,174.681c-0.274,0-0.553-0.075-0.801-0.232 c-0.7-0.444-0.909-1.37-0.466-2.07c2.295-3.626,3.766-4.54,6.202-6.054c0.429-0.268,0.895-0.557,1.41-0.89 c0.695-0.45,1.624-0.251,2.074,0.445c0.449,0.696,0.251,1.624-0.445,2.074c-0.532,0.344-1.012,0.643-1.455,0.918 c-2.282,1.418-3.323,2.066-5.25,5.111C188.206,174.434,187.719,174.681,187.223,174.681"/>
                <path fill="#5F2C12" d="M243.003,232.487c-2.884-0.055-17.479-0.436-24.436-2.549 c-0.793-0.241-1.24-1.079-1-1.871c0.242-0.793,1.084-1.24,1.872-0.999c6.579,1.998,20.807,2.366,23.592,2.419h0.571 c11.527-0.222,19.45-1.031,23.52-2.405c0.785-0.267,1.637,0.156,1.901,0.941c0.266,0.784-0.156,1.636-0.94,1.901 c-6.573,2.22-20.029,2.478-24.452,2.563H243.003z"/>
                <path fill="#5F2C12" d="M243.276,210.587c-4.771,0-9.415-2.15-9.61-2.241 c-0.749-0.351-1.073-1.243-0.722-1.993s1.241-1.077,1.993-0.724c0.042,0.019,4.249,1.958,8.339,1.958c4.13,0,8.352-1.94,8.396-1.96 c0.748-0.349,1.642-0.023,1.991,0.728c0.349,0.752,0.023,1.644-0.729,1.993C252.738,208.439,248.062,210.587,243.276,210.587"/>
                <path fill="#5F2C12" d="M181.803,199.188c-0.203,0-0.543-0.037-1.383-0.322 c-2.459-0.774-5.712-2.152-8.774-5.866c-0.105-0.127-0.188-0.271-0.246-0.425c-4.429-11.729-8.558-39.129-3.059-44.468 c1.123-1.089,2.589-1.342,4.134-0.707c3.785,1.611,6.255,7.654,6.523,8.338c0.044,0.112,0.075,0.228,0.091,0.346 c0.02,0.145,0.484,3.584,0.613,8.565c0.023,0.828-0.631,1.517-1.46,1.539c-0.012,0-0.026,0-0.04,0 c-0.809,0-1.477-0.646-1.498-1.461c-0.11-4.18-0.469-7.297-0.564-8.058c-0.883-2.153-2.9-5.683-4.823-6.501 c-0.555-0.228-0.731-0.059-0.886,0.092c-3.531,3.428-1.355,27.458,3.687,41.02c2.497,2.947,5.055,4.048,7.236,4.735 c0.337,0.114,0.51,0.162,0.599,0.18c0.758,0.076,1.35,0.715,1.35,1.493C183.303,198.518,182.631,199.188,181.803,199.188"/>
                <path fill="#5F2C12" d="M304.8,199.188c-0.726,0-1.363-0.527-1.479-1.267 c-0.129-0.814,0.424-1.577,1.234-1.712c0.059-0.011,0.286-0.061,0.684-0.19c2.193-0.691,4.752-1.792,7.248-4.739 c5.042-13.561,7.22-37.592,3.688-41.02c-0.156-0.152-0.329-0.322-0.901-0.085c-2.125,0.904-4.158,4.925-4.808,6.495 c-0.095,0.762-0.454,3.878-0.563,8.057c-0.021,0.829-0.696,1.48-1.538,1.461c-0.828-0.022-1.482-0.711-1.461-1.539 c0.13-4.98,0.594-8.42,0.613-8.565c0.017-0.118,0.047-0.234,0.091-0.346c0.27-0.684,2.739-6.726,6.507-8.331 c1.558-0.641,3.027-0.392,4.15,0.7c5.5,5.34,1.37,32.739-3.06,44.468c-0.059,0.155-0.142,0.298-0.246,0.425 c-3.063,3.715-6.314,5.092-8.807,5.876c-0.666,0.217-1.048,0.283-1.117,0.294C304.956,199.183,304.878,199.188,304.8,199.188"/>
                <path fill="#B4B4B3" d="M227.403,149.689c-0.157,0-0.317-0.025-0.475-0.078 c-1.914-0.638-3.801-1.34-5.628-2.018c-5.638-2.096-10.966-4.078-14.112-2.999c-8.066,2.757-13.543,4.144-17.76,4.499 c-0.836,0.083-1.55-0.543-1.621-1.368c-0.069-0.826,0.544-1.552,1.369-1.621c3.962-0.334,9.218-1.675,17.041-4.349 c4.161-1.421,9.707,0.64,16.129,3.026c1.802,0.669,3.665,1.362,5.532,1.985c0.786,0.262,1.211,1.111,0.948,1.897 C228.616,149.292,228.031,149.689,227.403,149.689"/>
                <path fill="#B4B4B3" d="M259.202,149.689c-0.625,0-1.208-0.394-1.42-1.018 c-0.268-0.785,0.153-1.636,0.938-1.903c1.863-0.633,3.724-1.336,5.523-2.017c6.43-2.431,11.981-4.531,16.152-3.081 c7.82,2.72,13.073,4.083,17.034,4.422c0.825,0.071,1.438,0.798,1.366,1.623c-0.071,0.825-0.803,1.429-1.622,1.367 c-4.22-0.362-9.699-1.773-17.764-4.578c-3.146-1.095-8.469,0.921-14.105,3.053c-1.823,0.69-3.709,1.403-5.621,2.052 C259.524,149.663,259.362,149.689,259.202,149.689"/>
                <path fill="#DEE1E5" d="M195.903,95.688 c-11.732,11.631-5.062,16.896-6.9,20.398c-11.305,21.538-9.597,46.778-9.647,48.092c-0.06,1.549-0.137,7.092-2.954,2.01 c-3.413-4.816-11.3-14.02-11.999-29.701c-0.161-4.641,0.863-4.051,1.199-8.1c0.281-3.39-1.505-8.369-1.5-10.199 c0.014-4.729,2.346-3.082,3.301-6.9c0.932-3.731-0.565-6.516,0-8.401c1.082-3.609,3.081-3.765,5.399-7.801 c0.994-1.726-1.042-6.56,1.5-9.599c2.984-3.567,6.996-2.313,9.601-4.5c1.595-1.34,2.342-6.086,4.8-7.799 c3.503-2.443,5.849-1.553,10.5-1.801c3.054-0.164,3.757-3.961,7.2-5.099c3.031-1.004,4.363,1.15,8.699,0.9 c2.699-0.156,3.69-2.754,5.7-2.701c1.747,0.047,5.818,0.398,7.8,0.599c1.677,0.172,5.142-1.277,6.901-1.5 c3.253-0.41,4.838,1.596,8.099,1.5c2.363-0.068,1.883-1.25,6.601-1.5c1.904-0.099,4.904,2.069,7.499,2.401 c3.117,0.4,3.955-0.91,5.701-0.901c2.166,0.016,4.539,2.209,6.299,2.702c3.431,0.957,4.242-1.147,7.5-0.6 c2.9,0.484,3.695,3.4,8.4,3.299c4.965-0.108,5.26-0.217,9,0.9c4.539,1.356,4.551,4.326,6.6,6.301c1.953,1.881,5.326,1.33,7.5,4.5 c1.668,2.43,1.428,3.947,3.301,6.299c1.766,2.217,3.252,3.254,4.5,6.599c1.658,4.448-0.826,5.409,0,9.301 c0.77,3.627,3.904,6.049,3.9,9.6c-0.004,2.627-1.09,8.359-1.201,11.701c-0.115,3.48,3.146,8.887,2.99,11.102 c-1.16,16.449-9.119,25.355-12.037,29.488c-0.625,1.152-2.289,3.844-2.699,0c0.221-20.647-2.803-34.789-8.961-48.387 c-3.43-7.568,5.717-12.09-13.199-27.297C265.302,74.522,221.011,70.795,195.903,95.688"/>
                <path fill="#C6C7CC" d="M165.303,143.087 c0,0,1.515,7.172,1.8,7.801c5.52,12.123,9.789,16.144,11.1,16.801c1.197,0.597,0.542-17.491,4.005-34.547 c-0.371,0.091-0.804,0.49-1.304,1.246c-3.549,5.349-10.59,7.838-15.901-3.303c-0.265,2.281-0.599,5.703-0.599,5.703 L165.303,143.087z"/>
                <path fill="#C6C7CC" d="M173.956,85.624 c1.512,4.623,5.34,13.25,13.847,18.164c2.272,1.307,2.967-2.076-0.9-7.201c-2.706-3.584-5.398-9.193-7.381-13.875 C177.675,83.091,175.803,83.831,173.956,85.624"/>
                <path fill="#C6C7CC" d="M304.202,126.288 c4.674,10.477,14.045,11.721,17.731,8.471c0.505-0.444-0.55,10.195-3.03,17.328c-2.807,6.383-9.602,15.9-9.602,15.9h-1.199 c0,0-0.729-25.713-7.5-46.199C299.38,118.431,300.53,118.054,304.202,126.288"/>
                <path fill="#C6C7CC" d="M265.478,65.534 c-4.035,4.59-9.764,7.717-14.604,12.156c2.217,0.951,4.129,0.903,6.097,0.758c0.463-0.355,0.91-0.705,1.332-1.06 c2.887-2.434,11.771-6.62,19.777-9.86C270.7,67.837,268.082,66.587,265.478,65.534"/>
                <path fill="#C6C7CC" d="M165.603,124.188 c0.866,1.687,10.097,5.254,13.801,4.199c1.913-1.597-9.868-6.269-14.328-13.984c-0.248-0.43-0.174,4.832-0.372,4.385 C164.884,121.317,164.755,122.537,165.603,124.188"/>
                <path fill="#C6C7CC" d="M198.806,71.345 c-0.558,8.615,2.403,19.014,3.697,17.443c1.629-1.978,0.055-10.791,1.133-20.453c0.019-0.172,0.039-0.345,0.06-0.517 C201.747,71.072,200.599,71.245,198.806,71.345"/>
                <path fill="#C6C7CC" d="M306.632,80.046 c-9.305,3.936-14.455,9.809-16.965,14.043c0.631,0.602,1.764,2.203,2.674,3.008c3.533-2.543,9.477-6.455,19.318-9.356 C310.802,85.599,308.208,81.626,306.632,80.046"/>
                <path fill="#C6C7CC" d="M320.702,113.388 c-11.4-2.793-15.572,1.801-15.572,1.801l13.773,10.199C318.903,125.388,319.417,118.488,320.702,113.388"/>
                <path fill="#C6C7CC" d="M237.558,63.614 c-4.6,4.549-10.467,7.871-13.755,10.773c-0.906,0.801-2.315,3.248-3.116,6.446c2.266-1.141,2.764-0.762,6.394-1.533 c0.966-0.977,2.161-1.922,3.623-2.813c4.592-2.799,12.139-7.205,18.361-12.824C243.303,65.132,240.151,64.327,237.558,63.614"/>
                <path fill="#DEE1E5" d="M268.202,226.788 c-4.379,0.676-5.051,0-6.6,0s-3.367,0.885-4.801,0.9c-1.998,0.02-2.628-0.763-4.499-0.601c-1.247,0.109-3.1,0.924-4.8,0.9 c-1.895-0.025-2.316-0.9-4.2-0.9s-2.306,0.875-4.201,0.9c-1.699,0.024-3.552-0.791-4.799-0.9c-1.871-0.162-2.501,0.621-4.5,0.601 c-1.433-0.015-3.251-0.9-4.8-0.9c-1.549,0-2.221,0.676-6.6,0c-1.32-0.205,0.389-5.906,1.199-9c0.812-3.094,1.421-3.467,3-4.201 c1.58-0.735,2.229,0.93,3.901,0.601c2.926-0.576,3.068-1.785,4.8-2.101c1.852-0.338,3.809,1.138,6,1.201 c1.727,0.047,4.785-0.9,6-0.9c1.214,0,4.273,0.947,6,0.9c2.19-0.063,4.148-1.539,6-1.201c1.731,0.316,1.874,1.525,4.8,2.101 c1.672,0.329,2.32-1.336,3.9-0.601c1.578,0.734,2.189,1.107,3,4.201C267.813,220.882,269.522,226.583,268.202,226.788"/>
                <path fill="#C6C7CC" d="M267.302,218.688 c0.336,6.525-0.439,7.289-1.422,7.857c-1.365,0.788-4.396,1.387-4.877-1.257c-1.238-6.799-2.172-9.096-2.1-4.5 c0.063,4.019-0.779,5.773-3.9,6.9c-3.069,1.105,0.397,1.063-1.8-0.301c-2.198-1.363-2.618-10.125-3.3-10.199 c-0.683-0.076-0.601,2.457-0.601,4.199c0,1.742,0.079,5.998-3.3,6.301c-3.379,0.301-1.339,1.314-2.7-1.201 c-1.36-2.516-1.866-8.621-2.7-9c-0.833-0.379-0.149,5.76-0.3,7.201c-0.151,1.439-2.03,2.482-3,2.398 c-0.874,0.301-1.782-0.414-2.7-0.298c-1.234-1.907-0.865-1.911-1.199-5.401c-0.334-3.49-0.829-7.101-1.538-2.252 c-0.398,2.731,0.174,6.621-3.263,7.951c-0.537,0.209-1.636-0.369-3-0.898c-1.364-0.531-0.284-5.74-0.9-6.602 c-0.447-0.625-0.901,4.694-2.4,6c-0.945,0.825-3.466,0.821-3.3-2.099c0.731-12.914-1.603,0.965-2.099,3 c0.302,0.607,12.101,1.73,24,1.201c11.897-0.531,27.599-0.9,27.599-0.9S267.511,220.944,267.302,218.688"/>
                <path fill="#B5B4B4" d="M247.574,229.488c-0.006,0-0.085-0.001-0.092-0.001 c-1.208-0.016-1.984-0.315-2.608-0.554c-0.522-0.201-0.9-0.346-1.571-0.346s-1.049,0.145-1.571,0.346 c-0.624,0.239-1.401,0.538-2.609,0.554c-1.293,0.02-2.424-0.303-3.437-0.571c-0.584-0.155-1.136-0.302-1.514-0.335 c-0.694-0.06-1.155,0.06-1.764,0.224c-0.63,0.171-1.417,0.384-2.532,0.384c-0.975-0.01-1.876-0.253-2.747-0.488 c-0.751-0.203-1.527-0.413-2.126-0.413c-0.343,0-0.648,0.048-1.035,0.108c-0.553,0.086-1.241,0.192-2.251,0.192 c-0.997,0-2.156-0.104-3.542-0.317c-0.549-0.085-1.019-0.394-1.329-0.87c-0.842-1.293-0.393-3.673,1.006-8.87l0.3-1.123 c0.925-3.528,1.828-4.256,3.818-5.181c0.47-0.219,0.948-0.329,1.423-0.329c0.811,0,1.449,0.321,1.915,0.555 c0.437,0.22,0.637,0.315,0.906,0.264c1.34-0.264,1.91-0.654,2.513-1.066c0.578-0.396,1.233-0.844,2.306-1.04 c0.272-0.049,0.555-0.074,0.843-0.074c1.075,0,2.076,0.34,3.044,0.669c0.85,0.288,1.652,0.561,2.426,0.583h0.005 c0.89,0,2.139-0.258,3.24-0.485c1.086-0.223,2.024-0.416,2.712-0.416c0.688,0,1.626,0.193,2.712,0.417 c1.104,0.227,2.356,0.485,3.161,0.485c0.857-0.023,1.661-0.296,2.511-0.584c0.968-0.329,1.969-0.669,3.044-0.669 c0.287,0,0.57,0.025,0.842,0.074c1.073,0.196,1.729,0.644,2.307,1.04c0.603,0.412,1.173,0.802,2.514,1.066 c0.264,0.051,0.468-0.044,0.905-0.264c0.466-0.234,1.104-0.555,1.915-0.555c0.475,0,0.953,0.11,1.422,0.329 c1.992,0.927,2.896,1.655,3.819,5.181l0.3,1.123c1.398,5.197,1.848,7.577,1.006,8.87c-0.311,0.476-0.78,0.785-1.327,0.87 c-1.388,0.213-2.546,0.317-3.544,0.317c-1.011,0-1.698-0.106-2.251-0.192c-0.387-0.06-0.692-0.108-1.035-0.108 c-0.599,0-1.375,0.21-2.126,0.412c-0.871,0.236-1.772,0.479-2.658,0.489h-0.004c-1.202,0-1.986-0.213-2.617-0.384 c-0.606-0.164-1.056-0.286-1.765-0.223c-0.376,0.032-0.928,0.178-1.512,0.333C249.907,229.184,248.76,229.488,247.574,229.488 M243.303,225.587c1.228,0,2.015,0.302,2.646,0.545c0.524,0.201,0.902,0.347,1.575,0.355l0.051,1.501v-1.5 c0.795,0,1.701-0.24,2.579-0.473c0.711-0.188,1.385-0.366,2.019-0.422c1.254-0.112,2.085,0.12,2.81,0.316 c0.554,0.151,1.032,0.28,1.747,0.28c0.562-0.006,1.244-0.19,1.966-0.385c0.94-0.254,1.912-0.516,2.908-0.516 c0.575,0,1.043,0.073,1.496,0.143c0.497,0.077,1.012,0.157,1.79,0.157c0.658,0,1.416-0.056,2.304-0.171 c-0.073-1.416-0.937-4.624-1.336-6.106l-0.305-1.142c-0.658-2.513-0.921-2.635-2.182-3.222c-0.067-0.031-0.125-0.049-0.157-0.049 c-0.1,0-0.358,0.13-0.565,0.235c-0.503,0.253-1.19,0.599-2.109,0.599c-0.239,0-0.482-0.024-0.725-0.072 c-1.946-0.383-2.918-1.048-3.628-1.532c-0.456-0.312-0.707-0.484-1.153-0.565c-0.671-0.119-1.475,0.175-2.381,0.483 c-0.976,0.332-2.08,0.707-3.306,0.742l-0.17,0.002c-1.11,0-2.521-0.291-3.766-0.547c-0.809-0.167-1.725-0.355-2.107-0.355 s-1.299,0.188-2.106,0.355c-1.246,0.256-2.656,0.547-3.767,0.547l-0.168-0.002c-1.228-0.035-2.332-0.41-3.307-0.742 c-0.908-0.309-1.716-0.605-2.382-0.483c-0.446,0.081-0.697,0.253-1.153,0.565c-0.71,0.484-1.681,1.149-3.627,1.532 c-0.243,0.048-0.486,0.072-0.725,0.072c-0.919,0-1.607-0.346-2.11-0.599c-0.207-0.105-0.466-0.235-0.565-0.235 c-0.032,0-0.091,0.018-0.158,0.049c-1.26,0.586-1.522,0.708-2.181,3.222l-0.305,1.142c-0.399,1.482-1.262,4.69-1.336,6.106 c0.887,0.115,1.646,0.171,2.303,0.171c0.779,0,1.294-0.08,1.791-0.157c0.453-0.07,0.921-0.143,1.496-0.143 c0.996,0,1.969,0.262,2.908,0.516c0.722,0.195,1.404,0.379,1.909,0.385h0.002c0.771,0,1.25-0.13,1.802-0.28 c0.725-0.197,1.559-0.425,2.809-0.317c0.636,0.057,1.308,0.235,2.021,0.423c0.877,0.233,1.784,0.473,2.577,0.473 c0.724-0.009,1.102-0.155,1.626-0.356C241.288,225.889,242.075,225.587,243.303,225.587"/>
                <path fill="#B5B4B4" d="M178.279,169.789c-1.379,0-2.33-1.335-3.147-2.799 c-0.309-0.434-0.653-0.903-1.025-1.41c-3.687-5.027-10.549-14.383-11.202-29.025c-0.101-2.909,0.238-4.007,0.596-5.169 c0.234-0.757,0.476-1.54,0.607-3.122c0.153-1.848-0.426-4.414-0.892-6.477c-0.344-1.522-0.615-2.724-0.613-3.602 c0.008-3.056,0.931-4.132,2.045-5.13c0.574-0.516,0.99-0.888,1.3-2.13c0.46-1.841,0.231-3.461,0.028-4.89 c-0.178-1.261-0.347-2.451-0.009-3.578c0.703-2.345,1.767-3.476,2.895-4.673c0.834-0.887,1.698-1.803,2.64-3.444 c0.16-0.302,0.085-1.498,0.036-2.289c-0.137-2.198-0.324-5.208,1.614-7.525c2.038-2.436,4.517-2.992,6.51-3.439 c1.312-0.295,2.446-0.55,3.277-1.248c0.422-0.355,0.941-1.546,1.398-2.598c0.83-1.908,1.771-4.071,3.509-5.282 c2.696-1.881,4.925-2.037,7.159-2.037c0.327,0,0.665,0.004,1.015,0.008c0.927,0.01,1.939,0.022,3.103-0.04 c0.923-0.049,1.537-0.694,2.543-1.83c0.997-1.124,2.237-2.525,4.267-3.196c0.699-0.231,1.371-0.344,2.054-0.344 c1.079,0,2.008,0.285,2.908,0.561c1.144,0.35,2.328,0.711,4.122,0.611c0.937-0.055,1.604-0.585,2.378-1.199 c0.888-0.706,1.895-1.506,3.347-1.506c0.014,0,0.087,0.001,0.101,0.001c1.855,0.05,6.068,0.42,7.911,0.607 c0.792,0.077,2.296-0.386,3.634-0.777c1.084-0.316,2.108-0.615,2.927-0.719c2.08-0.259,3.614,0.299,4.945,0.782 c1.046,0.381,1.949,0.71,3.117,0.71l0.182-0.003c0.689-0.02,0.957-0.143,1.49-0.389c0.868-0.401,2.058-0.949,5.075-1.11 c1.326-0.064,2.785,0.558,4.319,1.227c1.187,0.517,2.413,1.051,3.449,1.184c0.331,0.043,0.646,0.064,0.937,0.064 c0.95,0,1.54-0.217,2.224-0.467c0.649-0.239,1.387-0.509,2.331-0.509c1.739,0.012,3.338,0.942,4.749,1.763 c0.752,0.437,1.462,0.85,1.974,0.993c1.258,0.35,2.076,0.159,3.14-0.191c0.793-0.261,1.691-0.556,2.895-0.556 c0.429,0,0.857,0.037,1.31,0.113c1.513,0.253,2.57,1.009,3.504,1.676c1.204,0.861,2.243,1.604,4.41,1.604l1.288-0.026 c0.952-0.022,1.708-0.04,2.354-0.04c2.247,0,3.361,0.231,6.026,1.027c3.622,1.082,4.874,3.153,5.88,4.817 c0.434,0.717,0.809,1.337,1.331,1.841c0.569,0.548,1.426,0.843,2.417,1.184c1.659,0.571,3.725,1.281,5.279,3.548 c0.873,1.271,1.287,2.336,1.653,3.276c0.388,0.995,0.723,1.856,1.583,2.936c0.426,0.535,0.836,0.998,1.229,1.443 c1.271,1.44,2.472,2.801,3.504,5.567c1.081,2.9,0.645,4.632,0.259,6.161c-0.275,1.093-0.493,1.956-0.196,3.353 c0.293,1.381,1.016,2.604,1.782,3.898c1.059,1.79,2.153,3.64,2.15,6.014c-0.003,1.425-0.284,3.571-0.582,5.843 c-0.278,2.127-0.567,4.326-0.62,5.907c-0.053,1.597,0.839,3.936,1.626,6.001c0.782,2.049,1.456,3.819,1.361,5.156 c-1.066,15.128-7.682,24.012-11.235,28.785c-0.383,0.515-0.729,0.978-1.023,1.394c-1.025,1.865-1.975,2.698-3.069,2.698 c-1.354,0-2.16-1.122-2.396-3.335c-0.007-0.058-0.01-0.117-0.009-0.175c0.207-19.352-2.433-33.633-8.827-47.752 c-1.21-2.67-1.057-4.991-0.908-7.235c0.308-4.656,0.625-9.471-11.864-19.512c-9.729-7.82-25.056-12.488-41-12.488 c-18.551,0-35.028,6.208-46.397,17.479c-7.701,7.634-6.94,12.113-6.385,15.382c0.277,1.626,0.537,3.161-0.243,4.648 c-6.601,12.576-9.971,29.131-9.488,46.616c0.012,0.435,0.016,0.718,0.013,0.835l-0.008,0.197 C180.776,166.436,180.656,169.788,178.279,169.789L178.279,169.789z M195.005,72.921c-1.931,0-3.451,0.107-5.443,1.498 c-1.042,0.725-1.803,2.475-2.474,4.018c-0.646,1.486-1.257,2.889-2.22,3.698c-1.391,1.169-2.996,1.529-4.549,1.877 c-1.868,0.42-3.481,0.782-4.866,2.437c-1.171,1.401-1.038,3.533-0.921,5.414c0.098,1.561,0.182,2.91-0.429,3.972 c-1.118,1.944-2.193,3.086-3.057,4.004c-1.027,1.092-1.706,1.813-2.206,3.479c-0.148,0.496-0.03,1.33,0.106,2.295 c0.23,1.617,0.514,3.629-0.087,6.038c-0.535,2.135-1.502,3.003-2.209,3.637c-0.671,0.602-1.041,0.934-1.047,2.904 c-0.001,0.54,0.273,1.756,0.539,2.933c0.51,2.263,1.147,5.079,0.956,7.386c-0.158,1.908-0.462,2.891-0.73,3.759 c-0.306,0.992-0.549,1.776-0.466,4.165c0.613,13.72,6.879,22.264,10.624,27.369c0.401,0.547,0.771,1.052,1.1,1.517 c0.032,0.045,0.062,0.092,0.088,0.14c0.023,0.041,0.045,0.081,0.067,0.119c0.028-0.344,0.051-0.759,0.069-1.256l0.008-0.204 c0.001-0.095-0.005-0.312-0.014-0.637c-0.496-17.99,2.995-35.07,9.831-48.094c0.295-0.561,0.177-1.37-0.058-2.75 c-0.629-3.697-1.578-9.284,7.231-18.016c11.933-11.832,29.161-18.348,48.509-18.348c16.606,0,32.636,4.916,42.879,13.15 c13.708,11.019,13.32,16.878,12.979,22.047c-0.135,2.047-0.252,3.815,0.647,5.8c6.483,14.316,9.22,28.744,9.103,48.093 c0.312-0.439,0.677-0.93,1.083-1.476c3.37-4.527,9.645-12.953,10.649-27.205c0.048-0.676-0.628-2.45-1.173-3.877 c-0.888-2.328-1.894-4.968-1.82-7.169c0.058-1.727,0.355-3.999,0.644-6.197c0.272-2.078,0.554-4.226,0.557-5.457 c0.002-1.551-0.802-2.909-1.732-4.482c-0.815-1.379-1.74-2.941-2.136-4.803c-0.44-2.079-0.088-3.477,0.223-4.71 c0.332-1.316,0.595-2.355-0.16-4.379c-0.838-2.246-1.767-3.298-2.942-4.63c-0.425-0.48-0.866-0.981-1.325-1.559 c-1.145-1.436-1.616-2.648-2.033-3.717c-0.336-0.864-0.654-1.681-1.331-2.667c-0.994-1.449-2.286-1.894-3.781-2.408 c-1.217-0.419-2.476-0.852-3.522-1.86c-0.807-0.777-1.32-1.627-1.817-2.45c-0.89-1.472-1.658-2.744-4.172-3.494 c-2.567-0.767-3.34-0.902-5.167-0.902c-0.627,0-1.359,0.017-2.283,0.039l-1.358,0.027c-3.129,0-4.807-1.199-6.155-2.163 c-0.797-0.57-1.426-1.02-2.254-1.158c-1.086-0.183-1.87,0.038-2.771,0.334c-0.769,0.252-1.64,0.539-2.774,0.539 c-0.675,0-1.366-0.101-2.11-0.308c-0.881-0.247-1.752-0.753-2.674-1.29c-1.088-0.633-2.321-1.35-3.232-1.356 c-0.42,0-0.792,0.136-1.307,0.325c-0.79,0.29-1.772,0.651-3.257,0.651c-0.418,0-0.861-0.03-1.318-0.088 c-1.46-0.187-2.95-0.837-4.267-1.41c-1.108-0.482-2.254-0.982-2.911-0.982c-2.492,0.131-3.307,0.507-4.027,0.839 c-0.637,0.293-1.357,0.626-2.66,0.664l-0.269,0.004c-1.696,0-2.996-0.473-4.143-0.89c-1.195-0.435-2.179-0.797-3.543-0.625 c-0.582,0.074-1.539,0.352-2.463,0.622c-1.718,0.501-3.537,1.008-4.779,0.882c-2.113-0.215-6.067-0.549-7.686-0.593h-0.001 c-0.405,0-0.834,0.325-1.502,0.855c-0.922,0.733-2.184,1.735-4.07,1.845c-2.333,0.133-3.922-0.355-5.173-0.738 c-1.227-0.376-2.065-0.594-3.142-0.236c-1.262,0.417-2.089,1.35-2.963,2.337c-1.129,1.273-2.407,2.717-4.629,2.836 c-1.235,0.066-2.315,0.054-3.298,0.044C195.648,72.925,195.321,72.921,195.005,72.921"/>
            </g>
</svg>