<svg version="1.1" xmlns="http://www.w3.org/2000/svg" x="0px" y="0px" width="100%" height="100%" viewBox="0 0 486 486"
     enable-background="new 0 0 486 486" xml:space="preserve">
<g id="age-female-2">
                <polygon xmlns="http://www.w3.org/2000/svg" fill="#EBD2AB"    points="108.9,320.395 136.201,281.694 149.101,251.094 153,221.094 141.601,233.395 126,245.994 140.701,223.194 153.3,201.895 154.8,169.495 156.3,151.194 158.4,134.395 162,116.094 167.701,97.793 174.3,82.194 184.201,68.995 195,59.094 209.4,51.895 226.8,49.793 237.6,44.395 249.902,43.495 261.902,46.495 272.402,51.895 278.402,57.895 291.902,65.094 303.902,77.995 315.002,98.995 324.902,140.395 329.402,183.594 340.202,194.694 355.202,211.793 366.602,236.094 370.802,260.994 367.202,284.094 363.302,300.594 355.202,321.895 "/>
                <path fill="#DBB276" d="M284.402,138.294 c-8.553-22.53-18.013-53.39-37.801-60.6c-17.709-6.452-36.301,23.4-36.301,23.4s-6.375-14.385-18.3-4.8 c-17.108,13.751-3.484,71.695-46.799,132.9c-0.493,0.697,7.799-7.5,7.799-7.5s-0.9,14.121-2.4,22.201 c-1.5,8.08-6.327,22.813-11.7,33.3c-9.158,17.874-30,42.899-30,42.899l246.901,2.101c0,0,9.666-29.043,10.8-33.601 c1.938-7.785,3-22.5,3-22.5v-12.899l-3.6-19.2l-5.4-10.8l-33.6-25.799l-12.3-10.801l-9.3-12.3 C305.402,174.294,289.713,152.284,284.402,138.294"/>
                <path fill="#DBB276" d="M161.701,119.694 c-3.301,24.3-2.701,52.8,0.299,58.8c-1.799,7.2-7.799,18.599-7.799,18.599S156.6,136.794,161.701,119.694"/>
                <path fill="#DBB276" d="M318.002,109.194 c4.762,17.729,11.4,73.5,11.4,73.5l-17.101-16.8C312.302,165.895,323.656,172.12,318.002,109.194"/>
                <path fill="#DBB276" d="M230.701,48.294 c-3.995,2.674-5.68,7.774-4.5,10.8c1.178,3.025,5.1,1.801,5.1,1.801l-10.201,9c0,0,0.408,0.286-1.799,5.099 c-2.209,4.814-4.393,12.921,5.4,9.3c-8.666,26.661-22.801,12.9-22.801,12.9s-4.566-5.065-1.199-4.2 c6.602,1.697,14.141-8.181,4.5-16.5c-2.564-2.236,0-2.7,0-2.7s8.958-0.115,10.199-9.6c1.189-9.081-3.121-10.896-4.8-11.1 c-1.458-0.176,4.55-1.666,4.8-1.8s7.2-0.6,7.2-0.6S234.695,45.621,230.701,48.294"/>
                <path fill="#F0D8C0" d="M202.201,237.294l-5.101-7.5l-5.7-9.3 l-5.699-18.599L183,190.494l-4.199-20.099l6.599-36.301c0,0,3.471-26.15,10.5-33c6.188-6.029,15,0.9,15,0.9s4.098-4.193,19.5-3.9 c9.975,0.19,22.927,6.086,28.502,9.9c5.574,3.815,20.1,18.6,20.1,18.6s6,15.398,12.6,26.4c6.601,11.002,15,22.5,15,22.5 l-2.399,11.7l-3,11.1l-5.101,20.4l-4.5,7.5l-3.899,6.6l-3.9,4.5l1.5,15.9l4.5,19.8l3.9,9l-0.3,8.1l-6.601,39.301 c0,0-2.081,12.581-3.3,13.8c-22.857,15.255-60.265,14.1-80.701,0c-1.829-2.437-8.401-45.3-8.401-45.3l-1.8-15.301l5.101-11.699 l3.6-12.601L202.201,237.294z"/>
                <path fill="#D7B99A" d="M302.319,194.972 c-0.797,3.571-1.417,6.322-1.417,6.322l-6.601,21l-9.3,14.401c0,0,0.391,1.611-1.511,4.744c1.235,6.144,6.11,30.151,8.303,37.498 c0.441,0.796,0.708,1.309,0.708,1.309l2.4,2.949l-5.101,31.222l-5.7,29.078c-0.274,0.067-10.537,4.393-18,6.3 c6.06-4.46,12.734-18.678,16.2-33.879c3.393-14.88,8.269-35.807,1.642-45.321c-2.248-2.776-7.522-7.074-12.441-3 c-5.311,4.398-17.684,14.101-28.201,14.101c-10.518,0-22.891-9.702-28.2-14.101c-5.292-4.382-10.995,0.923-12.9,3.601 c-0.04,0.054-0.075,0.104-0.113,0.158c-5.762,9.898-1.078,30.049,2.213,44.504c3.465,15.226,10.141,29.47,16.199,33.938 c-7.463-1.91-17.724-6.243-18-6.311l-5.699-29.129l-5.1-31.277l2.4-2.954c0,0,0.298-0.573,0.785-1.449 c2.306-7.904,7.339-32.818,8.34-37.804c-2.034-3.592-3.014-6.772-8.525-13.776c-2.285-2.903-4.8-10.5-4.8-10.5l-4.5-14.699 c0,0-0.739-2.977-1.655-6.695c-6.685-4.02-9.746-11.305-9.746-11.305s7.578-24.82,9.301-36.9c2.263-15.868,5.133-43.045,14.1-47.1 c5.4-4.133,11.859,0.666,13.5,2.1c23.943-11.245,50.807,3.387,67.201,23.099c8.294,19.985,13.045,26.763,23.424,44.397 c6.114,8.161,11.677,14.704,11.677,14.704S306.917,194.492,302.319,194.972 M298.802,172.194c-1.03-2.456-4.095-6.529-6.654-10.369 c-4.133-3.88-3.331-4.562-9.245-6.131c-0.164-0.044-3.782-1.16-3.9-1.2c-2.338-0.454-5.147-0.241-7.2,0 c-1.348,0.157-6.699,0.195-15.3,6.9c-0.185,0.064-0.357,0.114-0.535,0.168c-1.947,2.678-3.925,6.785-4.265,12.731 c-0.567,9.934,2.722,12.775,3,19.201c0.103,2.375-3.911,5.15-5.101,0c-1.162-5.036-2.79-11.004-3.6-20.1s1.824-16.387,5.7-20.701 c0.252-0.279,0.544-0.497,0.862-0.658c1.353-1.411,3.168-2.674,5.438-3.541c4.399-1.681,10.703-4.114,16.5-5.1 c3.455-0.589,6.468-0.533,9.421-0.076c-0.041-0.074-0.079-0.151-0.121-0.225c-8.848-15.431-25.089-26.684-35.399-31.199 c-11.376-4.98-31.14-9.049-37.501-6.9c-20.479,12.601-24.538,39.607-21.961,42.824c0.699-0.561,1.515-0.924,2.161-1.124 c2.225-0.689,5.576-0.869,11.1-2.7s18.741,1.554,23.1,3.599c4.358,2.045,1.078,0.197,6.6,4.2c6.222,4.511-2.412,5.888-5.401,5.401 c-2.988-0.488-9.557-4.022-13.799-3.601c-4.242,0.422-7.12,0.931-8.4,1.801c-3.549,2.409-9.957,3.433-13.217,1.33 c-0.004-0.002-0.006-0.002-0.01-0.004c-4.177-2.077-6.236,8.418-6.873,11.573c-0.091,0.568-0.168,1.097-0.238,1.611 c-0.406,3.875,0.008,9.456,0.358,14.402c1.809,10.96,8.569,23.568,11.283,29.287c4.959,10.452,8.132,24.528,18.903,34.801 c2.96,2.823,0.78,2.223,3.3,3.899c1.617,1.076,2.558,0.742,6.302,4.5c1.579,1.585,2.723,2.132,4.304,3.025 c4.398,2.447,8.587,4.774,8.587,4.774h6.301h6.301c0,0,4.912-2.728,9.681-5.383c1.076-0.611,2.023-1.216,3.22-2.417 c3.742-3.758,4.684-3.424,6.3-4.5c2.521-1.677,0.34-1.076,3.3-3.899c10.77-10.273,13.942-24.349,18.9-34.801 c2.321-4.893,7.607-14.832,10.219-24.466c0.065-0.473,0.156-0.926,0.281-1.334c0.211-0.686,0.386-1.378,0.524-2.069 c0.001-0.007,0.003-0.015,0.003-0.021c0.233-1.163,0.365-2.328,0.404-3.487C301.39,178.934,300.051,175.171,298.802,172.194 M243.301,241.793c-14.022,0-21.623-7.712-12.6-7.2c11.541,0.656,13.732,0.738,25.202,0 C264.782,234.023,257.324,241.793,243.301,241.793 M243.301,213.895c-7.031,0-10.201-6.301-10.201-6.301h20.402 C253.502,207.594,250.445,213.895,243.301,213.895"/>
                <path fill="#5F2C12" d="M192.299,284.094c-0.264,0-0.53-0.069-0.773-0.215 c-0.709-0.428-0.938-1.349-0.51-2.06c6.088-10.103,9.161-29.038,9.385-36.47c0.103-3.41,0.16-7.506,0.009-8.779 c-0.095-0.824,0.493-1.569,1.315-1.665c0.82-0.11,1.568,0.491,1.666,1.313c0.199,1.694,0.092,6.505,0.01,9.221 c-0.241,7.944-3.367,27.226-9.816,37.929C193.303,283.835,192.808,284.094,192.299,284.094"/>
                <path fill="#5F2C12" d="M294.303,284.094c-0.508,0-1.004-0.259-1.286-0.726 c-6.447-10.701-9.573-29.983-9.813-37.929c-0.067-2.184-0.199-7.454,0.01-9.221c0.097-0.822,0.841-1.422,1.665-1.313 c0.823,0.096,1.411,0.842,1.313,1.665c-0.151,1.28-0.094,5.374,0.01,8.778c0.226,7.433,3.299,26.37,9.386,36.471 c0.427,0.711,0.198,1.632-0.511,2.06C294.834,284.024,294.566,284.094,294.303,284.094"/>
                <path fill="#5F2C12" d="M243.301,266.395c-17.596,0-42.999-26.924-50.969-41.584 c-5.519-10.155-10.581-33.396-14.804-54.792c-0.161-0.812,0.369-1.602,1.181-1.762c0.813-0.162,1.602,0.369,1.762,1.182 c3.935,19.935,9.139,44.081,14.498,53.938c7.469,13.742,32.103,40.018,48.332,40.018c15.619,0,40.693-25.961,48.333-40.018 c5.146-9.465,10.104-32.147,13.389-48.383c0.165-0.813,0.963-1.329,1.768-1.174c0.813,0.165,1.338,0.956,1.174,1.767 c-3.604,17.817-8.415,39.512-13.693,49.224C286.509,239.088,260.619,266.395,243.301,266.395"/>
                <path fill="#5F2C12" d="M184.5,197.694c-0.334,0-0.668-0.11-0.947-0.337c0,0-1.08-0.881-2.429-2.036 l-1.178-0.971c-2.783-2.293-5.245-5.229-7.317-8.727c-0.422-0.713-0.187-1.633,0.525-2.056c0.715-0.42,1.635-0.186,2.056,0.526 c1.894,3.199,4.13,5.871,6.644,7.943l1.201,0.989c1.334,1.143,2.386,2.001,2.393,2.006c0.642,0.523,0.739,1.469,0.215,2.11 C185.367,197.506,184.936,197.694,184.5,197.694"/>
                <path fill="#5F2C12" d="M302.403,197.395c-0.446,0-0.888-0.198-1.184-0.578 c-0.51-0.652-0.393-1.595,0.26-2.105c0.011-0.007,0.815-0.636,1.964-1.6l1.304-1.075c2.719-2.241,5.105-5.173,7.092-8.717 c0.405-0.724,1.318-0.981,2.042-0.575c0.723,0.405,0.98,1.319,0.575,2.042c-2.169,3.869-4.793,7.087-7.8,9.564l-1.294,1.067 c-1.195,1.003-2.037,1.66-2.037,1.66C303.05,197.291,302.726,197.395,302.403,197.395"/>
                <path fill="#5F2C12" d="M243.001,232.494c-2.884-0.055-17.479-0.436-24.437-2.549 c-0.792-0.241-1.24-1.079-0.999-1.871c0.241-0.793,1.079-1.239,1.872-1c6.578,1.999,20.807,2.367,23.592,2.42h0.571 c11.527-0.222,19.451-1.031,23.521-2.405c0.786-0.264,1.637,0.156,1.901,0.94c0.266,0.785-0.156,1.637-0.94,1.902 c-6.573,2.219-20.03,2.478-24.453,2.563H243.001z"/>
                <path fill="#5F2C12" d="M243.274,210.594c-4.772,0-9.415-2.149-9.61-2.241 c-0.75-0.352-1.073-1.243-0.723-1.993c0.352-0.75,1.244-1.072,1.994-0.725c0.042,0.021,4.248,1.959,8.339,1.959 c4.131,0,8.353-1.94,8.396-1.96c0.749-0.348,1.644-0.023,1.992,0.729c0.349,0.751,0.023,1.642-0.729,1.992 C252.737,208.447,248.061,210.594,243.274,210.594"/>
                <path fill="#512410" d="M213.301,153.773 c3.877,0,7.02,3.144,7.02,7.021c0,3.876-3.143,7.02-7.02,7.02s-7.021-3.144-7.021-7.02 C206.28,156.917,209.424,153.773,213.301,153.773"/>
                <path fill="#5F2C12" d="M228.9,162.594c-0.363,0-0.728-0.131-1.016-0.396 c-6.648-6.117-18.006-9.767-29.941-1.663c-0.687,0.464-1.618,0.287-2.084-0.398c-0.465-0.686-0.287-1.618,0.398-2.084 c13.385-9.086,26.164-4.958,33.659,1.937c0.609,0.561,0.649,1.51,0.088,2.12C229.709,162.431,229.304,162.594,228.9,162.594"/>
                <path fill="#512410" d="M273.302,153.773 c-3.877,0-7.02,3.144-7.02,7.021c0,3.876,3.143,7.02,7.02,7.02s7.021-3.144,7.021-7.02 C280.323,156.917,277.179,153.773,273.302,153.773"/>
                <path fill="#5F2C12" d="M257.702,162.594c-0.404,0-0.81-0.163-1.104-0.484 c-0.561-0.61-0.521-1.559,0.089-2.12c7.494-6.895,20.271-11.026,33.658-1.937c0.686,0.466,0.863,1.398,0.398,2.084 c-0.465,0.685-1.399,0.862-2.084,0.398c-11.936-8.103-23.292-4.455-29.941,1.663C258.43,162.463,258.065,162.594,257.702,162.594"/>
                <path fill="#BE8A42" d="M126.019,247.354c-0.382,0-0.753-0.134-1.097-0.464 c-1.296-1.245-0.699-2.094,5.01-10.219c5.508-7.839,14.728-20.961,21.705-34.82c2.21-4.391,4.659-11.53,6.627-17.265 c0.898-2.615,1.672-4.874,2.334-6.623c0.293-0.775,1.158-1.164,1.933-0.873c0.775,0.293,1.165,1.158,0.873,1.934 c-0.644,1.706-1.45,4.051-2.303,6.536c-1.998,5.821-4.484,13.067-6.785,17.64c-7.074,14.056-16.374,27.289-21.929,35.197 c-0.504,0.716-1.002,1.425-1.479,2.105c10.525-8.288,26.105-22.589,42.025-57.826c5.551-12.286,8.278-29.499,10.684-44.686 c2.74-17.303,5.108-32.248,10.961-37.694c7.143-6.646,14.647-1.482,17.473,0.462c0.682,0.469,0.855,1.403,0.385,2.086 c-0.469,0.683-1.401,0.855-2.086,0.385c-4.127-2.841-8.988-5.148-13.727-0.738c-5.096,4.743-7.499,19.91-10.043,35.968 c-2.436,15.374-5.195,32.799-10.912,45.451c-18.082,40.021-35.805,53.557-46.394,61.645l-0.563,0.43 C127.888,246.615,126.922,247.354,126.019,247.354 M354.002,241.194c-0.622,0-1.204-0.389-1.418-1.01 c-7.271-21.071-13.549-27.138-23.05-36.321c-9.354-9.041-20.996-20.292-38.917-50.095c-6.278-10.441-10.738-21.531-15.053-32.255 c-8.151-20.269-15.192-37.773-31.52-42.99c-7.448-2.38-14.729,2.335-18.405,5.357c-0.64,0.527-1.585,0.434-2.111-0.207 c-0.527-0.64-0.433-1.585,0.206-2.111c7.163-5.887,14.701-7.983,21.223-5.897c17.671,5.648,24.955,23.758,33.391,44.728 c4.27,10.616,8.685,21.593,14.839,31.828c17.719,29.467,29.203,40.566,38.432,49.485c9.46,9.144,16.295,15.749,23.801,37.499 c0.271,0.783-0.146,1.637-0.929,1.907C354.329,241.168,354.164,241.194,354.002,241.194 M169.579,135.215 c-0.069,0-0.14-0.005-0.21-0.015c-0.82-0.114-1.393-0.872-1.277-1.693c2.153-15.413,4.513-30.094,9.67-40.289 c5.94-11.745,12.6-18.52,19.796-20.134c6.106-1.371,10.806,1.371,13.063,3.127c0.654,0.508,0.771,1.45,0.264,2.105 c-0.51,0.653-1.452,0.769-2.106,0.262c-1.84-1.43-5.658-3.667-10.564-2.567c-6.192,1.39-12.338,7.808-17.776,18.56 c-4.949,9.786-7.259,24.198-9.377,39.352C170.958,134.673,170.315,135.215,169.579,135.215"/>
                <path fill="#BE8A42" d="M360.602,310.494c-0.174,0-0.35-0.03-0.521-0.094 c-0.777-0.288-1.173-1.151-0.885-1.929c18.238-49.119,6.611-77.196-5.556-96.167c-5.428-8.463-13.55-16.092-22.148-24.168 c-9.979-9.372-20.297-19.063-27.962-31.348c-9.49-15.212-16.342-32.342-22.387-47.455c-9.279-23.202-17.293-43.24-31.121-47.918 c-6.254-2.114-15.479-2.367-31.428,14.606c-0.567,0.604-1.517,0.634-2.121,0.066c-0.603-0.568-0.633-1.517-0.065-2.12 c17.118-18.218,27.469-17.8,34.575-15.394c15.139,5.121,23.391,25.754,32.946,49.646c5.997,14.998,12.796,31.996,22.146,46.981 c7.459,11.953,17.631,21.509,27.471,30.749c8.738,8.207,16.991,15.959,22.62,24.735c12.543,19.56,24.543,48.469,5.843,98.832 C361.783,310.121,361.211,310.494,360.602,310.494"/>
                <path fill="#BE8A42" d="M116.4,311.094c-0.398,0-0.796-0.158-1.092-0.471 c-0.568-0.603-0.54-1.552,0.063-2.12c0.339-0.32,34.025-35.109,36.131-85.371c0.039-0.915,0.074-1.84,0.109-2.774 c0.031-0.828,0.744-1.497,1.556-1.443c0.828,0.032,1.473,0.728,1.442,1.556c-0.035,0.939-0.072,1.867-0.11,2.787 c-2.154,51.409-36.722,87.099-37.07,87.427C117.141,310.958,116.77,311.094,116.4,311.094 M153.692,202.807 c-0.015,0-0.028,0-0.043-0.001c-0.828-0.022-1.48-0.713-1.458-1.541c1.184-42.17,2.803-99.923,30.26-132.635 c17.26-20.562,39.192-20.621,43.83-20.373c5.724-4.818,15.536-7.048,25.811-5.824c11.33,1.346,20.933,6.673,26.35,14.617 c4.306,6.314,6.813,13.233,9.717,21.244c3.458,9.544,7.764,21.421,16.737,36.742c0.419,0.715,0.179,1.634-0.536,2.052 c-0.714,0.418-1.633,0.179-2.052-0.536c-9.114-15.557-13.47-27.577-16.97-37.235c-2.952-8.144-5.283-14.575-9.375-20.577 c-4.928-7.227-13.758-12.084-24.225-13.328c-9.599-1.145-18.988,1.017-23.932,5.495c-0.306,0.277-0.717,0.414-1.129,0.382 c-2.464-0.199-24.599-1.375-41.927,19.27c-26.786,31.912-28.389,89.061-29.559,130.79 C155.168,202.162,154.501,202.807,153.692,202.807"/>
                <path fill="#BE8A42" d="M329.4,185.395c-0.733,0-1.374-0.538-1.482-1.285 c-0.666-4.602-1.154-10.152-1.72-16.579c-1.997-22.712-4.731-53.819-18.531-80.753c-7.238-14.125-17.655-23.67-30.964-28.369 c-0.781-0.276-1.191-1.132-0.915-1.913c0.275-0.782,1.134-1.193,1.913-0.915c14.057,4.961,25.036,14.998,32.636,29.83 c14.067,27.455,16.831,58.898,18.85,81.857c0.562,6.383,1.046,11.895,1.7,16.412c0.119,0.819-0.449,1.581-1.27,1.699 C329.545,185.39,329.472,185.395,329.4,185.395"/>
                <path fill="#BE8A42" d="M328.802,289.494c-0.182,0-0.365-0.032-0.545-0.104 c-0.771-0.3-1.153-1.169-0.853-1.941c7.295-18.727,7.701-39.019,1.174-58.683c-0.261-0.786,0.165-1.635,0.951-1.896 c0.788-0.262,1.636,0.166,1.896,0.951c6.75,20.337,6.326,41.333-1.227,60.718C329.969,289.132,329.401,289.494,328.802,289.494"/>
                <path fill="#BE8A42" d="M162.6,285.294c-0.201,0-0.406-0.04-0.604-0.127 c-0.757-0.334-1.101-1.219-0.768-1.978c8.586-19.519,12.077-42.193,10.376-67.395c-0.055-0.826,0.569-1.541,1.396-1.598 c0.838-0.04,1.542,0.571,1.598,1.397c1.733,25.687-1.841,48.837-10.624,68.804C163.727,284.96,163.177,285.294,162.6,285.294"/>
                <path fill="#BE8A42" d="M304.802,285.895c-0.148,0-0.3-0.022-0.45-0.069 c-0.79-0.248-1.229-1.09-0.98-1.881c5.155-16.396,6.317-31.864,3.555-47.285c-0.146-0.816,0.397-1.595,1.212-1.742 c0.815-0.14,1.596,0.397,1.741,1.212c2.851,15.91,1.658,31.844-3.646,48.715C306.031,285.485,305.439,285.895,304.802,285.895"/>
                <path fill="#BE8A42" d="M279.302,128.395c-0.39,0-0.779-0.15-1.072-0.451 c-1.04-1.064-2.123-2.228-3.27-3.46c-6.658-7.154-14.943-16.058-28.867-21.078c-13.593-4.902-28.183-5.01-33.937-0.255 c-0.637,0.528-1.583,0.437-2.111-0.2c-0.528-0.639-0.438-1.584,0.2-2.113c6.612-5.464,22.117-5.571,36.866-0.255 c14.607,5.268,23.53,14.856,30.046,21.857c1.128,1.213,2.195,2.359,3.218,3.406c0.579,0.593,0.568,1.542-0.023,2.121 C280.059,128.251,279.68,128.395,279.302,128.395"/>
                <path fill="#BE8A42" d="M227.4,149.693c-0.16,0-0.322-0.025-0.482-0.08 c-1.268-0.43-2.538-0.89-3.813-1.352c-6.676-2.418-13.578-4.917-20.843-3.111c-4.785,1.19-6.69,1.75-9.103,2.459 c-0.839,0.246-1.741,0.512-2.847,0.827c-0.795,0.226-1.627-0.233-1.854-1.03c-0.228-0.796,0.233-1.627,1.03-1.855 c1.096-0.313,1.992-0.576,2.825-0.821c2.446-0.718,4.378-1.286,9.225-2.492c8.149-2.024,15.491,0.632,22.589,3.203 c1.255,0.454,2.506,0.908,3.755,1.332c0.785,0.266,1.205,1.117,0.938,1.902C228.609,149.299,228.025,149.693,227.4,149.693"/>
                <path fill="#BE8A42" d="M259.202,149.693c-0.625,0-1.208-0.394-1.42-1.018 c-0.268-0.785,0.153-1.636,0.938-1.902c1.249-0.424,2.499-0.877,3.754-1.332c7.1-2.571,14.444-5.23,22.591-3.203 c0.748,0.186,1.428,0.357,2.049,0.517c0.803,0.205,1.287,1.021,1.082,1.824c-0.205,0.803-1.025,1.29-1.824,1.082 c-0.616-0.157-1.289-0.326-2.031-0.512c-7.266-1.805-14.169,0.694-20.844,3.112c-1.274,0.462-2.544,0.922-3.813,1.352 C259.524,149.668,259.362,149.693,259.202,149.693"/>
            </g>
</svg>