<svg version="1.1" xmlns="http://www.w3.org/2000/svg" x="0px" y="0px" width="100%" height="100%" viewBox="0 0 486 486"
     enable-background="new 0 0 486 486" xml:space="preserve">
<g id="age-male-2">
                <path fill="#F0D8C0" d="M202.2,239.95l-6.601-7.8l-9.299-12 l-3.6-21.6l-2.4-11.7l-3-24.9l2.1-2.7l2.1-15.6l1.8-16.2l6.9-23.4l11.1,4.8l19.5-1.5l6.299,2.7l16.202,5.4l11.399,1.8l15,0.3 l13.8-1.8l11.4-7.5l3.3,4.8l3.3,10.2l5.1,24l0.9,12.9l1.8,7.8l-3.3,22.5l-4.2,17.1l-2.1,13.2l-4.5,6.6l-6,6l-4.2,6.6l0.3,11.4   l4.5,19.801l-10.2,23.101l-4.8,4.799c0,0-12.429,1.554-19.5,7.5c-7.071,5.947-11.081,15.882-12.3,17.101   c-4.481-7.819-7.907-15.364-15.3-18.899c-9.276-4.437-18.9-7.201-18.9-7.201l-8.4-16.2l-2.7-12.3l3.6-12.6L202.2,239.95z"/>
                <path fill="#F0D8C0" d="M312.3,149.65l-3,12.899 c0,0-0.556,5.755-1.2,9c-1.806,9.1-3.3,26.701-3.3,26.701l8.4-5.1l5.399-21l0.601-12.3l-2.4-11.1L312.3,149.65z"/>
                <polygon fill="#F0D8C0" points="179.4,172.15 177.9,162.85 175.5,150.85 169.5,148.15 167.4,156.85 168,169.45 170.4,182.049 174,194.65 182.1,197.95  "/>
                <path fill="#D8BA9B" d="M273,272.95   c-7.604,3.477-9.819,1.521-14.4,3.301c-4.654,1.806-6.452,5.399-15.299,5.399c-8.848,0-10.647-3.594-15.301-5.399   c-4.581-1.78-6.798,0.176-14.4-3.301c-7.598-3.476-9.756-5.978-16.2-3.601c2.191-5.996,4.8-29.1,4.8-29.1l9.3,10.501   c0,0,9.182,8.931,11.4,10.199c2.218,1.268,13.2,7.2,13.2,7.2l7.8,0.601l7.8-1.201c0,0,16.382-11.332,18.6-12.6   c2.219-1.269,6-6.9,6-6.9l8.7-8.4c0,0,2.309,26.704,4.5,32.7C281.544,267.395,280.598,269.475,273,272.95"/>
                <path fill="#D8BA9B" d="M207,269.95   c-5.523-4.255-2.798,17.678,7.5,29.399c2.055,0,1.32-0.572,6.6,3c-7.973-3.287-11.7-4.199-11.7-4.199l-10.5-20.399l-1.5-6   l1.5-4.201C198.9,267.55,207.572,268.139,207,269.95"/>
                <path fill="#D8BA9B" d="M169.2,168.25   c2.83,9.708,9.995,15.569,11.1,21.601c1.105,6.03,1.986,8.607-0.6,8.099c-8.735-1.717-9.9-20.4-9.9-20.4   S166.369,158.542,169.2,168.25"/>
                <path fill="#D8BA9B" d="M225.3,147.25   c-4.358-2.045-17.576-5.431-23.1-3.6s-8.874,2.012-11.1,2.701c-2.225,0.687-6.49,3.31-0.9,9.299c2.825,3.027,10.195,2.052,14.1-0.6   c1.28-0.869,4.158-1.379,8.4-1.8c4.242-0.421,10.812,3.112,13.8,3.601c2.988,0.487,11.623-0.89,5.401-5.401   C226.379,147.446,229.658,149.294,225.3,147.25"/>
                <path fill="#D8BA9B" d="M274.5,143.049   c-5.797,0.987-12.483,3.516-16.8,5.4c-9.227,4.028-10.999,16.081-1.2,12.6c7.221-2.564,13.043-6.907,14.4-6.899   c3.428,0.018,12.249-3.691,14.399-2.401c2.151,1.29,9.913-1.52,12.601-4.8C288.927,144.053,283.075,141.589,274.5,143.049"/>
                <path fill="#D8BA9B" d="M253.5,205.75   c-0.007,0.175-5.332,2.136-10.496,2.778c-4.358,0.543-9.904-2.778-9.904-2.778s1.598,8.101,10.201,8.101   C251.902,213.851,253.5,205.75,253.5,205.75"/>
                <path fill="#D8BA9B" d="M305.7,151.45   c-8.067-42.961-14.996-27.273-40.2-27.6c-18.52-0.24-34.13-4.582-45-9.3c-20.579,4.754-24.028-0.739-28.5,3.6   c-7.336,7.116-10.8,31.2-10.8,31.2s-1.735-14.394,9-44.7c2.729,1.56,14.515,8.756,30.899,2.4c5.856,2.732,11.78,5.997,19.201,7.8   c6.961,1.692,31.656,6.829,54.6-6C298.095,112.977,308.115,139.729,305.7,151.45"/>
                <path fill="#D8BA9B" d="M230.7,234.549   c11.542,0.656,13.73,0.737,25.2,0c8.88-0.57,1.422,7.201-12.6,7.201C229.277,241.75,221.678,234.036,230.7,234.549"/>
                <path fill="#D8BA9B" d="M279.6,269.95   c5.523-4.255,2.799,17.678-7.5,29.399c-2.055,0-1.32-0.572-6.6,3c7.974-3.287,11.7-4.199,11.7-4.199l10.5-20.399l1.5-6l-1.2-3.601   C288,268.15,279.027,268.139,279.6,269.95"/>
                <path fill="#D8BA9B" d="M211.8,296.351   c23.334,4.108,31.501,20.1,31.501,20.1s4.006-15.911,33.299-20.401c-4.8,4.633-21.6,12-21.6,12l-6.9,7.5l-4.799,9.302l-5.701-11.4   l-10.199-8.7C227.401,304.75,209.625,299.868,211.8,296.351"/>
                <path fill="#D8BA9B" d="M251.7,152.65   c-3.876,4.313-6.51,11.604-5.7,20.7c0.81,9.096,2.137,14.465,3.3,19.5c1.189,5.15,3.878,4.153,5.4,2.4   c0.958-1.103-0.414-7.63-2.101-12.9c-1.439-4.501-0.953-8.026,0.301-13.5c0.691-3.022,1.719-6.492,3.6-8.1   C262.838,155.333,254.49,149.544,251.7,152.65"/>
                <path fill="#D8BA9B" d="M316.885,168.605   c-2.807,9.672-9.911,15.511-11.007,21.519s-1.97,8.576,0.596,8.07c8.66-1.711,9.816-20.324,9.816-20.324   S319.69,158.933,316.885,168.605"/>
                <path fill="#D8BA9B" d="M179.7,172.75   c7.912,8.903,6.692,27.889,13.5,42.601c6.083,13.146,29.327,45.578,14.1,30c-3.151-2.801-19.8-22.801-19.8-22.801l-4.2-22.8   C183.3,199.75,178.789,171.547,179.7,172.75"/>
                <path fill="#D8BA9B" d="M306.778,172.788   c-7.888,8.905-6.672,27.895-13.457,42.609c-6.064,13.151-29.235,45.59-14.056,30.008c3.141-2.801,19.737-22.804,19.737-22.804   l4.187-22.807C303.189,199.793,307.687,171.584,306.778,172.788"/>
                <path fill="#5F2C12" d="M243.301,269.651c-4.157,0-9.08-0.341-14.095-2.861   c-16.59-9.705-36.768-37.057-42.559-45.21c-2.34-3.667-5.061-22.202-8.952-50.069c-0.801-5.742-1.586-11.366-2.332-16.486   c-1.321-7.17,5.633-55.139,5.93-57.177c0.084-0.581,0.5-1.059,1.062-1.223l60.524-17.714c0.275-0.081,0.567-0.081,0.843,0   l60.522,17.714c0.563,0.164,0.979,0.642,1.063,1.223c0.296,2.038,7.25,50.006,5.92,57.233c-0.736,5.06-1.521,10.68-2.321,16.417   c-3.891,27.874-6.613,46.415-8.912,50.02c-5.832,8.215-26.006,35.565-42.518,45.226   C252.38,269.311,247.456,269.651,243.301,269.651 M184.123,99.233c-2.081,14.426-6.808,49.832-5.801,55.305   c0.757,5.18,1.543,10.81,2.346,16.558c2.828,20.265,6.348,45.486,8.467,48.809c5.662,7.967,25.513,34.893,41.503,44.25   c4.37,2.193,8.859,2.496,12.663,2.496c3.802,0,8.292-0.303,12.745-2.542c15.91-9.313,35.759-36.237,41.461-44.267   c2.077-3.262,5.599-28.489,8.428-48.759c0.802-5.744,1.588-11.37,2.334-16.491c1.016-5.527-3.71-40.934-5.792-55.36l-59.176-17.32   L184.123,99.233z"/>
                <path fill="#5F2C12" d="M294.301,284.05c-0.508,0-1.004-0.259-1.286-0.727   c-6.447-10.701-9.573-29.983-9.813-37.928c-0.038-4.166-0.002-5.438,0-5.49c0.024-0.828,0.74-1.468,1.543-1.455   c0.828,0.025,1.479,0.716,1.455,1.543c0,0.013-0.035,1.293,0.001,5.344c0.225,7.399,3.298,26.338,9.385,36.438   c0.427,0.71,0.198,1.631-0.511,2.059C294.832,283.98,294.564,284.05,294.301,284.05"/>
                <path fill="#5F2C12" d="M192.299,284.05c-0.264,0-0.53-0.069-0.771-0.215   c-0.711-0.428-0.94-1.349-0.514-2.059c6.076-10.102,9.144-29.04,9.367-36.472c0.036-4.019,0.001-5.298,0-5.312   c-0.023-0.827,0.629-1.518,1.456-1.543c0.816-0.015,1.519,0.627,1.544,1.455c0.001,0.052,0.037,1.324,0,5.458   c-0.24,7.976-3.359,27.257-9.795,37.959C193.304,283.79,192.808,284.05,192.299,284.05"/>
                <path fill="#5F2C12" d="M182.645,199.15c-0.305,0-1.257-0.025-2.182-0.307   c-2.504-0.789-5.756-2.166-8.82-5.881c-0.105-0.127-0.187-0.27-0.246-0.424c-4.43-11.73-8.559-39.13-3.059-44.47   c1.123-1.09,2.591-1.341,4.134-0.706c3.962,1.686,5.329,7.1,5.386,7.33c0.197,0.804-0.295,1.617-1.1,1.814   c-0.802,0.196-1.615-0.295-1.814-1.099c-0.291-1.164-1.508-4.375-3.631-5.278c-0.555-0.228-0.731-0.059-0.885,0.092   c-3.531,3.429-1.353,27.459,3.688,41.021c1.983,2.345,4.161,3.767,7.236,4.736c0.588,0.179,1.311,0.172,1.316,0.172   c0.85-0.05,1.514,0.639,1.532,1.467c0.018,0.828-0.639,1.514-1.467,1.532C182.717,199.15,182.688,199.15,182.645,199.15"/>
                <path fill="#5F2C12" d="M304.198,199.15c-0.784,0-1.443-0.609-1.495-1.403   c-0.054-0.826,0.573-1.54,1.4-1.594c0,0,0.521-0.038,1.201-0.192c3.045-0.968,5.207-2.388,7.18-4.718   c5.042-13.563,7.22-37.593,3.688-41.022c-0.154-0.15-0.33-0.32-0.901-0.084c-2.107,0.896-3.325,4.111-3.615,5.273   c-0.199,0.802-1.018,1.294-1.815,1.094c-0.804-0.199-1.295-1.008-1.098-1.812c0.057-0.23,1.425-5.644,5.37-7.323   c1.556-0.641,3.025-0.391,4.147,0.7c5.501,5.34,1.372,32.74-3.058,44.469c-0.059,0.154-0.142,0.298-0.246,0.425   c-3.063,3.715-6.315,5.092-8.807,5.876c-0.035,0.012-0.072,0.022-0.108,0.03c-0.947,0.221-1.666,0.273-1.745,0.278   C304.265,199.149,304.231,199.15,304.198,199.15"/>
                <path fill="#5F2C12" d="M243,232.45c-2.883-0.055-17.479-0.436-24.436-2.549   c-0.793-0.241-1.24-1.079-1-1.871c0.241-0.793,1.079-1.242,1.872-0.999c6.578,1.998,20.808,2.366,23.593,2.419h0.57   c11.527-0.222,19.45-1.031,23.52-2.405c0.785-0.268,1.637,0.155,1.902,0.941c0.265,0.784-0.157,1.636-0.941,1.901   c-6.573,2.22-20.029,2.478-24.451,2.563H243z"/>
                <path fill="#5F2C12" d="M243.273,210.549c-4.771,0-9.414-2.15-9.609-2.241   c-0.75-0.351-1.074-1.243-0.723-1.993s1.244-1.074,1.994-0.724c0.041,0.019,4.248,1.958,8.338,1.958   c4.109,0,8.354-1.941,8.396-1.96c0.75-0.348,1.643-0.021,1.991,0.73c0.348,0.751,0.022,1.642-0.729,1.991   C252.735,208.401,248.059,210.549,243.273,210.549"/>
                <path fill="#514540" d="M178.2,162.549l-6.601-25.199v-15.901   l0.506-13.2l2.699-14.099c0,0,5.731-20.525,18.065-29.415c-2.152-15.345-0.383-31.982,6.931-32.986   c7.457,7.028,21.6,8.401,21.6,8.401l10.199-10.201c0,0,7.938,18.3,20.101,21.601c2.433-6.16,4.5-9.781,6.3-8.7   c13.691,22.702,45.032,19.352,42.6,36.379c4.111,1.605,8.101,7.2,8.101,7.2l4.5,17.32c0,0,1.522,17.338,1.5,18   c-0.022,0.663,0.899,9.901,0.899,9.901l-3.3,25.2l-3.899,5.699l-1.5-9L304.8,139.15l-3.6-16.201   c0.512-0.037-1.945-7.755-6.32-13.82c-4.872,4.403-12.58,5.721-12.58,5.721l-9.899,2.399l-10.801,0.3l-15-1.5l-14.699-3.6   l-11.4-5.4c-10.981,4.459-22.977,2.336-30.6-2.699l-4.801,16.199l-3.599,16.5l-0.6,11.7L178.2,162.549z"/>
                <path fill="#403632" d="M313.5,104.95   c-1.83,11.977-2.156,37.563-7.8,31.8c0.931,10.289,3.899,25.2,3.899,25.2l4.801-17.7C314.4,144.25,315.33,92.973,313.5,104.95"/>
                <path fill="#403632" d="M304.5,83.049   c0.865,3.551-3.39,31.776-6,31.2c-2.61-0.575-3.9-5.099-3.9-5.099s-22.844,21.636-74.399-2.101c-20.553,5.187-30-2.399-30-2.399   l-11.7,57.899c0,0-10.748-22.709-4.5-64.8c-2.317,28.288,5.219,35.202,8.7,29.401c3.481-5.802,6.3-24,6.3-24s-1.85-1.734-2.4-4.5   c6.217,3.807,21.73,5.073,24.9,2.7c-2.245-2.953-5.1-6.901-5.1-6.901s44.648,23.996,72,10.201c27.353-13.796,18.3-33.6,18.3-33.6   l3.3,2.399l1.2,7.201C301.2,80.65,303.635,79.499,304.5,83.049"/>
                <path fill="#403632" d="M195.3,73.15   c-5.751,1.199-12.726,3.434-16.5,12.6c-3.773,1.044,7.8-15,7.8-15l5.7-4.2C192.3,66.55,194.495,69.755,195.3,73.15"/>
                <path fill="#38302C" d="M227.4,149.65c-0.157,0-0.317-0.025-0.475-0.078   c-1.914-0.638-3.8-1.339-5.625-2.017c-5.638-2.096-10.966-4.077-14.115-2.999c-8.066,2.757-13.545,4.144-17.76,4.498   c-0.825,0.075-1.55-0.544-1.621-1.369c-0.068-0.825,0.544-1.551,1.369-1.62c3.961-0.333,9.217-1.674,17.041-4.348   c4.163-1.421,9.708,0.638,16.131,3.026c1.801,0.669,3.664,1.361,5.53,1.984c0.786,0.262,1.211,1.111,0.948,1.897   C228.613,149.253,228.028,149.65,227.4,149.65"/>
                <path fill="#38302C" d="M259.2,149.65c-0.625,0-1.208-0.394-1.42-1.018   c-0.267-0.785,0.153-1.636,0.938-1.903c1.863-0.633,3.725-1.336,5.524-2.017c6.428-2.43,11.979-4.529,16.15-3.08   c7.821,2.72,13.075,4.083,17.035,4.422c0.825,0.071,1.438,0.798,1.366,1.623c-0.07,0.825-0.793,1.43-1.622,1.367   c-4.219-0.362-9.697-1.773-17.764-4.578c-3.144-1.095-8.468,0.92-14.104,3.052c-1.824,0.69-3.709,1.403-5.621,2.052   C259.522,149.625,259.36,149.65,259.2,149.65"/>
                <path fill="#38302C" d="M308.729,164.246c-0.132,0-0.267-0.013-0.404-0.041   c-1.701-0.337-1.93-2.487-2.016-3.296c-1.444-17.511-4.674-39.976-11.896-49.877c-7.304,6.1-19.813,9.143-34.718,8.378   c-22.017-1.128-43.269-10.193-54.143-23.093c-0.533-0.633-0.453-1.579,0.181-2.113c0.634-0.535,1.579-0.454,2.114,0.18   c10.363,12.295,30.776,20.942,52.002,22.03c14.94,0.767,27.229-2.384,33.708-8.643c0.297-0.286,0.684-0.44,1.11-0.419   c0.413,0.019,0.8,0.207,1.068,0.52c6.699,7.784,11.24,25.294,13.5,52.05c4.9-10.261,8.069-50.168-0.126-69.133   c-2.251-5.211-5.163-8.401-8.653-9.48c-0.628-0.194-1.057-0.775-1.057-1.433c0-10.145-7.433-13.184-16.843-17.032   c-8.861-3.623-18.856-7.71-24.602-18.793c-1.869,1.31-3.748,3.739-4.163,8.237c-0.04,0.443-0.275,0.844-0.641,1.097   c-0.367,0.252-0.825,0.329-1.253,0.211c-0.573-0.159-13.674-3.979-20.688-21.788c-11.141,9.224-10.456,17.714-10.421,18.087   c0.082,0.821-0.515,1.557-1.335,1.643c-0.821,0.087-1.555-0.502-1.647-1.322c-0.05-0.455-1.069-11.261,13.186-22.061   c0.383-0.289,0.881-0.38,1.339-0.24c0.46,0.139,0.826,0.489,0.983,0.942c4.949,14.212,14.061,19.572,17.76,21.222   c1.071-5.61,4.26-8.249,6.883-9.486c0.364-0.17,0.778-0.188,1.155-0.052c0.376,0.138,0.682,0.419,0.849,0.784   c5.105,11.127,15,15.172,23.729,18.742c9.335,3.817,18.167,7.429,18.685,18.746c3.894,1.596,7.081,5.218,9.487,10.786   c8.679,20.084,5.272,61.003-0.017,71.81C311.104,162.779,310.116,164.246,308.729,164.246"/>
                <path fill="#38302C" d="M254.101,61.15c-0.457,0-0.908-0.208-1.203-0.603   c-2.055-2.752-2.28-6.668-2.09-8.548c0.084-0.824,0.817-1.427,1.644-1.341c0.824,0.083,1.425,0.819,1.341,1.643   c-0.158,1.568,0.112,4.579,1.51,6.452c0.495,0.664,0.359,1.604-0.305,2.099C254.728,61.053,254.412,61.15,254.101,61.15"/>
                <path fill="#38302C" d="M195.301,74.051c-0.596,0-1.158-0.356-1.394-0.942   c-3.754-9.369-7.18-29.128,3.793-43.759c0.273-0.364,0.697-0.584,1.15-0.599c0.478-0.013,0.891,0.176,1.187,0.52   c7.445,8.653,21.588,9.374,21.73,9.381c0.827,0.036,1.469,0.737,1.432,1.565c-0.037,0.827-0.724,1.463-1.565,1.432   c-0.601-0.027-14.118-0.721-22.569-9.032c-8.909,13.403-5.769,30.901-2.372,39.375c0.307,0.769-0.066,1.642-0.835,1.951   C195.675,74.016,195.487,74.051,195.301,74.051"/>
                <path fill="#38302C" d="M265.561,97.416c-13.671,0-27.56-1.312-39.148-9.187   c-8.409-5.714-15.152-14.754-18.5-24.805c-0.262-0.785,0.162-1.635,0.949-1.897c0.787-0.264,1.635,0.163,1.896,0.949   c3.1,9.299,9.582,17.999,17.342,23.272c12.466,8.471,28.109,8.895,43.071,8.607c0.01-0.001,0.02-0.001,0.03-0.001   c0.814,0,1.482,0.653,1.499,1.471c0.016,0.829-0.643,1.513-1.471,1.529C269.349,97.391,267.456,97.416,265.561,97.416"/>
                <path fill="#38302C" d="M178.593,164.262c-1.558,0-2.48-1.904-2.942-2.859   c-2.786-6.794-6.481-26.15-5.693-46.392c0.69-17.697,5.097-40.903,22.182-50.954c0.714-0.421,1.634-0.182,2.054,0.532   c0.42,0.715,0.181,1.633-0.533,2.054c-28.888,16.995-21.016,78.36-15.499,92.964c0.016-0.217,0.03-0.454,0.039-0.715   c0.014-0.341,2.177-36.044,10.897-55.75c0.334-0.757,1.22-1.1,1.978-0.764c0.758,0.335,1.1,1.22,0.764,1.978   c-8.508,19.229-10.628,54.316-10.641,54.651c-0.095,2.488-0.427,4.842-2.189,5.211   C178.865,164.248,178.727,164.262,178.593,164.262"/>
                <path fill="#38302C" d="M208.203,110.662c-18.281,0-23.327-10.56-23.568-11.091   c-0.344-0.754-0.01-1.644,0.744-1.987c0.752-0.341,1.638-0.011,1.983,0.739c0.265,0.562,6.534,13.195,31.945,8.156   c0.814-0.161,1.603,0.367,1.763,1.179c0.162,0.813-0.366,1.602-1.179,1.763C215.498,110.292,211.618,110.662,208.203,110.662"/>
                <path fill="#38302C" d="M295.799,88.15c-0.324,0-0.65-0.104-0.926-0.32   c-3.93-3.085-11.517-3.02-20.313-2.944l-1.549,0.013c-0.811-0.04-1.506-0.66-1.512-1.489c-0.006-0.828,0.66-1.505,1.488-1.511   l1.547-0.013c9.357-0.079,17.434-0.15,22.191,3.584c0.651,0.512,0.765,1.455,0.252,2.106   C296.684,87.953,296.243,88.15,295.799,88.15 M263.401,84.784c-0.021,0-0.043-0.001-0.064-0.002   c-8.15-0.347-14.679-1.498-20.547-3.622c-3.333-1.205-6.566-2.879-9.611-4.974c-0.683-0.47-0.855-1.404-0.386-2.087   c0.471-0.681,1.405-0.854,2.087-0.385c2.833,1.951,5.839,3.506,8.931,4.625c5.573,2.017,11.818,3.112,19.653,3.446   c0.828,0.035,1.471,0.735,1.436,1.563C264.864,84.153,264.2,84.784,263.401,84.784 M228.249,71.65c-0.384,0-0.769-0.146-1.062-0.44   c-4.107-4.112-7.038-8.818-8.474-13.61c-0.238-0.793,0.213-1.629,1.006-1.867c0.792-0.24,1.63,0.212,1.867,1.006   c1.295,4.318,3.966,8.589,7.725,12.351c0.584,0.586,0.584,1.536-0.002,2.121C229.016,71.504,228.633,71.65,228.249,71.65"/>
                <path fill="#512410" d="M273.3,153.729   c-3.877,0-7.021,3.144-7.021,7.021c0,3.876,3.144,7.02,7.021,7.02s7.021-3.144,7.021-7.02   C280.32,156.873,277.177,153.729,273.3,153.729"/>
                <path fill="#512410" d="M213.3,153.729   c3.877,0,7.021,3.144,7.021,7.021c0,3.876-3.144,7.02-7.021,7.02s-7.021-3.144-7.021-7.02   C206.279,156.873,209.423,153.729,213.3,153.729"/>
                <path fill="#512410" d="M228.9,162.549c-0.363,0-0.727-0.131-1.016-0.396   c-6.65-6.118-18.007-9.767-29.942-1.663c-0.687,0.465-1.618,0.287-2.084-0.398c-0.466-0.686-0.286-1.619,0.398-2.084   c13.387-9.087,26.165-4.958,33.66,1.937c0.609,0.561,0.649,1.51,0.088,2.12C229.709,162.386,229.304,162.549,228.9,162.549"/>
                <path fill="#512410" d="M257.7,162.549c-0.404,0-0.808-0.163-1.104-0.484   c-0.561-0.61-0.521-1.559,0.089-2.12c7.494-6.895,20.271-11.025,33.658-1.937c0.686,0.465,0.863,1.398,0.398,2.084   c-0.466,0.686-1.399,0.863-2.084,0.398c-11.935-8.105-23.292-4.455-29.941,1.663C258.428,162.418,258.063,162.549,257.7,162.549"/>
            </g>

<g>

    <path fill="#FAB63D" d="M237.304,19.799
        c0-3.147,2.619-5.699,5.85-5.699s5.85,2.552,5.85,5.699"/>
    <path fill="#EA8010" d="M249.003,21.299c-0.828,0-1.5-0.672-1.5-1.5c0-2.315-1.951-4.199-4.35-4.199
        s-4.35,1.884-4.35,4.199c0,0.828-0.672,1.5-1.5,1.5c-0.828,0-1.5-0.672-1.5-1.5c0-3.97,3.297-7.199,7.35-7.199
        c4.053,0,7.35,3.229,7.35,7.199C250.503,20.627,249.831,21.299,249.003,21.299"/>
    <path fill="#543F78" d="M176.989,72.167
        c3.486-2.541,5.884-5.038,6.65-5.874c-13.605-0.277-21.652-0.676-24.812-6.229c3.697,7.452,25.151,5.797,25.077,5.934
        c0,0-0.091,0.106-0.265,0.295c0.089,0.002,0.176,0.004,0.265,0.006c23.88,0.48,52.054-1.373,59.399-3.901
        c7.345,2.528,35.658,1.278,59.398,3.901c5.669,0.625,0.231,10.972-3.3,8.399c1.692,6.701,13.676,12.585,14.999,18.3
        c17.184,1.274,30.009-7.791,32.099-9.367c-3.74,0.484-7.786,0.478-11.999-0.233c3.44,0.336,12.301,0,12.301,0
        s-0.104,0.084-0.302,0.233c15.417-1.996,25.627-12.344,20.701-16.133c-21.282-16.371-38.755-26.719-48.882-30.564
        C283.065,23.545,264.29,21.6,243.304,21.6c-20.987,0-39.762,1.945-75.016,15.334c-10.127,3.845-27.601,14.193-48.883,30.564
        c-4.926,3.789,5.283,14.137,20.701,16.133c-0.197-0.149-0.301-0.233-0.301-0.233s8.86,0.336,12.299,0
        c-4.212,0.711-8.258,0.717-11.998,0.233c2.09,1.576,14.915,10.641,32.098,9.367C173.528,87.283,175.296,78.869,176.989,72.167
        c-3.488,2.542-8.064,5.128-13.185,6.131"/>
    <path fill="#3B275F" d="M362.074,77.013l0.627,0.985
        c0,0-7.043,3.891-17.1,6c-4.08,2.584-8.448,4.455-12.563,5.808c-0.694,0.268-1.405,0.53-2.138,0.792
        c-1.416,0.506-3.225,0.89-5.126,1.182c-6.093,1.331-10.474,1.518-10.474,1.518l-0.99-0.604c-0.133,0.004-0.21,0.004-0.21,0.004
        l-0.783-0.61l-4.85-2.957l-3.667-1.833l-21.423-5.869l-2.662-0.311l-16.028-1.32h-10.586l-25.799-0.599l-25.5,2.099l-21.899,6
        l-6.601,3.3l-2.699,2.1c0,0-11.327-0.145-16.8-2.1c-5.471-1.954-9.838-3.982-13.799-7.5c-5.993-0.522-12.385-2.811-16.799-5.699
        c-7.167-4.692-6.601-8.401-6.601-8.401s2.284-8.404,44.099-27.899c-23.115,14.265-34.873,22.063-32.108,27.935
        c1.277,2.707,3.543,4.381,8.109,3.265c-4.489-0.883-5.398-2.736-4.8-3c7.79-3.441,17.908-9.892,19.199-14.7
        c1.402-5.214-0.759-8.499,55.799-26.7c-25.411,16.004-46.566,19.027-44.398,24.301c2.927,7.119,17.805-0.165,35.699-0.301
        c19.913-0.153,37.11,1.407,41.099-4.5c2.23-3.303,8.185-2.868,10.5-0.3c1.553,1.723,5.466,3.399,10.737,4.946
        c4.528,1.107,13.335-0.234,24.962-0.146c17.894,0.136,34.461,8.142,36,0.599c1.408-6.9-23.729-19.484-28.5-23.099
        c0.68-3.103,38.572,18.949,40.8,21.301c4.932,5.203,1.107,9.76,12.396,15.785c7.445,3.737,9.203,1.613,9.203,1.613l0.016,0.025
        c1.233-5.769-13.174-15.584-35.115-29.125c41.815,19.496,46.799,30,46.799,30S368.634,72.506,362.074,77.013"/>
    <path fill="#281F4B" d="M177.005,71.698l-5.101,20.7
        c0,0,10.683-13.5,70.5-13.5c64.671,0,71.698,14.4,71.698,14.4l-4.199-20.999l-6-6c0,0-51.26-1.127-62.099-4.202
        c-32.68,5.501-58.199,3.601-58.199,3.601L177.005,71.698z"/>
    <path fill="#1E1839" d="M317.724,94.021c-1.124,0-2.269-0.041-3.434-0.127
        c-0.654-0.048-1.202-0.517-1.35-1.158c-0.447-1.928-0.944-4.164-1.472-6.537c-0.985-4.433-2.098-9.436-3.176-13.747
        c-2.825-2.124-4.684-4.161-5.659-5.253c-22.467,0.446-53.877-0.947-62.869-3.423c-0.104,0.029-0.207,0.056-0.313,0.081
        c-17.148,4.117-33.492,3.785-54.179,3.369l-0.995-0.02c-1.077,1.124-3.149,3.145-5.965,5.248c-1.074,4.3-2.185,9.29-3.168,13.713
        c-0.531,2.385-1.031,4.633-1.48,6.57c-0.147,0.64-0.695,1.109-1.349,1.157c-16.931,1.247-29.68-7.152-32.792-9.427
        c-12.197-1.695-21.241-8.35-22.662-13.619c-0.552-2.045,0.042-3.917,1.628-5.138c19.404-14.926,37.82-26.432,49.266-30.779
        c26.426-10.037,43.626-13.78,60.544-14.96c0.816-0.071,1.633-0.121,2.45-0.154c4.132-0.23,8.274-0.318,12.554-0.318
        c22.642,0,41.388,2.459,75.548,15.432c11.444,4.346,29.861,15.853,49.265,30.779c1.587,1.221,2.181,3.093,1.629,5.138
        c-1.422,5.268-10.466,11.924-22.662,13.619C344.185,86.586,332.928,94.021,317.724,94.021 M315.613,90.97
        c10.966,0.534,19.956-3.18,25.238-6.105c-2.208-0.022-4.413-0.219-6.601-0.588c-0.797-0.135-1.344-0.877-1.237-1.677
        c0.107-0.8,0.83-1.365,1.634-1.295c3.298,0.323,12.009-0.004,12.097-0.006c0.211-0.01,0.407,0.027,0.592,0.097
        c11.075-1.728,18.535-7.707,19.513-11.331c0.306-1.134-0.14-1.653-0.563-1.978c-19.184-14.756-37.314-26.103-48.499-30.352
        c-1.758-0.667-3.471-1.305-5.146-1.917c2.019,1.347,3.919,2.614,5.227,3.39c0.774,0.46,1.685,0.973,2.683,1.535
        c4.188,2.359,9.923,5.59,13.814,9.497c1.04,1.043,0.578,2.712-0.242,5.139c-0.012,0.035-0.024,0.069-0.039,0.102
        c-4.327,10.256-19.003,11.333-27.432,11.6c0.986,0.973,2.266,2.118,3.848,3.272c0.001,0,0.001,0,0.002,0.001
        c4.238,3.089,8.474,5.065,12.59,5.872c0.813,0.16,1.343,0.948,1.183,1.761c-0.159,0.813-0.948,1.339-1.761,1.183
        c-3.477-0.682-7.004-2.099-10.524-4.224c0.83,3.499,1.656,7.216,2.409,10.603C314.826,87.477,315.234,89.315,315.613,90.97
         M145.755,84.865c5.282,2.926,14.294,6.638,25.238,6.105c0.38-1.664,0.791-3.513,1.223-5.454c0.751-3.376,1.575-7.082,2.403-10.57
        c-3.521,2.125-7.048,3.542-10.525,4.224c-0.812,0.164-1.602-0.37-1.761-1.183c-0.16-0.813,0.37-1.601,1.183-1.761
        c4.116-0.807,8.352-2.783,12.59-5.872l0.001-0.001c1.603-1.169,2.964-2.321,4.034-3.301c-9.476-0.581-22.873-3.056-27.566-12.06
        c-0.017-0.033-0.033-0.067-0.048-0.102c-0.647-1.509-0.657-3.011-0.029-4.462c2.104-4.859,11.244-8.182,21.829-12.031
        c4.324-1.571,8.794-3.196,12.878-4.973c5.293-2.304,10.241-4.456,14.955-6.34c-9.571,2.308-20.317,5.706-33.339,10.651
        c-11.187,4.249-29.318,15.596-48.5,30.352c-0.423,0.325-0.87,0.844-0.563,1.979c0.978,3.623,8.438,9.602,19.513,11.33
        c0.185-0.07,0.393-0.107,0.592-0.097c0.086,0.003,8.794,0.33,12.095,0.006c0.805-0.07,1.528,0.494,1.634,1.295
        c0.106,0.8-0.44,1.542-1.237,1.677C150.168,84.646,147.962,84.843,145.755,84.865 M184.218,64.204l1.115,0.022
        c20.305,0.412,36.383,0.737,53.009-3.189c0.219-0.218,0.505-0.37,0.826-0.421c0.763-0.121,2.798-1.436,4.035-3.46
        c0.085-0.166,0.155-0.315,0.212-0.443c0.621-1.407,0.758-2.69,0.625-3.576c-0.069-0.314-0.171-0.623-0.308-0.929
        c-0.326-0.734-0.016-1.596,0.704-1.953c0.72-0.359,1.594-0.083,1.981,0.62c0.271,0.492,0.459,1.056,0.564,1.667
        c0.401,1.865,0.083,3.808-0.944,5.701c-0.063,0.117-0.13,0.234-0.199,0.35c-0.588,1.138-1.332,2.134-2.196,2.954
        c10.81,1.861,36.813,3.098,59.029,2.651c0.59-0.026,1.325-0.046,2.147-0.066c7.324-0.191,22.552-0.587,26.479-9.768
        c0.18-0.533,0.571-1.704,0.65-2.293c-3.602-3.492-8.943-6.501-12.871-8.714c-1.021-0.575-1.952-1.099-2.743-1.57
        c-1.395-0.828-3.365-2.143-5.452-3.535c-3.805-2.539-8.54-5.698-10.808-6.549c-0.227-0.085-0.419-0.219-0.574-0.385
        c-22.86-7.254-38.298-8.819-56.197-8.819c-4.01,0-7.895,0.078-11.769,0.282c-0.061,0.01-0.124,0.015-0.187,0.017
        c-0.111,0.004-0.223,0.008-0.335,0.011c-0.874,0.048-1.745,0.103-2.619,0.166c-12.141,1.081-24.568,6.488-39.991,13.199
        c-4.169,1.814-8.685,3.456-13.051,5.043c-9.101,3.308-18.511,6.73-20.1,10.402c-0.29,0.668-0.286,1.317,0.011,2.039
        c3.349,6.337,13.534,10.164,27.994,10.526C183.613,64.065,183.946,64.102,184.218,64.204"/>
    <path fill="#1E1839" d="M314.702,96.298c-0.738,0-1.419-0.537-1.533-1.267
        c-1.158-7.356-29.508-15.232-69.865-15.233c-40.522,0.001-68.998,7.879-70.167,15.235c-0.117,0.729-0.745,1.265-1.482,1.265
        c-0.458,0-0.916-0.209-1.201-0.568c-0.284-0.359-0.414-0.828-0.31-1.274l5.353-22.848c0.188-0.807,0.993-1.308,1.803-1.12
        c0.806,0.19,1.307,0.997,1.119,1.803l-3.823,16.318c10.97-7.776,40.302-11.81,68.708-11.811
        c28.276,0.001,57.471,4.03,68.408,11.797l-3.979-17.026c-0.188-0.807,0.313-1.614,1.12-1.802c0.809-0.186,1.612,0.313,1.802,1.12
        l5.508,23.569c0.103,0.446-0.001,0.915-0.286,1.275C315.593,96.089,315.16,96.298,314.702,96.298"/>
    <path fill="#FAB63D" d="M340.201,58.498
        c2.449,2.656,1.896,10.857,1.785,22.227c-0.108,10.973-1.74,46.246-2.385,66.872c-0.063,2.026,3.947-0.9,4.5-0.9
        c0.552,0,1.039,2.608,1.5,2.699c0.46,0.092,3.463-2.007,4.199-2.099c0.737-0.092,0.874-57.504,0-74.099
        c-0.76-14.425-4.912-15.103-10.759-17.452C339.572,56.916,339.723,57.529,340.201,58.498"/>
    <path fill="#EA8010" d="M351.884,116.446
        c-0.032,31.591-0.205,32.117-1.833,32.328c-0.306,0.115-1.151,0.61-1.665,0.91c-1.477,0.863-2.102,1.213-2.754,1.213l-0.326-0.032
        c-1.032-0.207-1.393-1.175-1.774-2.203c-0.004-0.009-0.01-0.021-0.013-0.032c-1.261,0.676-2.314,1.179-3.272,1.179
        c-0.781,0-1.271-0.336-1.543-0.618c-0.28-0.289-0.607-0.809-0.582-1.642c0.271-8.676,0.716-19.972,1.147-30.895
        c0.601-15.216,1.168-29.589,1.229-35.924c0.017-1.646,0.042-3.226,0.066-4.732c0.116-7.253,0.216-13.588-1.098-15.952
        c0.01-0.009,0.018-0.017,0.028-0.025c-1.478-2.433-1.678-4.724-3.029-7.088c1.463,0.79,2.857,1.34,4.212,1.871
        c6.102,2.391,9.877,4.556,10.602,18.338C351.75,82.091,351.898,102.063,351.884,116.446 M348.292,73.3
        c-0.539-10.28-2.669-12.937-6.178-14.642c1.669,3.145,1.575,9.019,1.44,17.387c-0.024,1.501-0.049,3.074-0.065,4.714
        c-0.063,6.38-0.631,20.774-1.231,36.015c-0.412,10.432-0.837,21.207-1.111,29.703c0.427-0.202,0.882-0.448,1.147-0.591
        c0.852-0.459,1.279-0.69,1.81-0.69c1.266,0,1.759,1.162,2.167,2.25c0.213-0.122,0.427-0.247,0.608-0.352
        c0.671-0.393,1.173-0.681,1.578-0.884C348.974,139.569,349.158,89.774,348.292,73.3"/>
</g>
</svg>