<?xml version="1.0" encoding="utf-8"?>
<!-- Generator: Adobe Illustrator 16.0.2, SVG Export Plug-In . SVG Version: 6.00 Build 0)  -->
<!DOCTYPE svg PUBLIC "-//W3C//DTD SVG 1.1//EN" "http://www.w3.org/Graphics/SVG/1.1/DTD/svg11.dtd">
<svg version="1.1" id="Слой_1" xmlns="http://www.w3.org/2000/svg" xmlns:xlink="http://www.w3.org/1999/xlink" x="0px" y="0px"
	 width="612px" height="792px" viewBox="0 0 612 792" enable-background="new 0 0 612 792" xml:space="preserve">
<path fill="#FF0302" stroke="#631212" stroke-width="12" stroke-miterlimit="10" d="M178.913,258.632
	c-2.185,1.157-2.315,1.283-2.315,61.333c0,48.604,0.389,65.065,1.544,66.223c1.672,1.673,51.561,2.314,55.548,0.772
	c1.802-0.644,2.058-4.114,2.058-24.558c0-13.888,0.513-24.691,1.286-26.233c1.286-2.315,3.085-2.444,39.605-2.444
	c28.161,0,38.704,0.385,39.861,1.542c1.032,1.028,1.543,8.616,1.543,25.461c0,16.844,0.514,24.431,1.54,25.459
	c1.674,1.673,51.563,2.314,55.55,0.771c1.799-0.642,2.057-5.014,2.057-35.36v-34.591h3.088c5.27,0,9.128,6.173,10.933,17.489
	c5.143,33.305,11.573,46.549,25.461,52.847c6.168,2.83,8.356,3.217,17.615,2.699c24.047-1.287,33.305-12.6,35.104-42.562
	l0.768-12.474h-13.116h-12.988l0.77,8.744c1.286,13.372-3.47,21.344-11.057,18.904c-6.045-1.929-6.435-5.016-6.435-56.194
	c-0.124-40.761-0.386-43.844-2.054-46.03c-1.929-2.571-3.6-2.571-123.056-2.829C220.833,257.347,180.328,257.731,178.913,258.632z"
	/>
<path fill="#F5F5F5" stroke="#00083F" stroke-width="12" stroke-miterlimit="10" d="M274.324,136.342
	c-1.029,0.257-7.072,1.157-13.501,1.929c-27.262,3.472-52.079,13.373-62.751,24.689c-6.944,7.457-16.46,25.846-19.03,37.032
	c-0.896,3.857-1.671,15.045-1.671,24.817c-0.129,14.403,0.253,15.945,1.799,16.972c1.157,0.771,48.092,1.286,122.158,1.286
	c109.814,0,120.616-0.128,123.316-2.187c2.957-2.056,3.084-0.384,2.314-17.614c-1.54-36.39-13.501-60.18-35.875-71.238
	c-23.018-11.316-43.209-15.173-83.972-15.688C290.142,136.085,275.355,136.085,274.324,136.342z"/>
<g transform="translate(0.000000,207.000000) scale(0.100000,-0.100000)">
	<path fill="#4B5586" d="M2743.259,706.587c-10.293-2.573-70.723-11.582-135.02-19.292
		c-272.598-34.727-520.781-133.726-627.505-246.895c-69.438-74.58-164.585-258.457-190.298-370.322
		c-9.004-38.584-16.724-150.454-16.724-248.169c-1.289-144.028,2.573-178.755,18.003-189.028
		c11.567-7.72,480.913-12.866,1221.582-12.866c1098.149,0,1206.137,1.294,1233.149,21.86c29.57,20.571,30.85,23.149,23.145,195.454
		c-15.449,363.901-135.02,601.797-358.75,712.373c-230.176,113.159-432.06,151.738-839.687,156.885
		C2901.423,709.155,2753.537,709.155,2743.259,706.587z M2244.333,305.391l48.872-33.428l96.44,73.291
		c53.999,39.853,96.44,64.292,96.44,55.293c0-9.004-14.146-60.439-32.153-111.875c-17.998-51.436-32.134-99.014-32.134-104.155
		c0-5.146,43.711-41.147,97.72-78.442l97.734-68.145l-124.741-6.436l-124.736-6.426l-29.57-92.583
		c-47.573-151.733-43.711-150.449-88.711-23.145l-39.868,115.728l-122.168,6.426l-122.153,6.436l96.436,69.443
		c52.715,38.574,97.734,69.419,97.734,70.708c1.279,1.289-14.141,50.151-33.438,110.591
		c-20.581,60.435-37.285,114.443-37.285,119.58c-1.299,6.436,23.149-7.705,53.994-29.565
		C2172.341,355.537,2218.625,323.398,2244.333,305.391z M2945.154,336.255c43.701-33.442,82.28-60.435,86.143-60.435
		c5.142,0,51.44,32.144,104.155,70.718c52.715,39.863,96.436,66.87,96.436,60.439s-14.131-54.014-32.148-105.444
		c-17.998-51.436-32.139-101.582-32.139-110.586c0-7.715,43.721-47.578,97.715-86.152l97.734-72.007l-126.025-3.862l-124.717-3.857
		l-38.584-113.159c-20.566-63.003-39.854-110.581-43.711-108.008c-2.578,3.857-20.571,54.009-39.858,113.159l-34.736,108.008
		l-124.727,6.426L2704.68,37.93l91.299,62.998c50.146,33.438,93.877,69.443,97.725,79.736c3.862,8.994-8.999,61.714-26.997,117.017
		c-37.3,113.149-39.868,127.31-16.719,110.571C2857.707,401.831,2901.423,368.398,2945.154,336.255z M3820.832,305.391
		c25.703,18.008,72.011,50.146,102.851,73.296c29.57,21.86,54.023,38.579,54.023,36.001c0-2.573-18.008-56.577-38.584-119.59
		c-21.875-63.008-34.717-118.306-29.58-122.158c6.426-5.146,51.445-37.28,100.313-72.012l90-62.998l-123.428-3.857l-122.178-3.857
		l-37.295-114.443c-20.566-63.008-39.854-111.87-43.721-108.013c-3.857,3.857-21.846,53.999-39.863,111.865l-33.418,105.444
		l-126.016,6.426l-127.314,6.436l99.043,69.443c53.975,38.574,97.705,73.291,97.705,77.144c0,3.857-14.141,52.72-32.158,108.013
		c-17.998,55.298-32.119,105.444-32.119,113.164c0,6.421,43.701-20.586,96.426-60.439l96.426-73.291L3820.832,305.391z"/>
	<path fill="#B35757" d="M1789.143-471.279c-21.855-11.572-23.145-57.866-23.145-658.354c0-486.064,3.857-650.664,15.435-662.236
		c16.709-16.714,515.635-23.135,555.493-7.72c17.993,6.426,20.566,41.157,20.566,245.596c0,138.887,5.142,246.899,12.861,262.329
		c12.861,23.149,30.859,24.424,396.055,24.424c281.602,0,387.031-3.843,398.613-15.42c10.303-10.283,15.43-86.167,15.43-254.619
		c0-168.438,5.137-244.302,15.449-254.59c16.699-16.714,515.615-23.135,555.488-7.72c17.988,6.426,20.557,50.151,20.557,353.613
		v345.908h30.879c52.695,0,91.279-61.733,109.316-174.883c51.416-333.032,115.723-465.478,254.6-528.496
		c61.689-28.291,83.555-32.148,176.143-27.002c240.459,12.871,333.047,126.016,351.055,425.63l7.715,124.731H4570.48h-129.863
		l7.705-87.446c12.852-133.73-34.707-213.462-110.586-189.023c-60.439,19.287-64.287,50.151-64.287,561.948
		c-1.27,407.603-3.857,483.467-20.576,505.332c-19.287,25.718-36.006,25.718-1230.576,28.291
		C2208.332-458.428,1803.284-462.285,1789.143-471.279z"/>
</g>
<path fill="#722626" d="M207.417,353.622c-2.186,1.158-39.888,40.508,27.022,33.335c1.803-0.642,2.059-4.115,2.059-24.558
	c0-13.887,0.517-24.69,1.285-26.233c1.286-2.315,3.088-2.444,39.604-2.444c28.163,0,38.707,0.387,39.863,1.542
	c1.032,1.029,1.542,8.617,1.542,25.461c0,16.842,0.517,24.431,1.544,25.458c1.673,1.674,51.561,2.315,55.549,0.772
	c1.799-0.643,2.056-5.015,2.056-35.362v-34.59c0,0-40.105,68.565-60.693,18.261C235.855,335.01,234.808,329.579,207.417,353.622z"/>
</svg>
