<svg xmlns="http://www.w3.org/2000/svg" width="33" height="21" viewBox="0 0 33 21"><title>eda</title><path d="M35.81,12.1a0.68,0.68,0,0,0-.42.16l-0.06,0L19.9,5.56a0.68,0.68,0,0,0-.55,0L3.91,12.22a0.68,0.68,0,0,0,0,1.25l3.71,1.6v7.26a0.68,0.68,0,0,0,.3.57,20.77,20.77,0,0,0,23.38,0,0.68,0.68,0,0,0,.3-0.57V15.07l3.5-1.51v9.23a0.69,0.69,0,0,0,1.38,0v-10A0.69,0.69,0,0,0,35.81,12.1ZM30.24,22A19.38,19.38,0,0,1,9,22v-6.3l10.34,4.46a0.67,0.67,0,0,0,.27.06,0.68,0.68,0,0,0,.28-0.06l10.34-4.46V22Zm-10.62-3.2L5.91,12.85,19.62,6.93l13.71,5.92Z" transform="translate(-3.5 -5.5)" style="fill:#fff"/></svg>