<svg xmlns="http://www.w3.org/2000/svg" width="32.02" height="22" viewBox="0 0 32.02 22"><title>g</title><path d="M35.24,4.74a0.87,0.87,0,0,0-.73-0.25l-4.91.64a0.87,0.87,0,0,0-.5,1.47l1.52,1.51-2.56,2.55a7.82,7.82,0,0,0-7.28-1.32l0-.05A7.8,7.8,0,0,0,9.1,19.66L6.54,22.21,5,20.63a0.87,0.87,0,0,0-1.23,1.22l1.58,1.57L3.73,25A0.87,0.87,0,0,0,5,26.23l1.58-1.58,1.58,1.57A0.87,0.87,0,1,0,9.35,25L7.77,23.43l2.56-2.55a7.77,7.77,0,0,0,4.87,1.7,7.85,7.85,0,0,0,2.41-.38l0,0.05A7.8,7.8,0,0,0,29.29,11.89l2.56-2.55,1.52,1.51a0.87,0.87,0,0,0,1.48-.5l0.64-4.89A0.86,0.86,0,0,0,35.24,4.74Zm-14,10.06a6,6,0,0,1-1.78,4.28,6.09,6.09,0,0,1-1.37,1,6,6,0,0,1,.76-7.63,6.09,6.09,0,0,1,1.37-1A6,6,0,0,1,21.28,14.8Zm-6.08,6.05a6.05,6.05,0,1,1,3.87-10.72,7.85,7.85,0,0,0-1.41,1.11,7.75,7.75,0,0,0-1.19,9.47A6.15,6.15,0,0,1,15.21,20.85ZM27.49,21a6.09,6.09,0,0,1-8.17.38,7.85,7.85,0,0,0,1.41-1.11,7.74,7.74,0,0,0,1.19-9.47,6.15,6.15,0,0,1,1.27-.13A6,6,0,0,1,27.49,21ZM33.36,8.39L31.59,6.62l2-.26Z" transform="translate(-3.48 -4.49)" style="fill:#555"/></svg>