<svg xmlns="http://www.w3.org/2000/svg" width="27.98" height="29.98" viewBox="0 0 27.98 29.98"><title>inc</title><path d="M13.06,15.09a1.1,1.1,0,1,0,1.1,1.1A1.1,1.1,0,0,0,13.06,15.09Zm9.36-5.46a3.15,3.15,0,1,0-3.15-3.15A3.15,3.15,0,0,0,22.42,9.63Zm0-5.11a2,2,0,1,1-1.95,2A2,2,0,0,1,22.42,4.52Zm10.17,9.41a0.6,0.6,0,0,0-1,.53,1.66,1.66,0,0,1,0,.3A1.94,1.94,0,0,1,31.15,16a10.16,10.16,0,0,0-4.57-5.3A6,6,0,1,0,17.06,9a14.23,14.23,0,0,0-2.2.51,3.13,3.13,0,0,0-3.65-.5,0.6,0.6,0,0,0-.32.53v2.1a9.79,9.79,0,0,0-3,4H7.65a2.15,2.15,0,0,0-2.14,2.15v1.8a2.15,2.15,0,0,0,2.14,2.15H7.89a9.78,9.78,0,0,0,3,4v2.65A2.14,2.14,0,0,0,13,30.49h1.8A2.14,2.14,0,0,0,17,28.35a15,15,0,0,0,5.48-.1v0.09a2.14,2.14,0,0,0,2.14,2.15h1.8a2.14,2.14,0,0,0,2.14-2.15V25.26A8.94,8.94,0,0,0,31.59,19a3.18,3.18,0,0,0,1.9-2.9A3.14,3.14,0,0,0,32.59,13.93ZM22.42,1.71a4.76,4.76,0,1,1-4.75,4.76A4.76,4.76,0,0,1,22.42,1.71ZM30.84,18a0.71,0.71,0,0,0-.44.66,7.74,7.74,0,0,1-2.87,5.84,0.6,0.6,0,0,0-.21.46v3.35a0.94,0.94,0,0,1-.94.94h-1.8a0.94,0.94,0,0,1-.94-0.94V27.5A0.6,0.6,0,0,0,23.41,27a0.58,0.58,0,0,0-.52-0.11A13.75,13.75,0,0,1,16.5,27a0.59,0.59,0,0,0-.5.12,0.6,0.6,0,0,0-.22.47v0.72a0.94,0.94,0,0,1-.94.94H13a0.94,0.94,0,0,1-.94-0.94V25.41a0.6,0.6,0,0,0-.24-0.48,8.53,8.53,0,0,1-3-4,0.6,0.6,0,0,0-.57-0.41H7.65a0.94,0.94,0,0,1-.94-0.94v-1.8a0.94,0.94,0,0,1,.94-0.94H8.31a0.6,0.6,0,0,0,.57-0.41,8.55,8.55,0,0,1,3-4A0.6,0.6,0,0,0,12.09,12V10a1.91,1.91,0,0,1,2.13.65,0.6,0.6,0,0,0,.67.19,13.19,13.19,0,0,1,2.86-.66,6,6,0,0,0,.81.84c-0.28,0-.56,0-0.85,0a0.6,0.6,0,0,0,.1,1.2A12.87,12.87,0,0,1,25,13.68a0.6,0.6,0,0,0,.58-1.05,12.37,12.37,0,0,0-1.14-.54,5.91,5.91,0,0,0,1.16-.56,8.82,8.82,0,0,1,4.68,5.65,0.6,0.6,0,0,0,.86.4,3.2,3.2,0,0,0,1.15-1A2,2,0,0,1,30.84,18Z" transform="translate(-5.51 -0.51)" style="fill:#555"/></svg>