<svg xmlns="http://www.w3.org/2000/svg" width="30" height="24" viewBox="0 0 30 24"><title>ms</title><path d="M14.37,15.08c2.86,0,5.19-2.6,5.19-5.79s-2.33-5.79-5.19-5.79S9.18,6.09,9.18,9.29,11.51,15.08,14.37,15.08Zm0-10.26c2.12,0,3.84,2,3.84,4.46s-1.72,4.46-3.84,4.46-3.84-2-3.84-4.46S12.25,4.82,14.37,4.82Zm6.47,14.09a19.88,19.88,0,0,0-13.16,0A5,5,0,0,0,4.5,23.53l0.38,3.35a0.67,0.67,0,0,0,.67.62H23a0.67,0.67,0,0,0,.67-0.62L24,23.53A5,5,0,0,0,20.84,18.91ZM22,26.39H6.2V26.16L5.85,23.44a4.11,4.11,0,0,1,2.28-3.28A19.61,19.61,0,0,1,11.93,19a18.56,18.56,0,0,1,8.44,1.19,4.05,4.05,0,0,1,2.28,3.28Zm12.43-2.11a4.42,4.42,0,0,0-2.8-4.08,17.1,17.1,0,0,0-5.39-1,0.68,0.68,0,0,0-.69.65,0.67,0.67,0,0,0,.66.68,15.69,15.69,0,0,1,5,.89,3.42,3.42,0,0,1,2.15,2.76v2.18H26.58c-0.37,0-.7.07-0.7,0.44a0.67,0.67,0,0,0,.68.67h6.93a1.06,1.06,0,0,0,1-.56ZM32.34,11.82a4.45,4.45,0,0,0-4.19-4.66,4.45,4.45,0,0,0-4.2,4.66,4.45,4.45,0,0,0,4.2,4.66A4.45,4.45,0,0,0,32.34,11.82Zm-7,0a3.12,3.12,0,0,1,2.85-3.33A3.12,3.12,0,0,1,31,11.82a3.12,3.12,0,0,1-2.84,3.33A3.12,3.12,0,0,1,25.3,11.82Z" transform="translate(-4.5 -3.49)" style="fill:#555"/></svg>