<svg xmlns="http://www.w3.org/2000/svg" width="23.01" height="24.98" viewBox="0 0 23.01 24.98"><title>pva</title><path d="M28.26,16.11c1.15-3.14,2.2-6.38,3.22-9.9a0.55,0.55,0,0,0-.9-0.55A6,6,0,0,1,26.33,7.5c-2,0-4-.94-6.09-1.94s-4.33-2-6.56-2A6.74,6.74,0,0,0,9.59,4.89V4.1a0.55,0.55,0,1,0-1.1,0V27.94a0.55,0.55,0,1,0,1.1,0V22.75a6,6,0,0,1,4.08-1.69c2,0,4,.94,6.09,1.94s4.33,2,6.56,2a7.07,7.07,0,0,0,5-2.14,0.55,0.55,0,0,0,.09-0.7A45.24,45.24,0,0,1,28.26,16.11Zm-1.93,7.84c-2,0-4-.94-6.09-1.94s-4.33-2-6.56-2a6.74,6.74,0,0,0-4.08,1.37v-15a6,6,0,0,1,4.08-1.69c2,0,4,.94,6.09,1.94s4.33,2,6.56,2a6.64,6.64,0,0,0,3.62-1.06c-0.89,3-1.8,5.71-2.79,8.4a0.55,0.55,0,0,0,0,.41,49.4,49.4,0,0,0,3.08,6.05A5.87,5.87,0,0,1,26.33,23.95Z" transform="translate(-8.49 -3.51)" style="fill:#fff"/></svg>