<svg xmlns="http://www.w3.org/2000/svg" width="22.99" height="25.99" viewBox="0 0 22.99 25.99"><title>tic</title><path d="M4.53,13.35v2.91a0.7,0.7,0,0,0,.69.71h3.1A7.65,7.65,0,0,0,13,18.69,7.65,7.65,0,0,0,17.67,17h3.43a0.7,0.7,0,0,0,.69-0.71V13.11a3.19,3.19,0,0,0,1-1.57,3.25,3.25,0,0,0,0-1.93,2,2,0,0,0-1.08-1.22,9,9,0,0,0-.25-1.72h0v0A8.85,8.85,0,0,0,17.15,1.1l0,0-0.35-.18-0.42-.2-0.17-.07Q15.84,0.49,15.5.38h0A8,8,0,0,0,13.1,0H13A8.73,8.73,0,0,0,4.45,7.53h0Q4.38,8,4.36,8.39A2,2,0,0,0,3.29,9.61a3.24,3.24,0,0,0,0,1.93A3,3,0,0,0,4.53,13.35Zm1.38,2.21V14.21a10.57,10.57,0,0,0,.95,1.35H5.91Zm14.51,0H19.14a10.64,10.64,0,0,0,1.28-1.89v1.89ZM13.06,1.42h0.19a6.62,6.62,0,0,1,.72.06l0.42,0.07a6.75,6.75,0,0,1,.79.2l0.31,0.12a7,7,0,0,1,.7.31l0.14,0.07a7.68,7.68,0,0,1,3.55,4.24A7.73,7.73,0,0,1,16.73,7a7.49,7.49,0,0,1-6.19-3.25A0.68,0.68,0,0,0,10,3.48H9.92a0.69,0.69,0,0,0-.56.4A5.51,5.51,0,0,1,6,6.73,7.45,7.45,0,0,1,13.06,1.42ZM4.58,10.1a0.63,0.63,0,0,1,.36-0.42H5A0.7,0.7,0,0,0,5.73,9V8.85c0-.2,0-0.4,0-0.6a7,7,0,0,0,4.3-2.82,8.86,8.86,0,0,0,5.45,2.92H14a0.35,0.35,0,0,0-.34.35V10H12.14V8.7a0.35,0.35,0,0,0-.34-0.35H6.71a0.35,0.35,0,0,0-.34.35V12a0.35,0.35,0,0,0,.34.35H11.8A0.35,0.35,0,0,0,12.14,12V10.72H13.7V12a0.35,0.35,0,0,0,.34.35h5.08A0.35,0.35,0,0,0,19.47,12V8.7a0.35,0.35,0,0,0-.34-0.35H18.22a8.07,8.07,0,0,0,2-.47,7.69,7.69,0,0,1,.07,1s0,0.07,0,.08a0.7,0.7,0,0,0,.7.71h0.1a0.63,0.63,0,0,1,.36.42,1.82,1.82,0,0,1,0,1.06,1.31,1.31,0,0,1-1,1.08l-0.14,0a0.68,0.68,0,0,0-.9.35c-1.33,2.87-3.85,4.72-6.42,4.72s-5.1-1.85-6.42-4.72a0.71,0.71,0,0,0-.65-0.39,0.73,0.73,0,0,0-.29.06,1.17,1.17,0,0,1-1.07-1.07A1.82,1.82,0,0,1,4.58,10.1Zm14.2-1v2.62H14.39V9.06h4.39Zm-7.33,0v2.62H7.06V9.06h4.4Zm8.65,8.53H17.59a0.68,0.68,0,0,0-.57.31c-1,1.49-2.32,1.79-4,1.79s-3-.31-4-1.79a0.69,0.69,0,0,0-.57-0.31H5.9c-2.46,0-4.39,2.84-4.39,6.47v1.23a0.7,0.7,0,0,0,.69.71H23.81a0.7,0.7,0,0,0,.69-0.71V24.06C24.5,20.43,22.57,17.59,20.1,17.59Zm3,7H2.88V24.06c0-2.74,1.38-5.06,3-5.06H8.06A5.63,5.63,0,0,0,13,21.1,5.63,5.63,0,0,0,17.94,19H20.1c1.63,0,3,2.32,3,5.06v0.52Z" transform="translate(-1.5 0)" style="fill:#444"/></svg>