<?xml version="1.0" encoding="utf-8"?>
<svg version="1.1" xmlns="http://www.w3.org/2000/svg" xmlns:xlink="http://www.w3.org/1999/xlink" x="0px" y="0px"
	 width="30px" height="30px" viewBox="2 2 30 30" enable-background="new 2 2 30 30" xml:space="preserve">
<g id="Symbol_2_">
	<g>
		<path fill="#FFFFFF" d="M31.907,7.95c-1.098,0.487-2.276,0.815-3.514,0.963c1.263-0.757,2.233-1.954,2.69-3.383
			c-1.181,0.701-2.491,1.21-3.888,1.484c-1.113-1.188-2.706-1.931-4.466-1.931c-3.377,0-6.117,2.738-6.117,6.117
			c0,0.481,0.053,0.949,0.158,1.395c-5.086-0.256-9.595-2.69-12.613-6.39C3.633,7.11,3.331,8.156,3.331,9.278
			c0,2.122,1.08,3.994,2.721,5.091c-1.003-0.031-1.945-0.305-2.773-0.764v0.077c0,2.963,2.108,5.433,4.91,6
			c-0.513,0.138-1.054,0.213-1.612,0.213c-0.395,0-0.777-0.038-1.149-0.111c0.778,2.43,3.037,4.202,5.716,4.246
			c-2.095,1.641-4.732,2.619-7.599,2.619c-0.496,0-0.982-0.028-1.46-0.085c2.707,1.736,5.923,2.748,9.38,2.748
			c11.252,0,17.407-9.319,17.407-17.402c0-0.266-0.009-0.528-0.019-0.791C30.05,10.253,31.088,9.177,31.907,7.95z"/>
	</g>
</g>
</svg>
