<?xml version="1.0" encoding="utf-8"?>
<svg version="1.1" id="Слой_1" xmlns="http://www.w3.org/2000/svg" xmlns:xlink="http://www.w3.org/1999/xlink" x="0px" y="0px"
	 viewBox="0 0 34 30" style="enable-background:new 0 0 34 30;" xml:space="preserve">
<style type="text/css">
	.st0{fill:#FFFFFF;}
</style>
<path class="st0" d="M3.9,10.5h5.6v18.1H3.9V10.5z M6.7,1.5c1.8,0,3.3,1.5,3.3,3.3C10,6.5,8.5,8,6.7,8C4.9,8,3.5,6.5,3.5,4.7
	C3.5,2.9,4.9,1.5,6.7,1.5"/>
<path class="st0" d="M13,10.5h5.4v2.5h0.1c0.7-1.4,2.6-2.9,5.3-2.9c5.7,0,6.7,3.7,6.7,8.6v9.9h-5.6v-8.8c0-2.1,0-4.8-2.9-4.8
	c-2.9,0-3.4,2.3-3.4,4.6v8.9H13C13,28.5,13,10.5,13,10.5z"/>
</svg>
