<?xml version="1.0" encoding="utf-8"?>
<svg version="1.1" xmlns="http://www.w3.org/2000/svg" xmlns:xlink="http://www.w3.org/1999/xlink" x="0px" y="0px"
	 width="34px" height="30px" viewBox="0 2 34 30" enable-background="new 0 2 34 30" xml:space="preserve">
<path fill="#FFFFFF" d="M14.264,28.204c-5.62,0.552-10.474-1.987-10.839-5.677c-0.364-3.689,3.899-7.134,9.518-7.692
	c5.624-0.556,10.476,1.987,10.842,5.678C24.147,24.203,19.889,27.646,14.264,28.204 M25.51,15.95
	c-0.478-0.144-0.807-0.241-0.555-0.868c0.542-1.366,0.598-2.543,0.01-3.382c-1.103-1.573-4.118-1.488-7.574-0.042
	c0-0.001-1.086,0.476-0.81-0.387c0.532-1.71,0.453-3.141-0.376-3.969C14.328,5.425,9.34,7.373,5.063,11.65
	C1.86,14.855,0,18.247,0,21.186c0,5.613,7.201,9.028,14.246,9.028c9.238,0,15.379-5.366,15.379-9.628
	C29.627,18.016,27.457,16.555,25.51,15.95"/>
<path fill="#FFFFFF" d="M31.645,5.675c-2.231-2.476-5.521-3.415-8.557-2.771h-0.004c-0.697,0.15-1.148,0.842-1,1.543
	c0.15,0.701,0.842,1.151,1.547,1c2.161-0.458,4.496,0.212,6.081,1.968c1.586,1.757,2.018,4.152,1.339,6.253v0.001
	c-0.22,0.682,0.152,1.415,0.837,1.638c0.682,0.221,1.414-0.155,1.64-0.836c0,0,0-0.004,0-0.005
	C34.476,11.511,33.876,8.143,31.645,5.675"/>
<path fill="#FFFFFF" d="M28.218,8.764c-1.087-1.202-2.688-1.66-4.168-1.347c-0.605,0.128-0.991,0.725-0.86,1.329
	c0.13,0.602,0.727,0.99,1.326,0.858l0,0c0.723-0.152,1.509,0.07,2.041,0.659c0.53,0.589,0.673,1.39,0.443,2.095h0.004
	c-0.189,0.587,0.131,1.218,0.721,1.409c0.586,0.188,1.22-0.132,1.409-0.723C29.596,11.608,29.305,9.968,28.218,8.764"/>
<path fill="#FFFFFF" d="M14.576,21.521c-0.198,0.337-0.631,0.497-0.972,0.356c-0.334-0.14-0.439-0.513-0.249-0.844
	c0.195-0.329,0.614-0.489,0.946-0.358C14.643,20.802,14.763,21.182,14.576,21.521 M12.784,23.818
	c-0.542,0.866-1.708,1.244-2.586,0.847c-0.865-0.393-1.118-1.402-0.576-2.248c0.538-0.841,1.664-1.217,2.534-0.85
	C13.038,21.939,13.319,22.942,12.784,23.818 M14.828,17.679c-2.675-0.698-5.698,0.636-6.862,2.997
	c-1.183,2.403-0.038,5.07,2.665,5.94c2.799,0.906,6.1-0.477,7.246-3.074C19.008,21.008,17.597,18.394,14.828,17.679"/>
</svg>
