<?xml version="1.0" encoding="utf-8"?>
<svg version="1.1" xmlns="http://www.w3.org/2000/svg" xmlns:xlink="http://www.w3.org/1999/xlink" x="0px" y="0px"
	 width="34px" height="30px" viewBox="0 2 34 30" enable-background="new 0 2 34 30" xml:space="preserve">
<g>
	<g>
		<path fill="#FFFFFF" d="M30.815,15.337v-3.043h-3.042v3.043h-3.044v3.042h3.044v3.044h3.042V18.38h3.044v-3.042H30.815z"/>
	</g>
</g>
<path fill="#FFFFFF" d="M11.925,15.209v3.958h6.546c-0.264,1.695-1.979,4.976-6.546,4.976c-3.939,0-7.152-3.265-7.152-7.285
	c0-4.021,3.213-7.287,7.152-7.287c2.241,0,3.741,0.956,4.599,1.78l3.131-3.017c-2.009-1.878-4.615-3.015-7.73-3.015
	c-6.379,0-11.537,5.16-11.537,11.538c0,6.378,5.158,11.537,11.537,11.537c6.66,0,11.078-4.681,11.078-11.274
	c0-0.758-0.086-1.336-0.183-1.913H11.925V15.209L11.925,15.209z"/>
</svg>
