<?xml version="1.0" encoding="utf-8"?>
<!-- Generator: Adobe Illustrator 16.0.2, SVG Export Plug-In . SVG Version: 6.00 Build 0)  -->
<!DOCTYPE svg PUBLIC "-//W3C//DTD SVG 1.1//EN" "http://www.w3.org/Graphics/SVG/1.1/DTD/svg11.dtd">
<svg version="1.1" id="Слой_1" xmlns="http://www.w3.org/2000/svg" xmlns:xlink="http://www.w3.org/1999/xlink" x="0px" y="0px"
	 width="24px" height="18px" viewBox="0 0 24 18" enable-background="new 0 0 24 18" xml:space="preserve">
<g>
	<g>
		<path fill="#D21C0C" d="M13.9,8.5H8.5v2h4.73c-0.465,2-1.915,3.426-4.333,3.426c-2.762,0-4.728-2.025-4.728-4.789
			c0-2.762,2.032-4.799,4.793-4.799c1.125,0,2.184,0.424,3.021,1.051l1.442-1.668C12.217,2.736,10.678,2.14,9,2.14
			c-3.866,0-7,3.131-7,6.997c0,3.866,2.884,6.998,6.75,6.998s6.75-3.136,6.75-7.001V8.5H13.9z M21.5,8.5v-2h-2v2h-2v2h2v2h2v-2h2v-2
			H21.5z"/>
	</g>
</g>
</svg>
