<?xml version="1.0" encoding="utf-8"?>
<!-- Generator: Adobe Illustrator 16.0.2, SVG Export Plug-In . SVG Version: 6.00 Build 0)  -->
<!DOCTYPE svg PUBLIC "-//W3C//DTD SVG 1.1//EN" "http://www.w3.org/Graphics/SVG/1.1/DTD/svg11.dtd">
<svg version="1.1" id="Слой_1" xmlns="http://www.w3.org/2000/svg" xmlns:xlink="http://www.w3.org/1999/xlink" x="0px" y="0px"
	 width="24px" height="18px" viewBox="0 0 24 18" enable-background="new 0 0 24 18" xml:space="preserve">
<g id="Symbol_2_">
	<g>
		<path fill="#2DAAE1" d="M18.992,3.941c-0.601,0.267-1.244,0.446-1.922,0.527c0.69-0.414,1.223-1.069,1.473-1.851
			c-0.646,0.384-1.363,0.662-2.127,0.812c-0.609-0.65-1.48-1.056-2.443-1.056c-1.848,0-3.347,1.498-3.347,3.346
			c0,0.263,0.029,0.519,0.086,0.763c-2.782-0.14-5.249-1.472-6.9-3.496C3.523,3.48,3.358,4.053,3.358,4.667
			c0,1.161,0.591,2.185,1.489,2.785C4.299,7.436,3.784,7.285,3.33,7.034v0.042c0,1.621,1.153,2.973,2.686,3.283
			c-0.281,0.074-0.577,0.115-0.882,0.115c-0.216,0-0.425-0.021-0.629-0.061c0.426,1.328,1.662,2.299,3.127,2.322
			c-1.146,0.896-2.589,1.434-4.157,1.434c-0.271,0-0.537-0.016-0.799-0.047c1.481,0.949,3.241,1.504,5.132,1.504
			c6.156,0,9.524-5.1,9.524-9.521c0-0.146-0.006-0.289-0.012-0.432C17.976,5.2,18.543,4.612,18.992,3.941z"/>
	</g>
</g>
</svg>
