<?xml version="1.0" encoding="utf-8"?>
<!-- Generator: Adobe Illustrator 16.0.2, SVG Export Plug-In . SVG Version: 6.00 Build 0)  -->
<!DOCTYPE svg PUBLIC "-//W3C//DTD SVG 1.1//EN" "http://www.w3.org/Graphics/SVG/1.1/DTD/svg11.dtd">
<svg version="1.1" id="Слой_1" xmlns="http://www.w3.org/2000/svg" xmlns:xlink="http://www.w3.org/1999/xlink" x="0px" y="0px"
	 width="24px" height="18px" viewBox="0 0 24 18" enable-background="new 0 0 24 18" xml:space="preserve">
<path fill="#4D75A2" d="M20.779,15.007c-0.106,0.014-0.215,0.029-0.322,0.031c-1.056,0.002-2.111-0.002-3.166,0.002
	c-0.147,0.002-0.271-0.054-0.381-0.142c-0.221-0.18-0.447-0.356-0.65-0.558c-0.528-0.522-1.043-1.063-1.568-1.592
	c-0.162-0.164-0.337-0.315-0.509-0.473c-0.09-0.084-0.201-0.104-0.315-0.102c-0.154,0.006-0.281,0.074-0.343,0.217
	c-0.057,0.131-0.104,0.271-0.116,0.408c-0.027,0.252-0.027,0.504-0.033,0.754c-0.006,0.281-0.014,0.563-0.092,0.836
	c-0.035,0.121-0.086,0.242-0.148,0.352c-0.109,0.188-0.279,0.291-0.5,0.293c-0.921,0.023-1.844,0.035-2.764-0.025
	c-0.17-0.01-0.328-0.065-0.479-0.141c-0.859-0.422-1.614-0.981-2.269-1.682c-0.798-0.848-1.523-1.76-2.248-2.67
	C3.899,9.288,3.057,7.974,2.299,6.604c-0.276-0.5-0.543-1.006-0.743-1.544c-0.1-0.263-0.1-0.529-0.025-0.797
	c0.021-0.08,0.059-0.157,0.103-0.227c0.063-0.101,0.159-0.158,0.283-0.161C1.96,3.874,2.006,3.873,2.049,3.873
	c0.958,0,1.915,0.005,2.872-0.003c0.189-0.001,0.334,0.063,0.461,0.19C5.617,4.295,5.801,4.57,5.966,4.856
	c0.18,0.311,0.359,0.625,0.518,0.948c0.348,0.71,0.775,1.374,1.227,2.021c0.22,0.314,0.459,0.616,0.688,0.924
	c0.107,0.145,0.254,0.199,0.424,0.203c0.166,0.006,0.233-0.063,0.24-0.227c0.001-0.04,0.001-0.079,0.001-0.119
	c0-1.081,0-2.16-0.001-3.241c0-0.084,0-0.168-0.009-0.251C9.035,4.921,8.933,4.808,8.742,4.771C8.656,4.754,8.566,4.748,8.479,4.734
	C8.209,4.7,8.098,4.585,8.07,4.315C8.028,3.908,8.224,3.587,8.606,3.444c0.165-0.062,0.336-0.075,0.51-0.074
	c0.853,0.001,1.707,0,2.559,0c0.173,0,0.347-0.009,0.518,0.006c0.181,0.017,0.362,0.041,0.538,0.093
	c0.373,0.107,0.587,0.362,0.632,0.752c0.01,0.094,0.012,0.188,0.012,0.281c0.002,0.656,0.002,1.312,0.002,1.968
	c0,0.694,0,1.391,0.002,2.085c0,0.068,0.007,0.14,0.025,0.205c0.06,0.211,0.289,0.279,0.482,0.148
	c0.568-0.394,0.941-0.938,1.229-1.545c0.266-0.562,0.494-1.141,0.743-1.708c0.2-0.451,0.405-0.899,0.612-1.346
	c0.051-0.11,0.127-0.211,0.195-0.313c0.063-0.091,0.146-0.131,0.265-0.131c1.239,0.004,2.478,0.003,3.715,0.002
	c0.304,0,0.543,0.123,0.731,0.354c0.065,0.081,0.095,0.178,0.111,0.283c0.073,0.488-0.094,0.913-0.326,1.323
	c-0.223,0.386-0.483,0.744-0.771,1.083c-0.592,0.7-1.173,1.41-1.681,2.178c-0.131,0.195-0.242,0.406-0.362,0.609
	c-0.088,0.148-0.076,0.291,0.034,0.424c0.225,0.271,0.439,0.547,0.677,0.803c0.56,0.613,1.131,1.212,1.692,1.82
	c0.182,0.197,0.344,0.408,0.511,0.615c0.056,0.068,0.096,0.148,0.149,0.219C21.832,14.124,21.309,14.938,20.779,15.007z"/>
</svg>
